<svg xmlns="http://www.w3.org/2000/svg" xmlns:xlink="http://www.w3.org/1999/xlink" viewBox="0 0 664 469"><defs><style>.a,.q{fill:#fff}.b{fill:#6c63ff}.c{opacity:.1}.d{fill:url(#c)}.e,.i{fill:#f5f5f5}.f,.h{fill:none;stroke:#535461;stroke-miterlimit:10}.f{stroke-width:2px}.g,.i{opacity:.2}.j{fill:#a8a8a8}.k{fill:url(#d)}.l{fill:#f7c4a7}.m{fill:#535461}.n{fill:#575988}.o{fill:#e14b5a}.p{fill:#632652}.q{opacity:.5}.r{fill:#67647e}.s{filter:url(#a)}</style><filter id="a" x="0" y="0" width="664" height="469" filterUnits="userSpaceOnUse"><feOffset dy="3"/><feGaussianBlur stdDeviation="3" result="b"/><feFlood flood-opacity=".161"/><feComposite operator="in" in2="b"/><feComposite in="SourceGraphic"/></filter><linearGradient id="c" x1=".5" y1="1" x2=".5" gradientUnits="objectBoundingBox"><stop offset="0" stop-color="gray" stop-opacity=".251"/><stop offset=".54" stop-color="gray" stop-opacity=".122"/><stop offset="1" stop-color="gray" stop-opacity=".102"/></linearGradient><linearGradient id="d" x1=".5" x2=".5" xlink:href="#c"/></defs><g class="s"><rect class="a" width="646" height="451" rx="10" transform="translate(9 6)"/></g><g transform="translate(53 66.514)"><rect class="b" width="54.37" height="21.642" rx="8.84" transform="translate(84.627 215.445)"/><rect class="b" width="54.37" height="21.642" rx="8.84" transform="translate(138.996 215.445)"/><rect class="c" width="54.37" height="21.642" rx="8.84" transform="translate(138.996 215.445)"/><rect class="b" width="54.37" height="21.642" rx="8.84" transform="translate(193.366 215.445)"/><rect class="b" width="54.37" height="21.642" rx="8.84" transform="translate(247.736 215.445)"/><rect class="c" width="54.37" height="21.642" rx="8.84" transform="translate(247.736 215.445)"/><rect class="b" width="54.37" height="21.642" rx="8.84" transform="translate(302.106 215.445)"/><rect class="b" width="54.37" height="21.642" rx="8.84" transform="translate(356.475 215.445)"/><rect class="c" width="54.37" height="21.642" rx="8.84" transform="translate(356.475 215.445)"/><rect class="b" width="54.37" height="21.642" rx="8.84" transform="rotate(180 205.423 107.723)"/><rect class="b" width="54.37" height="21.642" rx="8.84" transform="rotate(180 178.238 107.723)"/><rect class="c" width="54.37" height="21.642" rx="8.84" transform="rotate(180 178.238 107.723)"/><rect class="b" width="54.37" height="21.642" rx="8.84" transform="rotate(180 151.053 107.723)"/><rect class="b" width="54.37" height="21.642" rx="8.84" transform="rotate(180 123.868 107.723)"/><rect class="c" width="54.37" height="21.642" rx="8.84" transform="rotate(180 123.868 107.723)"/><rect class="b" width="54.37" height="21.642" rx="8.84" transform="rotate(180 96.683 107.722)"/><rect class="b" width="54.37" height="21.642" rx="8.84" transform="rotate(180 69.498 107.722)"/><rect class="c" width="54.37" height="21.642" rx="8.84" transform="rotate(180 69.498 107.722)"/><rect class="b" width="54.37" height="21.642" rx="8.84" transform="translate(84.627 172.161)"/><rect class="b" width="54.37" height="21.642" rx="8.84" transform="translate(138.996 172.161)"/><rect class="c" width="54.37" height="21.642" rx="8.84" transform="translate(138.996 172.161)"/><rect class="b" width="54.37" height="21.642" rx="8.84" transform="translate(193.366 172.161)"/><rect class="b" width="54.37" height="21.642" rx="8.84" transform="translate(247.736 172.161)"/><rect class="c" width="54.37" height="21.642" rx="8.84" transform="translate(247.736 172.161)"/><rect class="b" width="54.37" height="21.642" rx="8.84" transform="translate(302.106 172.161)"/><rect class="b" width="54.37" height="21.642" rx="8.84" transform="translate(356.475 172.161)"/><rect class="c" width="54.37" height="21.642" rx="8.84" transform="translate(356.475 172.161)"/><rect class="b" width="54.37" height="21.642" rx="8.84" transform="rotate(180 205.423 86.08)"/><rect class="b" width="54.37" height="21.642" rx="8.84" transform="rotate(180 178.238 86.08)"/><rect class="c" width="54.37" height="21.642" rx="8.84" transform="rotate(180 178.238 86.08)"/><rect class="b" width="54.37" height="21.642" rx="8.84" transform="rotate(180 151.053 86.08)"/><rect class="b" width="54.37" height="21.642" rx="8.84" transform="rotate(180 123.868 86.08)"/><rect class="c" width="54.37" height="21.642" rx="8.84" transform="rotate(180 123.868 86.08)"/><rect class="b" width="54.37" height="21.642" rx="8.84" transform="rotate(180 96.683 86.08)"/><rect class="b" width="54.37" height="21.642" rx="8.84" transform="rotate(180 69.498 86.08)"/><rect class="c" width="54.37" height="21.642" rx="8.84" transform="rotate(180 69.498 86.08)"/><rect class="b" width="54.37" height="21.642" rx="8.84" transform="translate(84.627 129.932)"/><rect class="b" width="54.37" height="21.642" rx="8.84" transform="translate(138.996 129.932)"/><rect class="c" width="54.37" height="21.642" rx="8.84" transform="translate(138.996 129.932)"/><rect class="b" width="54.37" height="21.642" rx="8.84" transform="translate(193.366 129.932)"/><rect class="b" width="54.37" height="21.642" rx="8.84" transform="translate(247.736 129.932)"/><rect class="c" width="54.37" height="21.642" rx="8.84" transform="translate(247.736 129.932)"/><rect class="b" width="54.37" height="21.642" rx="8.84" transform="translate(302.106 129.932)"/><rect class="b" width="54.37" height="21.642" rx="8.84" transform="translate(356.475 129.932)"/><rect class="c" width="54.37" height="21.642" rx="8.84" transform="translate(356.475 129.932)"/><rect class="b" width="54.37" height="21.642" rx="8.84" transform="rotate(180 205.423 64.966)"/><rect class="b" width="54.37" height="21.642" rx="8.84" transform="rotate(180 178.238 64.966)"/><rect class="c" width="54.37" height="21.642" rx="8.84" transform="rotate(180 178.238 64.966)"/><rect class="b" width="54.37" height="21.642" rx="8.84" transform="rotate(180 151.053 64.966)"/><rect class="b" width="54.37" height="21.642" rx="8.84" transform="rotate(180 123.868 64.966)"/><rect class="c" width="54.37" height="21.642" rx="8.84" transform="rotate(180 123.868 64.966)"/><rect class="b" width="54.37" height="21.642" rx="8.84" transform="rotate(180 96.683 64.966)"/><rect class="b" width="54.37" height="21.642" rx="8.84" transform="rotate(180 69.498 64.966)"/><rect class="c" width="54.37" height="21.642" rx="8.84" transform="rotate(180 69.498 64.966)"/><rect class="b" width="54.37" height="21.642" rx="8.84" transform="translate(84.627 86.647)"/><rect class="b" width="54.37" height="21.642" rx="8.84" transform="translate(138.996 86.647)"/><rect class="c" width="54.37" height="21.642" rx="8.84" transform="translate(138.996 86.647)"/><rect class="b" width="54.37" height="21.642" rx="8.84" transform="translate(193.366 86.647)"/><rect class="b" width="54.37" height="21.642" rx="8.84" transform="translate(247.736 86.647)"/><rect class="c" width="54.37" height="21.642" rx="8.84" transform="translate(247.736 86.647)"/><rect class="b" width="54.37" height="21.642" rx="8.84" transform="translate(302.106 86.647)"/><rect class="b" width="54.37" height="21.642" rx="8.84" transform="translate(356.475 86.647)"/><rect class="c" width="54.37" height="21.642" rx="8.84" transform="translate(356.475 86.647)"/><rect class="d" width="58.593" height="23.321" rx="8.84" transform="translate(352.252 14.547)"/><rect class="b" width="54.37" height="21.642" rx="8.84" transform="rotate(180 204.367 18.514)"/><rect class="b" width="54.37" height="21.642" rx="8.84" transform="rotate(180 178.238 43.324)"/><rect class="c" width="54.37" height="21.642" rx="8.84" transform="rotate(180 178.238 43.324)"/><rect class="b" width="54.37" height="21.642" rx="8.84" transform="rotate(180 151.053 43.324)"/><rect class="b" width="54.37" height="21.642" rx="8.84" transform="rotate(180 123.868 43.324)"/><rect class="c" width="54.37" height="21.642" rx="8.84" transform="rotate(180 123.868 43.324)"/><rect class="b" width="54.37" height="21.642" rx="8.84" transform="rotate(180 96.683 43.324)"/><rect class="b" width="54.37" height="21.642" rx="8.84" transform="rotate(180 69.498 43.324)"/><rect class="c" width="54.37" height="21.642" rx="8.84" transform="rotate(180 69.498 43.324)"/><ellipse class="e" cx="263.403" cy="59.912" rx="263.403" ry="59.912" transform="translate(0 222.836)"/><path class="f" d="M60.15 255.858s4.751-16.052-.887-27.871a25.337 25.337 0 0 1-2.053-15.91 42.647 42.647 0 0 1 2.254-7.469"/><path class="b" d="M55.969 197.144c0 1.969 3.563 7.675 3.563 7.675s3.567-5.706 3.567-7.675a3.563 3.563 0 0 0-7.126 0zm-5.888 10.901c1.056 1.652 7.163 4.5 7.163 4.5s-.111-6.725-1.182-8.377a3.563 3.563 0 0 0-5.981 3.875zm.256 18.623c1.758.887 8.446.274 8.446.274s-3.489-5.748-5.247-6.635a3.563 3.563 0 1 0-3.21 6.361zm3.368 14.043c1.584 1.172 8.287 1.7 8.287 1.7s-2.47-6.255-4.049-7.427a3.563 3.563 0 0 0-4.223 5.727zm11.017-27.783c-1.409 1.372-7.987 2.792-7.987 2.792s1.61-6.53 3.019-7.918a3.563 3.563 0 0 1 4.967 5.11zm3.731 16.463c-1.758.887-8.446.275-8.446.275s3.489-5.748 5.247-6.635a3.563 3.563 0 0 1 3.2 6.361zm1.425 16.533c-1.584 1.172-8.287 1.7-8.287 1.7s2.47-6.255 4.049-7.427a3.563 3.563 0 0 1 4.223 5.727zm245.245-81.037a41.451 41.451 0 0 1 7.559 43.121c-9.8 25.76 16.8 68.622 16.8 68.622s-.285-.042-.813-.137c-35.657-6.318-53.372-47.1-33.546-77.39 7.371-11.265 13.426-24.472 10-34.216z"/><path class="g" d="M315.123 164.887a41.451 41.451 0 0 1 7.559 43.121c-9.8 25.76 16.8 68.622 16.8 68.622s-.285-.042-.813-.137c-35.657-6.318-53.372-47.1-33.546-77.39 7.371-11.265 13.426-24.472 10-34.216z"/><path class="h" d="M315.122 164.887s9.8 21.278 0 38.639-1.679 66.078 24.377 73.077"/><path class="b" d="M284.206 235.097s19.811-3.167 21.616 14.6 38.09 20.212 38.09 20.212l-.681.454c-29.961 19.668-58.593 12.526-54.285-13.587 1.605-9.707 1.462-19.467-4.74-21.679z"/><path class="i" d="M284.206 235.097s19.811-3.167 21.616 14.6 38.09 20.212 38.09 20.212l-.681.454c-29.961 19.668-58.593 12.526-54.285-13.587 1.605-9.707 1.462-19.467-4.74-21.679z"/><path class="h" d="M284.206 235.098s15.377 3.373 14.115 17.356 22.835 30.743 45.591 17.456"/><path class="j" d="M434.921 275.965s-29.4-5.88-37.246-13.724-43.126-21.563-47.048-11.761-52.923 43.132-19.573 49.012 78.409 7.839 88.211 3.922 15.656-27.449 15.656-27.449z"/><path class="g" d="M331.054 295.849c33.324 5.88 78.409 7.839 88.211 3.922 7.464-2.988 12.669-17.33 14.7-24.007l.982.206s-5.88 23.521-15.683 27.449-54.9 1.958-88.211-3.922c-9.618-1.7-12.368-5.685-11.333-10.731.777 3.288 4.154 5.816 11.334 7.083z"/><path class="k" d="M494.41 14.863a8.636 8.636 0 0 0-2.433-3.373c-7.892-7.189-20.65-5.009-30.447-9.406-2.259-1.013-4.571-2.418-7.021-2.032-3.421.528-6.6 4.434-9.586 2.7l.211.649-.211-.111 2.2 6.683a24.392 24.392 0 0 0 3.368 7.343 19.225 19.225 0 0 0 4.65 31.978c.106.222.206.449.306.676l.28.116a22.45 22.45 0 0 1 1.446 4.656c-2.539.354-6.968 3.167-11.317 7.306l-8.7-.29a28.473 28.473 0 0 1-15.646-5.321l-26.055-18.713a8.715 8.715 0 0 0-4.988 2.206c-3.231-3.368-5.975-6.862-5.743-8.974 0 0-12.109-22.661-16.512-11.333s8.256 23.226 8.256 23.226l8.029 10.4a43.769 43.769 0 0 0-.6 5.516c9.908 11.333 44.578 21.584 44.578 21.584l5.405.264.032.264a18.409 18.409 0 0 0-.486 4.328v1.082c.275 18.074 2.75 73.373 2.75 73.373.48-.216.982-.412 1.489-.6l-.395 4.92s-23.115 3.236-40.176 9.713-17.609 14.031-17.609 14.031v66.656c-4.872 2.5-12.563 5.806-16.512 4.028-4.286-1.911-6.635-.306-7.063 1.367a2.111 2.111 0 0 0 0 1.008 1.8 1.8 0 0 0 .164.428v.032a1.713 1.713 0 0 0 .29.38c1.652 1.621 37.425 15.646 45.681 13.487a5.709 5.709 0 0 0 .75-.253c.079-.032.148-.074.227-.111s.306-.143.449-.227.164-.111.243-.164.248-.164.364-.253a2.429 2.429 0 0 0 .227-.206c.074-.069.216-.185.312-.29s.137-.158.206-.238.19-.211.275-.327.116-.174.179-.259.169-.243.243-.37.1-.179.148-.274.148-.269.216-.412a3.016 3.016 0 0 0 .121-.28c.037-.1.132-.3.19-.454s.063-.185.1-.28a5.1 5.1 0 0 0 .164-.528 1.026 1.026 0 0 1 .074-.269c.047-.185.1-.364.143-.528a1.44 1.44 0 0 1 .053-.253c.042-.2.084-.4.116-.6a.49.49 0 0 1 .037-.227c.037-.216.069-.438.095-.655v-.19c.026-.238.053-.475.074-.713v-.148q.032-.385.047-.771v-.982a45.18 45.18 0 0 0-1.056-9.57l2.074-56.761a309.627 309.627 0 0 0 32.39-1.193l1.182 27.09s0 17.8 6.055 25.9c5.184 6.926 11.17 37.557 12.785 46.251-2.222 4.223-6.477 9.5-13.888 9.322 0 0-13.941-1.2-13.154 2.639a1.982 1.982 0 0 0 .09.3 2.731 2.731 0 0 0 .153.322c.058.1.121.2.2.306l.042.063q.119.166.269.348v.026c.1.111.2.222.306.333l.1.1c.127.127.253.253.4.385 7.153 6.477 48.98 7.554 48.98 7.554v-.3c0-1.874-.274-11.7-2.777-19.1h.581s-6.055-54.5-11.006-60.968c0 0-1.314-28.737 1.652-46.742l.528-.2c13.866-5.205 14.856-17.973 13.425-27.344 2.639.845 4.181 1.42 4.181 1.42s-.048-.406-.137-1.13l.137.053s-.264-1.716-.7-4.387c-.992-7.353-2.914-20.2-4.962-26.266-.333-1.335-.649-2.476-.94-3.336a57.041 57.041 0 0 1-2.423-11.206 132.824 132.824 0 0 1-.85-14.865 142.66 142.66 0 0 1 1.52-19.827 121.3 121.3 0 0 0 1.531-16.812 22.424 22.424 0 0 0-.333-4.751c-.734-3.362-3.98-5.548-7.353-6.941-.216-.09-.438-.164-.66-.248.084-1.272.19-2.718.327-4.223a3.626 3.626 0 0 0 2.8.57 6.691 6.691 0 0 0 3.415-2.639c4.877-5.991 9.887-12.236 11.761-19.679a42.509 42.509 0 0 0 1.056-10.135v-.56a11.022 11.022 0 0 0-.389-3.784z"/><path class="l" d="M450.002 44.07s7.39 11.085 5.806 16.364 17.419 2.111 17.419 2.111.528-20.587 4.223-25.337-27.448 6.862-27.448 6.862zm-48.827 7.126s-15.308-12.669-14.78-17.419c0 0-11.613-22.17-15.836-11.085s7.918 22.7 7.918 22.7l14.78 19.531z"/><path class="m" d="M385.603 249.936s-14.252 8.974-20.059 6.334-7.918 1.584-6.334 3.167 35.895 15.308 43.813 13.2 3.89-19.4 3.89-19.4zm75.483 38.533s-3.431 14.516-15.308 14.252c0 0-17.947-1.584-11.085 4.751s46.98 7.39 46.98 7.39 0-21.642-7.39-26.393-13.197 0-13.197 0z"/><path class="n" d="M439.445 186.065l1.584 36.95s0 17.419 5.807 25.337 12.669 47.508 12.669 47.508h20.059s-5.806-53.314-10.557-59.648c0 0-2.111-46.98 5.279-57.537z"/><path class="c" d="M439.445 186.065l1.584 36.95s0 17.419 5.807 25.337 12.669 47.508 12.669 47.508h20.059s-5.806-53.314-10.557-59.648c0 0-2.111-46.98 5.279-57.537z"/><path class="n" d="M481.146 152.809s12.141 29.032-10.029 37.478-62.288 7.39-62.288 7.39l-2.111 61.232s-24.809 3.167-25.337-4.751V187.12s.528-7.39 16.892-13.724 38.534-9.5 38.534-9.5l1.056-13.724z"/><path class="c" d="M461.694 57.166a25.258 25.258 0 0 1 12.4 1.753c3.236 1.362 6.334 3.5 7.052 6.788.834 3.9-.09 12.632-1.151 20.027a137.92 137.92 0 0 0-.644 34.992c.528 4.851 1.293 9.079 2.323 10.964 3.167 5.806 6.334 33.255 6.334 33.255s-34.839-13.2-52.258-5.279c0 0-2.375-54.106-2.639-71.789-.206-13.693 17.156-29.3 22.962-29.824 3.404-.307 2.237-.534 5.621-.887z"/><path class="o" d="M461.694 56.111a25.258 25.258 0 0 1 12.4 1.753c3.236 1.362 6.334 3.5 7.052 6.788.834 3.9-.09 12.632-1.151 20.027a137.92 137.92 0 0 0-.644 34.992 56.756 56.756 0 0 0 2.323 10.964c2.375 7.126 6.334 33.255 6.334 33.255s-34.839-13.2-52.258-5.279c0 0-2.375-54.106-2.639-71.789-.206-13.693 17.156-29.3 22.962-29.824 3.404-.307 2.237-.534 5.621-.887z"/><path class="c" d="M471.116 85.243l-37.478-2.111s-2.386-18.375 3.025-18.185l37.093 1.293s7.918 9.501-2.64 19.003z"/><path class="o" d="M471.117 84.188l-42.754-2.112s-33.255-10.029-42.757-21.114c0 0 .528-19.531 11.085-20.587l24.972 18.312a26.964 26.964 0 0 0 15 5.2l37.093 1.293s7.918 9.506-2.639 19.008z"/><path class="c" d="M472.962 46.446c.628-5 2.9-6.667 4.487-8.71 3.7-4.751-27.449 6.862-27.449 6.862a56 56 0 0 1 4.223 7.765 18.923 18.923 0 0 0 7.918 1.737c4.573 0 7.54-4.946 10.821-7.654z"/><circle class="l" cx="19.003" cy="19.003" r="19.003" transform="translate(443.14 15.565)"/><path class="c" d="M450.144 21.251c-2.022-2.212-3-5.157-3.917-8.013l-2.111-6.54c2.861 1.689 5.912-2.111 9.2-2.639 2.349-.375 4.571 1 6.736 1.985 9.4 4.3 21.642 2.164 29.2 9.2a8.445 8.445 0 0 1 2.333 3.3 11.035 11.035 0 0 1 .422 3.7 42.4 42.4 0 0 1-.987 9.913c-1.795 7.279-6.6 13.392-11.28 19.251a6.374 6.374 0 0 1-3.278 2.608c-2.719.607-4.819-2.328-5.87-4.9a52.2 52.2 0 0 1-3.062-10.594 13.92 13.92 0 0 0-1.256-4.476c-1.636-2.9-5.669-5.643-8.118-7.892s-5.763-2.449-8.012-4.903z"/><path class="p" d="M450.144 20.723c-2.022-2.212-3-5.157-3.917-8.013l-2.111-6.54c2.861 1.689 5.912-2.111 9.2-2.639 2.349-.375 4.571 1 6.736 1.985 9.4 4.3 21.642 2.164 29.2 9.2a8.445 8.445 0 0 1 2.333 3.3 11.035 11.035 0 0 1 .422 3.7 42.4 42.4 0 0 1-.987 9.913c-1.795 7.279-6.6 13.392-11.28 19.251a6.374 6.374 0 0 1-3.278 2.608c-2.719.607-4.819-2.328-5.87-4.9a52.2 52.2 0 0 1-3.062-10.594 13.92 13.92 0 0 0-1.256-4.476c-1.636-2.9-5.669-5.643-8.118-7.892s-5.763-2.449-8.012-4.903z"/><ellipse class="l" cx="1.584" cy="3.431" rx="1.584" ry="3.431" transform="translate(465.574 33.249)"/><path class="c" d="M476.659 128.264s-1.056 3.167-6.334 2.639-20.587-1.584-20.587 0"/><path class="q" d="M434.694 306.945a4.388 4.388 0 0 1-1.536-2.2c-.137.686.285 1.584 1.536 2.729 6.862 6.334 46.98 7.39 46.98 7.39v-.528c-.259-.006-40.139-1.078-46.98-7.391zm-31.672-35.367c-7.918 2.111-42.229-11.613-43.812-13.2a1.714 1.714 0 0 1-.438-.771 1.9 1.9 0 0 0 .438 1.826c1.584 1.584 35.895 15.308 43.813 13.2 4.075-1.087 4.983-6.192 4.909-10.9-.08 4.387-1.141 8.832-4.91 9.845z"/><path class="r" d="M265.034 265.899a.792.792 0 1 0-.792-.792.792.792 0 0 0 .792.792z"/><path class="j" d="M48.294 251.894s19.7-.607 25.633-4.835 30.3-9.275 31.772-2.5 29.608 33.72 7.348 33.92-51.672-3.463-57.6-7.073-7.153-19.512-7.153-19.512z"/><path class="g" d="M113.464 276.102c-22.239.179-51.672-3.463-57.6-7.073-4.513-2.75-6.334-12.611-6.91-17.161h-.66s1.246 15.889 7.174 19.494 35.361 7.279 57.579 7.121c6.419-.053 8.636-2.333 8.514-5.717-.871 2.022-3.32 3.299-8.097 3.336z"/><rect class="b" width="54.37" height="21.642" rx="8.84" transform="rotate(180 274.572 151.272)"/><rect class="c" width="54.37" height="21.642" rx="8.84" transform="rotate(180 274.572 151.272)"/><rect class="b" width="54.37" height="21.642" rx="8.84" transform="translate(494.775 260.314)"/><rect class="b" width="54.37" height="21.642" rx="8.84" transform="rotate(180 274.572 130.157)"/><rect class="c" width="54.37" height="21.642" rx="8.84" transform="rotate(180 274.572 130.157)"/><rect class="b" width="54.37" height="21.642" rx="8.84" transform="translate(494.775 217.029)"/></g></svg>