<svg xmlns="http://www.w3.org/2000/svg" xmlns:xlink="http://www.w3.org/1999/xlink" viewBox="0 0 131.99 106.278"><defs><style>.a{fill:url(#a)}.b{fill:url(#b)}.c{fill:url(#e)}.d{fill:#fff}.e{fill:#6c63ff}.f{fill:#bdbdbd}.g{fill:#e0e0e0}.h{fill:#64ffda}</style><linearGradient id="a" x1=".5" y1="1" x2=".5" gradientUnits="objectBoundingBox"><stop offset="0" stop-color="gray" stop-opacity=".251"/><stop offset=".54" stop-color="gray" stop-opacity=".122"/><stop offset="1" stop-color="gray" stop-opacity=".102"/></linearGradient><linearGradient id="b" x1=".5" y1="1" x2=".5" gradientUnits="objectBoundingBox"><stop offset="0" stop-color="#b3b3b3" stop-opacity=".251"/><stop offset=".54" stop-color="#b3b3b3" stop-opacity=".102"/><stop offset="1" stop-color="#b3b3b3" stop-opacity=".051"/></linearGradient><linearGradient id="e" xlink:href="#a"/></defs><rect class="a" width="131.99" height="19.46" rx="9.73"/><rect class="b" width="14.106" height="13.701" rx="6.851" transform="translate(6.338 3.077)"/><path class="b" d="M24.911 4.666h27.14v1.787h-27.14zm-.083 4.17h38.389v1.787H24.828z"/><rect class="c" width="131.99" height="19.46" rx="9.73" transform="translate(0 28.925)"/><rect class="b" width="14.106" height="13.701" rx="6.851" transform="translate(6.338 32.045)"/><path class="b" d="M24.911 33.691h27.14v1.787h-27.14zm-.083 4.075h38.389v1.787H24.828z"/><rect class="a" width="131.99" height="19.46" rx="9.73" transform="translate(0 57.894)"/><rect class="b" width="14.106" height="13.701" rx="6.851" transform="translate(6.338 60.919)"/><path class="b" d="M24.911 62.649h27.14v1.787h-27.14zm-.083 4.075h38.389v1.787H24.828z"/><rect class="a" width="131.99" height="19.46" rx="9.73" transform="translate(0 86.818)"/><rect class="b" width="14.106" height="13.701" rx="6.851" transform="translate(6.338 89.896)"/><path class="b" d="M24.911 91.484h27.14v1.787h-27.14zm-.083 4.171h38.389v1.787H24.828z"/><rect class="d" width="129.536" height="17.18" rx="8.59" transform="translate(1.227 .701)"/><rect class="e" width="13.85" height="12.097" rx="6.048" transform="translate(7.45 3.419)"/><path class="f" d="M25.654 4.821h26.647v1.578H25.654z"/><path class="g" d="M25.571 8.503h37.691v1.578H25.571z"/><rect class="d" width="129.536" height="17.18" rx="8.59" transform="translate(1.227 29.7)"/><rect class="e" width="13.85" height="12.097" rx="6.048" transform="translate(7.45 32.391)"/><path class="f" d="M25.654 33.843h26.647v1.578H25.654z"/><path class="h" d="M25.571 37.441h37.691v1.578H25.571z"/><rect class="d" width="129.536" height="17.18" rx="8.59" transform="translate(1.227 58.715)"/><rect class="e" width="13.85" height="12.097" rx="6.048" transform="translate(7.45 61.449)"/><path class="f" d="M25.654 62.974h26.647v1.578H25.654z"/><path class="g" d="M25.571 66.573h37.691v1.578H25.571z"/><rect class="d" width="129.536" height="17.18" rx="8.59" transform="translate(1.227 87.695)"/><rect class="e" width="13.85" height="12.097" rx="6.048" transform="translate(7.45 90.412)"/><path class="f" d="M25.654 91.815h26.647v1.578H25.654z"/><path class="h" d="M25.571 95.497h37.691v1.578H25.571z"/></svg>