<svg xmlns="http://www.w3.org/2000/svg" xmlns:xlink="http://www.w3.org/1999/xlink" viewBox="0 0 135.076 113.365"><defs><style>.a{opacity:.5}.b{fill:url(#a)}.c{fill:url(#b)}.d{fill:#fff}.e,.l{fill:#6c63ff}.e{opacity:.2}.f{fill:#dbdbdb}.g{fill:url(#c)}.h{fill:#f5f5f5}.i{fill:#fda57d}.j{fill:#333}.k{opacity:.1}.m{fill:#4d8af0}.n{fill:#fdb797}.o{fill:url(#e)}.p{fill:#be7c5e}.q{fill:none;stroke:#6c63ff;stroke-miterlimit:10;stroke-width:2px;stroke-dasharray:12}.r{fill:url(#f)}.s{fill:#69f0ae}</style><linearGradient id="a" x1=".815" y1=".481" x2=".161" y2=".479" gradientUnits="objectBoundingBox"><stop offset="0" stop-color="gray" stop-opacity=".251"/><stop offset=".54" stop-color="gray" stop-opacity=".122"/><stop offset="1" stop-color="gray" stop-opacity=".102"/></linearGradient><linearGradient id="b" x1=".489" y1="1.219" x2=".489" y2="-.264" gradientUnits="objectBoundingBox"><stop offset="0" stop-opacity=".09"/><stop offset=".55" stop-opacity=".071"/><stop offset="1" stop-opacity=".02"/></linearGradient><linearGradient id="c" x1=".5" y1="1" x2=".5" xlink:href="#a"/><linearGradient id="e" x1="-4.806" y1="1" x2="-4.806" xlink:href="#a"/><linearGradient id="f" x1=".5" y1="1" x2=".5" xlink:href="#a"/></defs><g transform="translate(0 .008)"><g class="a"><path class="b" d="M.114 103.374L0 21.443a3.091 3.091 0 0 1 3.09-3.09l128.783-.172a3.091 3.091 0 0 1 3.091 3.091l.113 81.931a3.09 3.09 0 0 1-3.09 3.091l-128.783.172a3.09 3.09 0 0 1-3.09-3.092z"/></g><path class="c" d="M9.977 24.509l114.552-.16.106 76.088-114.552.16z"/><rect class="d" width="130.289" height="82.747" rx="12.68" transform="rotate(-.08 15065.076 -1853.745)"/><path class="e" d="M122.866 26.63v71.459H13.587V26.63z"/><ellipse class="f" cx="3.016" cy="2.945" rx="3.016" ry="2.945" transform="translate(5.169 59.839)"/><ellipse class="f" cx="1.006" cy=".981" rx="1.006" ry=".981" transform="translate(126.612 49.248)"/><rect class="f" width="12.761" height="1.006" rx=".503" transform="rotate(89.92 36.657 91.712)"/><g class="a"><path class="g" d="M120.61 16.344a16.352 16.352 0 1 0-25.475 13.572l.011.073A5.6 5.6 0 0 0 97 31.17l.022-.073c.773.657 3.988 1.708 7.694 1.7h.08a15.032 15.032 0 0 0 7.133-1.626s.02-.043.051-.124a5.826 5.826 0 0 0 1.545-1.055l.026-.185a16.333 16.333 0 0 0 7.059-13.463z"/></g><circle class="h" cx="15.86" cy="15.86" r="15.86" transform="translate(88.398 .486)"/><path class="i" d="M98.199 22.868s-3.78.309-2.781 7.195a5.429 5.429 0 0 0 1.8 1.145l2.126-7.195zm12.263 0s3.78.309 2.781 7.195a5.429 5.429 0 0 1-1.8 1.145l-2.126-7.195z"/><path class="j" d="M98.362 11.584s-1.8 5.232-2.781 4.742c0 0 9.466 8.176 17.823 0a24.909 24.909 0 0 0-3.6-4.742z"/><circle class="j" cx="7.031" cy="7.031" r="7.031" transform="translate(97.399 4.063)"/><path class="k" d="M110.39 22.868H98.13l-1.151 4.911s-.672 2.272.164 3.27 8.653 3.27 14.389.164a6.4 6.4 0 0 0 .164-4.087c-.654-2.289-.164-.164-.164-.164z"/><path class="k" d="M110.553 22.868H98.287l-1.142 4.911s-.672 2.272.164 3.27 8.653 3.27 14.389.164a6.4 6.4 0 0 0 .164-4.087c-.654-2.289-.164-.164-.164-.164z"/><path class="l" d="M110.462 22.868H98.199l-1.148 4.911s-.672 2.272.164 3.27 8.653 3.27 14.389.164a6.4 6.4 0 0 0 .164-4.087c-.654-2.289-.164-.164-.164-.164z"/><path class="k" d="M101.959 18.799h4.906v4.018a2.364 2.364 0 0 1-2.364 2.364h-.178a2.364 2.364 0 0 1-2.364-2.364z"/><path class="i" d="M101.959 18.617h4.906v4.018a2.364 2.364 0 0 1-2.364 2.364h-.178a2.364 2.364 0 0 1-2.364-2.364z"/><path class="k" d="M101.969 19.323a7.06 7.06 0 0 0 4.906.014v-.6h-4.906z"/><circle class="i" cx="7.031" cy="7.031" r="7.031" transform="translate(97.399 5.59)"/><path class="j" d="M97.708 9.945h13.405s-1.145-5.408-6.213-5.068-7.192 5.068-7.192 5.068z"/><ellipse class="i" cx=".654" cy="1.227" rx=".654" ry="1.227" transform="translate(96.89 11.094)"/><ellipse class="i" cx=".654" cy="1.227" rx=".654" ry="1.227" transform="translate(110.626 11.094)"/><path class="k" d="M97.708 10.131h13.405s-1.145-5.408-6.213-5.068-7.192 5.068-7.192 5.068z"/><g class="a"><path class="g" d="M38.372 39.108A16.352 16.352 0 1 0 12.899 52.68l.011.073a5.6 5.6 0 0 0 1.854 1.181l.022-.073c.773.657 3.988 1.708 7.694 1.7h.08a15.033 15.033 0 0 0 7.133-1.626s.02-.043.051-.124a5.826 5.826 0 0 0 1.545-1.055l.026-.185a16.333 16.333 0 0 0 7.057-13.462z"/></g><circle class="h" cx="15.86" cy="15.86" r="15.86" transform="translate(6.159 23.249)"/><path class="l" d="M15.153 45.311s-3.78.309-2.781 7.195a5.428 5.428 0 0 0 1.8 1.145l2.126-7.195zm12.271 0s3.78.309 2.781 7.195a5.428 5.428 0 0 1-1.8 1.145l-2.126-7.2z"/><circle class="j" cx="7.031" cy="7.031" r="7.031" transform="translate(14.36 26.507)"/><path class="m" d="M27.35 45.311H15.086l-1.145 4.906s-.672 2.272.164 3.27 8.653 3.27 14.389.164a6.4 6.4 0 0 0 .164-4.084c-.654-2.289-.164-.164-.164-.164z"/><path class="m" d="M27.514 45.311H15.25l-1.145 4.906s-.672 2.272.164 3.27 8.653 3.27 14.389.164a6.4 6.4 0 0 0 .164-4.084c-.654-2.289-.164-.164-.164-.164z"/><path class="l" d="M27.424 45.311H15.153l-1.145 4.906s-.672 2.272.164 3.27 8.653 3.27 14.389.164a6.4 6.4 0 0 0 .17-4.084c-.654-2.289-.164-.164-.164-.164z"/><path class="k" d="M18.92 41.241h4.906v4.018a2.364 2.364 0 0 1-2.364 2.364h-.182a2.364 2.364 0 0 1-2.364-2.364z"/><path class="n" d="M18.92 41.06h4.906v4.018a2.364 2.364 0 0 1-2.364 2.364h-.182a2.364 2.364 0 0 1-2.364-2.364z"/><path class="k" d="M18.929 41.767a7.06 7.06 0 0 0 4.906.014v-.6h-4.906z"/><circle class="n" cx="7.031" cy="7.031" r="7.031" transform="translate(14.36 28.033)"/><path class="k" d="M14.669 32.568h13.408s-1.145-5.408-6.213-5.068-7.195 5.068-7.195 5.068z"/><path class="j" d="M14.669 32.392h13.408s-1.145-5.408-6.213-5.068-7.195 5.068-7.195 5.068z"/><ellipse class="n" cx=".654" cy="1.227" rx=".654" ry="1.227" transform="translate(13.852 33.538)"/><ellipse class="n" cx=".654" cy="1.227" rx=".654" ry="1.227" transform="translate(27.586 33.538)"/><path class="j" d="M15.711 28.806a2.493 2.493 0 0 1 .9-1.34 4.709 4.709 0 0 1 1.145-.491 8.754 8.754 0 0 0 1.666-.8 10.6 10.6 0 0 1 1.813-1.052 6.023 6.023 0 0 1 3.554.108 2.991 2.991 0 0 1 .831.309 3.146 3.146 0 0 1 .737.714l1.854 2.233a3.555 3.555 0 0 1 .464.647 2.23 2.23 0 0 1 .21.731 1.913 1.913 0 0 1-.2 1.2 1.887 1.887 0 0 1-1.576.828 5.733 5.733 0 0 1-1.82-.329 36.056 36.056 0 0 0-5.844-1.317 16.483 16.483 0 0 0-2.973-.1c-.309.02-.723.164-.912-.155-.166-.268.066-.911.151-1.186z"/><g class="a"><path class="o" d="M48.952 88.164a16.352 16.352 0 1 1 25.47 13.569l-.011.073a5.6 5.6 0 0 1-1.854 1.181l-.022-.073c-.773.657-3.988 1.708-7.694 1.7h-.08a15.032 15.032 0 0 1-7.133-1.626s-.02-.043-.051-.124a5.826 5.826 0 0 1-1.545-1.055l-.026-.185a16.333 16.333 0 0 1-7.054-13.46z"/></g><circle class="h" cx="15.86" cy="15.86" r="15.86" transform="translate(49.442 72.303)"/><path class="p" d="M59.084 94.204s-3.78.309-2.781 7.195a5.428 5.428 0 0 0 1.8 1.145l2.126-7.195zm12.264 0s3.78.309 2.781 7.195a5.427 5.427 0 0 1-1.8 1.145l-2.126-7.195z"/><path class="j" d="M59.248 82.923s-.29.847-.7 1.826c-.9 2.143.127 10.373 2.279 11.249a12.226 12.226 0 0 0 8.89.411c2.868-1.046 3.752-10.413 1.724-12.7a19.669 19.669 0 0 0-.746-.793z"/><circle class="j" cx="7.031" cy="7.031" r="7.031" transform="translate(58.284 75.401)"/><path class="k" d="M71.275 94.204H59.012l-1.145 4.906s-.672 2.272.164 3.27 8.653 3.27 14.389.164a6.4 6.4 0 0 0 .164-4.087c-.654-2.289-.164-.164-.164-.164z"/><path class="k" d="M71.438 94.204H59.175L58.03 99.11s-.672 2.272.164 3.27 8.653 3.27 14.389.164a6.4 6.4 0 0 0 .164-4.087c-.654-2.289-.164-.164-.164-.164z"/><path class="l" d="M71.347 94.204H59.084l-1.145 4.906s-.672 2.272.164 3.27 8.653 3.27 14.389.164a6.4 6.4 0 0 0 .164-4.087c-.654-2.289-.164-.164-.164-.164z"/><path class="k" d="M62.844 90.135h4.91v4.018a2.364 2.364 0 0 1-2.364 2.364h-.176a2.364 2.364 0 0 1-2.364-2.364v-4.018z"/><path class="p" d="M62.844 89.953h4.91v4.018a2.364 2.364 0 0 1-2.364 2.364h-.176a2.364 2.364 0 0 1-2.364-2.364v-4.018z"/><path class="k" d="M62.855 90.66a7.06 7.06 0 0 0 4.906.014v-.6h-4.906z"/><circle class="p" cx="7.031" cy="7.031" r="7.031" transform="translate(58.284 76.927)"/><path class="j" d="M58.593 81.287h13.408s-1.145-5.408-6.213-5.068-7.195 5.068-7.195 5.068z"/><ellipse class="p" cx=".654" cy="1.227" rx=".654" ry="1.227" transform="translate(57.775 82.431)"/><ellipse class="p" cx=".654" cy="1.227" rx=".654" ry="1.227" transform="translate(71.511 82.431)"/><path class="k" d="M58.593 81.468h13.408s-1.145-5.408-6.213-5.068-7.195 5.068-7.195 5.068z"/><path class="q" d="M103.856 37.147v59.154h-15.87M21.62 58.789v37.51h23.083"/><g class="a" transform="translate(15.579 53.017)"><circle class="r" cx="5.643" cy="5.643" r="5.643"/></g><circle class="s" cx="5.311" cy="5.311" r="5.311" transform="translate(15.911 53.349)"/><path class="d" d="M18.917 57.952l1.992 1.825 2.82-4.149 1 .83-3.817 4.979-2.825-3.149z"/><g class="a" transform="translate(99.098 28.811)"><circle class="r" cx="5.643" cy="5.643" r="5.643"/></g><circle class="s" cx="5.311" cy="5.311" r="5.311" transform="translate(99.431 29.143)"/><path class="d" d="M102.436 33.746l1.992 1.825 2.822-4.149 1 .83-3.817 4.979-2.822-3.154z"/><g class="a" transform="translate(60.144 102.071)"><circle class="r" cx="5.643" cy="5.643" r="5.643"/></g><circle class="s" cx="5.311" cy="5.311" r="5.311" transform="translate(60.476 102.403)"/><path class="d" d="M63.482 107.006l1.992 1.825 2.822-4.149 1 .83-3.817 4.979-2.822-3.152z"/></g></svg>