<svg xmlns="http://www.w3.org/2000/svg" xmlns:xlink="http://www.w3.org/1999/xlink" viewBox="0 0 133.01 156.166"><defs><style>.a{opacity:.5}.b{fill:url(#a)}.c{fill:#fff}.d{fill:#bbb}.e{fill:#dbdbdb}.f{fill:#e0e0e0}.g{fill:#f5f5f5}.h{fill:#6c63ff}.i{fill:#333}.j{opacity:.1}.k{fill:#fda57d}.l{fill:url(#b)}.m{fill:#fafafa}.n{fill:url(#c)}.o{fill:#eee}</style><linearGradient id="a" x1=".143" y1="1.023" x2=".921" y2="-.014" gradientUnits="objectBoundingBox"><stop offset="0" stop-color="gray" stop-opacity=".251"/><stop offset=".54" stop-color="gray" stop-opacity=".122"/><stop offset="1" stop-color="gray" stop-opacity=".102"/></linearGradient><linearGradient id="b" x1=".144" y1="1.024" x2=".919" y2="-.013" xlink:href="#a"/><linearGradient id="c" x1=".5" y1="1" x2=".5" xlink:href="#a"/></defs><g transform="translate(0 .04)"><g class="a" transform="translate(0 -.04)"><path class="b" d="M75.541.12L2.977.296A2.983 2.983 0 0 0 0 3.283L.331 137.04a2.983 2.983 0 0 0 2.991 2.975l72.564-.176a2.983 2.983 0 0 0 2.975-2.989L78.524 3.093A2.983 2.983 0 0 0 75.541.12z"/><rect class="c" width="76.408" height="137.917" rx="13.64" transform="rotate(-.14 76.651 -433.308)"/><path class="d" d="M75.643 38.224l-.076-31.85a2.9 2.9 0 0 0-2.906-2.895l-14.192.034a6.194 6.194 0 0 1-6.092 5.284l-26.392.064a6.194 6.194 0 0 1-6.118-5.254l-13.98.034A2.9 2.9 0 0 0 2.992 6.55l.078 32.119.226 93.079a2.9 2.9 0 0 0 2.915 2.889l66.773-.162a2.9 2.9 0 0 0 2.887-2.9z"/><rect class="e" width="17.027" height="1.064" rx=".532" transform="rotate(-.86 370.593 -2000.314)"/><circle class="e" cx=".639" cy=".639" r=".639" transform="rotate(-.86 346.35 -3333.073)"/><path class="f" d="M33.272 20.745h35.574v2.836H33.272zm0 5.673h35.574v2.836H33.272z"/><ellipse class="g" cx="6.719" cy="6.751" rx="6.719" ry="6.751" transform="translate(8.924 17.079)"/><path class="h" d="M18.537 28.555H12.71a1.737 1.737 0 0 0-1.418.753 8.74 8.74 0 0 0 8.614.048 1.735 1.735 0 0 0-1.369-.801z"/><path class="i" d="M12.758 24.002s-.853 2.484-1.32 2.252c0 0 4.5 3.882 8.463 0a11.832 11.832 0 0 0-1.708-2.252z"/><circle class="i" cx="3.339" cy="3.339" r="3.339" transform="translate(12.299 20.43)"/><path class="j" d="M14.465 27.397h2.33v.905a1.07 1.07 0 0 1-1.07 1.07h-.2a1.07 1.07 0 0 1-1.07-1.07v-.905z"/><path class="k" d="M14.711 27.341h1.839a.246.246 0 0 1 .246.246v.665a1.07 1.07 0 0 1-1.07 1.07h-.2a1.07 1.07 0 0 1-1.062-1.07v-.661a.246.246 0 0 1 .246-.252z"/><path class="j" d="M14.471 27.677a3.351 3.351 0 0 0 2.33 0v-.27h-2.33z"/><circle class="k" cx="3.339" cy="3.339" r="3.339" transform="translate(12.299 21.155)"/><path class="i" d="M12.448 23.224h6.366s-.543-2.57-2.951-2.4a4.317 4.317 0 0 0-3.415 2.4z"/><ellipse class="k" cx=".31" cy=".583" rx=".31" ry=".583" transform="translate(12.059 23.769)"/><ellipse class="k" cx=".31" cy=".583" rx=".31" ry=".583" transform="translate(18.581 23.769)"/><path class="j" d="M12.448 23.315h6.366s-.543-2.57-2.951-2.4a4.317 4.317 0 0 0-3.415 2.4z"/><path class="f" d="M33.272 42.351h35.574v2.836H33.272zm0 5.673h35.574v2.836H33.272z"/><ellipse class="f" cx="6.719" cy="6.751" rx="6.719" ry="6.751" transform="translate(8.924 38.685)"/><path class="f" d="M33.272 63.957h35.574v2.836H33.272zm0 5.673h35.574v2.836H33.272z"/><ellipse class="f" cx="6.719" cy="6.751" rx="6.719" ry="6.751" transform="translate(8.924 60.291)"/><path class="f" d="M33.272 85.563h35.574v2.836H33.272zm0 5.673h35.574v2.836H33.272z"/><ellipse class="f" cx="6.719" cy="6.751" rx="6.719" ry="6.751" transform="translate(8.924 81.897)"/><path class="f" d="M33.272 107.169h35.574v2.836H33.272zm0 5.673h35.574v2.836H33.272z"/><ellipse class="f" cx="6.719" cy="6.751" rx="6.719" ry="6.751" transform="translate(8.924 103.503)"/></g><path class="l" d="M122.245 16.885l-72.566.176a2.983 2.983 0 0 0-2.975 2.989l.331 133.1a2.983 2.983 0 0 0 2.991 2.975l72.568-.176a2.983 2.983 0 0 0 2.971-2.985l-.331-133.1a2.983 2.983 0 0 0-2.989-2.979z"/><rect class="c" width="76.408" height="137.917" rx="13.64" transform="rotate(-.14 6693.516 -19538.706)"/><path class="m" d="M122.346 54.551l-.076-32.077a2.9 2.9 0 0 0-2.909-2.895l-14.2.034a6.194 6.194 0 0 1-6.092 5.284l-26.39.064a6.194 6.194 0 0 1-6.118-5.254l-13.98.034a2.9 2.9 0 0 0-2.895 2.909l.078 32.119"/><path class="m" d="M49.77 54.773l.226 93.079a2.9 2.9 0 0 0 2.909 2.895l66.773-.162a2.9 2.9 0 0 0 2.895-2.909l-.228-93.347"/><path class="f" d="M56.189 32.926h14.186v14.186H56.189z"/><g class="a"><path class="n" d="M39.336 58.897h93.674v31.864H39.336z"/></g><path class="c" d="M40.452 60.207h91.444v29.462H40.452z"/><path class="h" d="M76.921 71.118h35.574v2.836H76.921zm0 5.675h35.574v2.836H76.921z"/><path class="f" d="M76.921 102.546h35.574v2.836H76.921z"/><path class="o" d="M76.921 108.219h35.574v2.836H76.921z"/><path class="h" d="M86.743 44.274h15.931v5.02H86.743z"/><ellipse class="g" cx="6.719" cy="6.751" rx="6.719" ry="6.751" transform="translate(52.573 67.453)"/><path class="h" d="M62.186 78.929h-5.829a1.737 1.737 0 0 0-1.418.753 8.74 8.74 0 0 0 8.614.048 1.735 1.735 0 0 0-1.367-.801z"/><path class="i" d="M56.407 74.378s-.853 2.484-1.32 2.252c0 0 4.5 3.882 8.463 0a11.833 11.833 0 0 0-1.709-2.252z"/><circle class="i" cx="3.339" cy="3.339" r="3.339" transform="translate(55.948 70.806)"/><path class="j" d="M58.114 77.773h2.33v.905a1.07 1.07 0 0 1-1.07 1.07h-.2a1.07 1.07 0 0 1-1.07-1.07v-.905z"/><path class="k" d="M58.36 77.717h1.839a.246.246 0 0 1 .246.246v.659a1.07 1.07 0 0 1-1.072 1.072h-.2a1.07 1.07 0 0 1-1.07-1.07v-.659a.246.246 0 0 1 .246-.246z"/><path class="j" d="M58.118 78.047a3.351 3.351 0 0 0 2.33 0v-.286h-2.33z"/><circle class="k" cx="3.339" cy="3.339" r="3.339" transform="translate(55.948 71.529)"/><path class="i" d="M56.088 73.602h6.366s-.543-2.57-2.951-2.4a4.317 4.317 0 0 0-3.415 2.4z"/><ellipse class="k" cx=".31" cy=".583" rx=".31" ry=".583" transform="translate(55.708 74.143)"/><ellipse class="k" cx=".31" cy=".583" rx=".31" ry=".583" transform="translate(62.228 74.143)"/><path class="j" d="M56.088 73.689h6.366s-.543-2.57-2.951-2.4a4.317 4.317 0 0 0-3.415 2.4z"/><ellipse class="f" cx="6.719" cy="6.751" rx="6.719" ry="6.751" transform="translate(56.938 99.098)"/><ellipse class="f" cx="6.719" cy="6.751" rx="6.719" ry="6.751" transform="translate(56.938 125.069)"/><path class="f" d="M76.921 127.643h35.574v2.836H76.921z"/><path class="o" d="M76.921 133.316h35.574v2.836H76.921z"/><path class="f" d="M76.921 32.926h35.574v2.836H76.921zm0 5.675h35.574v2.836H76.921z"/><rect class="e" width="17.027" height="1.064" rx=".532" transform="rotate(-.86 1467.353 -5103.627)"/><circle class="e" cx=".639" cy=".639" r=".639" transform="rotate(-.86 1443.244 -6436.451)"/></g></svg>