<svg xmlns="http://www.w3.org/2000/svg" viewBox="0 0 132.157 124.292"><defs><style>.a{opacity:.5}.b{fill:url(#a)}.c{fill:#fff}.d{fill:#6c63ff}.e{fill:#e0e0e0}</style><linearGradient id="a" x1=".5" y1="1" x2=".5" gradientUnits="objectBoundingBox"><stop offset="0" stop-color="gray" stop-opacity=".251"/><stop offset=".54" stop-color="gray" stop-opacity=".122"/><stop offset="1" stop-color="gray" stop-opacity=".102"/></linearGradient></defs><g class="a"><rect class="b" width="82.223" height="124.292" rx="4.5"/></g><rect class="c" width="80.116" height="121.776" rx="4.5" transform="translate(1.055 .913)"/><rect class="d" width="16.023" height="14.421" rx="4.5" transform="translate(9.066 23.346)"/><rect class="e" width="43.263" height="1.603" rx=".801" transform="translate(29.896 23.346)"/><rect class="e" width="35.964" height="1.603" rx=".801" transform="translate(29.896 28.152)"/><rect class="d" width="16.023" height="14.421" rx="4.5" transform="translate(9.066 45.777)"/><rect class="e" width="43.263" height="1.603" rx=".801" transform="translate(29.896 45.777)"/><rect class="e" width="43.263" height="1.603" rx=".801" transform="translate(29.896 50.585)"/><rect class="d" width="16.023" height="14.421" rx="4.5" transform="translate(9.066 68.21)"/><rect class="e" width="43.263" height="1.603" rx=".801" transform="translate(29.896 68.21)"/><rect class="e" width="4.807" height="1.603" rx=".801" transform="translate(29.896 73.017)"/><g class="a" transform="translate(51.167 40.018)"><rect class="b" width="80.99" height="73.058" rx="4.5"/></g><rect class="c" width="78.625" height="70.763" rx="4.5" transform="translate(52.417 40.752)"/><rect class="d" width="16.893" height="15.204" rx="4.5" transform="translate(60.138 55.954)"/><rect class="e" width="45.612" height="1.69" rx=".845" transform="translate(82.098 55.954)"/><rect class="e" width="45.612" height="1.69" rx=".845" transform="translate(82.098 61.022)"/><rect class="e" width="69.262" height="1.69" rx=".845" transform="translate(58.448 79.418)"/><rect class="e" width="69.262" height="1.69" rx=".845" transform="translate(58.448 84.485)"/><rect class="e" width="69.262" height="1.69" rx=".845" transform="translate(58.448 91.243)"/><rect class="e" width="52.369" height="1.69" rx=".845" transform="translate(58.448 96.31)"/></svg>