<svg xmlns="http://www.w3.org/2000/svg" viewBox="0 0 133.165 98.655"><defs><style>.a{fill:#ff5252}.b{fill:#6c63ff}.c{opacity:.1}.d{fill:#464353}</style></defs><circle class="a" cx="11.468" cy="11.468" r="11.468" transform="translate(91.142)"/><path class="b" d="M19.6 19.373h94.111v73.85H19.6z"/><path class="c" d="M19.6 19.373h94.111v73.85H19.6z"/><path class="d" d="M0 29.503h133.165v64.16H0z"/><path class="b" d="M27.749 11.738h77.814v86.917H27.749zM5.432 38.166h16.444v10.571H5.432zm0 17.911h16.444v10.571H5.432zm0 17.912h16.444V84.56H5.432z"/><path class="d" d="M37.732 20.254h16.444v10.571H37.732zm0 17.912h16.444v10.571H37.732zm0 17.911h16.444v10.571H37.732zm57.847-25.252H79.135V20.254h16.444zm0 17.912H79.135V38.166h16.444zm0 17.911H79.135V56.077h16.444z"/><path class="b" d="M110.114 38.166h16.444v10.571h-16.444zm0 17.911h16.444v10.571h-16.444zm0 17.912h16.444V84.56h-16.444z"/><path class="d" d="M59.462 70.466H73.85v28.189H59.462z"/><path class="c" d="M37.732 20.254h16.444v3.23H37.732zm41.403 0h16.444v3.23H79.135zm0 17.912h16.444v3.23H79.135zm0 17.911h16.444v3.23H79.135zM37.732 38.166h16.444v3.23H37.732zm0 17.911h16.444v3.23H37.732zm-32.3-17.911h16.444v2.496H5.432zm0 17.911h16.444v2.496H5.432zm0 17.912h16.444v2.496H5.432zm104.682-35.823h16.444v2.496h-16.444zm0 17.911h16.444v2.496h-16.444zm0 17.912h16.444v2.496h-16.444z"/></svg>