<svg xmlns="http://www.w3.org/2000/svg" xmlns:xlink="http://www.w3.org/1999/xlink" viewBox="0 0 664 469"><defs><style>.a,.q{fill:#fff;}.b{fill:#6c63ff;}.c{opacity:0.1;}.d{fill:url(#c);}.e,.i{fill:#f5f5f5;}.f,.h{fill:none;stroke:#535461;stroke-miterlimit:10;}.f{stroke-width:2px;}.g,.i{opacity:0.2;}.j{fill:#a8a8a8;}.k{fill:url(#d);}.l{fill:#f7c4a7;}.m{fill:#535461;}.n{fill:#575988;}.o{fill:#e14b5a;}.p{fill:#632652;}.q{opacity:0.5;}.r{fill:#67647e;}.s{filter:url(#a);}</style><filter id="a" x="0" y="0" width="664" height="469" filterUnits="userSpaceOnUse"><feOffset dy="3" input="SourceAlpha"/><feGaussianBlur stdDeviation="3" result="b"/><feFlood flood-opacity="0.161"/><feComposite operator="in" in2="b"/><feComposite in="SourceGraphic"/></filter><linearGradient id="c" x1="0.5" y1="1" x2="0.5" gradientUnits="objectBoundingBox"><stop offset="0" stop-color="gray" stop-opacity="0.251"/><stop offset="0.54" stop-color="gray" stop-opacity="0.122"/><stop offset="1" stop-color="gray" stop-opacity="0.102"/></linearGradient><linearGradient id="d" x1="0.5" x2="0.5" y2="0" xlink:href="#c"/></defs><g transform="translate(-1175 -3550)"><g class="s" transform="matrix(1, 0, 0, 1, 1175, 3550)"><rect class="a" width="646" height="451" rx="10" transform="translate(9 6)"/></g><g transform="translate(1228 3616.514)"><rect class="b" width="54.37" height="21.642" rx="8.84" transform="translate(84.627 215.445)"/><rect class="b" width="54.37" height="21.642" rx="8.84" transform="translate(138.996 215.445)"/><rect class="c" width="54.37" height="21.642" rx="8.84" transform="translate(138.996 215.445)"/><rect class="b" width="54.37" height="21.642" rx="8.84" transform="translate(193.366 215.445)"/><rect class="b" width="54.37" height="21.642" rx="8.84" transform="translate(247.736 215.445)"/><rect class="c" width="54.37" height="21.642" rx="8.84" transform="translate(247.736 215.445)"/><rect class="b" width="54.37" height="21.642" rx="8.84" transform="translate(302.106 215.445)"/><rect class="b" width="54.37" height="21.642" rx="8.84" transform="translate(356.475 215.445)"/><rect class="c" width="54.37" height="21.642" rx="8.84" transform="translate(356.475 215.445)"/><rect class="b" width="54.37" height="21.642" rx="8.84" transform="translate(410.845 215.445) rotate(180)"/><rect class="b" width="54.37" height="21.642" rx="8.84" transform="translate(356.475 215.445) rotate(180)"/><rect class="c" width="54.37" height="21.642" rx="8.84" transform="translate(356.475 215.445) rotate(180)"/><rect class="b" width="54.37" height="21.642" rx="8.84" transform="translate(302.106 215.445) rotate(180)"/><rect class="b" width="54.37" height="21.642" rx="8.84" transform="translate(247.736 215.445) rotate(180)"/><rect class="c" width="54.37" height="21.642" rx="8.84" transform="translate(247.736 215.445) rotate(180)"/><rect class="b" width="54.37" height="21.642" rx="8.84" transform="translate(193.366 215.445) rotate(180)"/><rect class="b" width="54.37" height="21.642" rx="8.84" transform="translate(138.996 215.445) rotate(180)"/><rect class="c" width="54.37" height="21.642" rx="8.84" transform="translate(138.996 215.445) rotate(180)"/><rect class="b" width="54.37" height="21.642" rx="8.84" transform="translate(84.627 172.161)"/><rect class="b" width="54.37" height="21.642" rx="8.84" transform="translate(138.996 172.161)"/><rect class="c" width="54.37" height="21.642" rx="8.84" transform="translate(138.996 172.161)"/><rect class="b" width="54.37" height="21.642" rx="8.84" transform="translate(193.366 172.161)"/><rect class="b" width="54.37" height="21.642" rx="8.84" transform="translate(247.736 172.161)"/><rect class="c" width="54.37" height="21.642" rx="8.84" transform="translate(247.736 172.161)"/><rect class="b" width="54.37" height="21.642" rx="8.84" transform="translate(302.106 172.161)"/><rect class="b" width="54.37" height="21.642" rx="8.84" transform="translate(356.475 172.161)"/><rect class="c" width="54.37" height="21.642" rx="8.84" transform="translate(356.475 172.161)"/><rect class="b" width="54.37" height="21.642" rx="8.84" transform="translate(410.845 172.161) rotate(180)"/><rect class="b" width="54.37" height="21.642" rx="8.84" transform="translate(356.475 172.161) rotate(180)"/><rect class="c" width="54.37" height="21.642" rx="8.84" transform="translate(356.475 172.161) rotate(180)"/><rect class="b" width="54.37" height="21.642" rx="8.84" transform="translate(302.106 172.161) rotate(180)"/><rect class="b" width="54.37" height="21.642" rx="8.84" transform="translate(247.736 172.161) rotate(180)"/><rect class="c" width="54.37" height="21.642" rx="8.84" transform="translate(247.736 172.161) rotate(180)"/><rect class="b" width="54.37" height="21.642" rx="8.84" transform="translate(193.366 172.161) rotate(180)"/><rect class="b" width="54.37" height="21.642" rx="8.84" transform="translate(138.996 172.161) rotate(180)"/><rect class="c" width="54.37" height="21.642" rx="8.84" transform="translate(138.996 172.161) rotate(180)"/><rect class="b" width="54.37" height="21.642" rx="8.84" transform="translate(84.627 129.932)"/><rect class="b" width="54.37" height="21.642" rx="8.84" transform="translate(138.996 129.932)"/><rect class="c" width="54.37" height="21.642" rx="8.84" transform="translate(138.996 129.932)"/><rect class="b" width="54.37" height="21.642" rx="8.84" transform="translate(193.366 129.932)"/><rect class="b" width="54.37" height="21.642" rx="8.84" transform="translate(247.736 129.932)"/><rect class="c" width="54.37" height="21.642" rx="8.84" transform="translate(247.736 129.932)"/><rect class="b" width="54.37" height="21.642" rx="8.84" transform="translate(302.106 129.932)"/><rect class="b" width="54.37" height="21.642" rx="8.84" transform="translate(356.475 129.932)"/><rect class="c" width="54.37" height="21.642" rx="8.84" transform="translate(356.475 129.932)"/><rect class="b" width="54.37" height="21.642" rx="8.84" transform="translate(410.845 129.932) rotate(180)"/><rect class="b" width="54.37" height="21.642" rx="8.84" transform="translate(356.475 129.932) rotate(180)"/><rect class="c" width="54.37" height="21.642" rx="8.84" transform="translate(356.475 129.932) rotate(180)"/><rect class="b" width="54.37" height="21.642" rx="8.84" transform="translate(302.106 129.932) rotate(180)"/><rect class="b" width="54.37" height="21.642" rx="8.84" transform="translate(247.736 129.932) rotate(180)"/><rect class="c" width="54.37" height="21.642" rx="8.84" transform="translate(247.736 129.932) rotate(180)"/><rect class="b" width="54.37" height="21.642" rx="8.84" transform="translate(193.366 129.932) rotate(180)"/><rect class="b" width="54.37" height="21.642" rx="8.84" transform="translate(138.996 129.932) rotate(180)"/><rect class="c" width="54.37" height="21.642" rx="8.84" transform="translate(138.996 129.932) rotate(180)"/><rect class="b" width="54.37" height="21.642" rx="8.84" transform="translate(84.627 86.647)"/><rect class="b" width="54.37" height="21.642" rx="8.84" transform="translate(138.996 86.647)"/><rect class="c" width="54.37" height="21.642" rx="8.84" transform="translate(138.996 86.647)"/><rect class="b" width="54.37" height="21.642" rx="8.84" transform="translate(193.366 86.647)"/><rect class="b" width="54.37" height="21.642" rx="8.84" transform="translate(247.736 86.647)"/><rect class="c" width="54.37" height="21.642" rx="8.84" transform="translate(247.736 86.647)"/><rect class="b" width="54.37" height="21.642" rx="8.84" transform="translate(302.106 86.647)"/><rect class="b" width="54.37" height="21.642" rx="8.84" transform="translate(356.475 86.647)"/><rect class="c" width="54.37" height="21.642" rx="8.84" transform="translate(356.475 86.647)"/><rect class="d" width="58.593" height="23.321" rx="8.84" transform="translate(352.252 14.547)"/><rect class="b" width="54.37" height="21.642" rx="8.84" transform="translate(408.734 37.028) rotate(180)"/><rect class="b" width="54.37" height="21.642" rx="8.84" transform="translate(356.475 86.647) rotate(180)"/><rect class="c" width="54.37" height="21.642" rx="8.84" transform="translate(356.475 86.647) rotate(180)"/><rect class="b" width="54.37" height="21.642" rx="8.84" transform="translate(302.106 86.647) rotate(180)"/><rect class="b" width="54.37" height="21.642" rx="8.84" transform="translate(247.736 86.647) rotate(180)"/><rect class="c" width="54.37" height="21.642" rx="8.84" transform="translate(247.736 86.647) rotate(180)"/><rect class="b" width="54.37" height="21.642" rx="8.84" transform="translate(193.366 86.647) rotate(180)"/><rect class="b" width="54.37" height="21.642" rx="8.84" transform="translate(138.996 86.647) rotate(180)"/><rect class="c" width="54.37" height="21.642" rx="8.84" transform="translate(138.996 86.647) rotate(180)"/><ellipse class="e" cx="263.403" cy="59.912" rx="263.403" ry="59.912" transform="translate(0 222.836)"/><path class="f" d="M190.736,564.3s4.751-16.052-.887-27.871a25.337,25.337,0,0,1-2.053-15.91,42.647,42.647,0,0,1,2.254-7.469" transform="translate(-130.586 -308.442)"/><path class="b" d="M185.87,495.723c0,1.969,3.563,7.675,3.563,7.675S193,497.692,193,495.723a3.563,3.563,0,0,0-7.126,0Z" transform="translate(-129.901 -298.579)"/><path class="b" d="M174.2,514.64c1.056,1.652,7.163,4.5,7.163,4.5s-.111-6.725-1.182-8.377a3.563,3.563,0,0,0-5.981,3.875Z" transform="translate(-124.119 -306.595)"/><path class="b" d="M173.438,548.808c1.758.887,8.446.274,8.446.274s-3.489-5.748-5.247-6.635a3.563,3.563,0,1,0-3.21,6.361Z" transform="translate(-123.101 -322.14)"/><path class="b" d="M180.434,575.8c1.584,1.172,8.287,1.7,8.287,1.7s-2.47-6.255-4.049-7.427a3.563,3.563,0,0,0-4.223,5.727Z" transform="translate(-126.729 -335.089)"/><path class="b" d="M195.307,523.324c-1.409,1.372-7.987,2.792-7.987,2.792s1.61-6.53,3.019-7.918a3.563,3.563,0,0,1,4.967,5.11Z" transform="translate(-130.585 -310.396)"/><path class="b" d="M201.966,554.028c-1.758.887-8.446.275-8.446.275s3.489-5.748,5.247-6.635a3.563,3.563,0,0,1,3.2,6.361Z" transform="translate(-133.513 -324.637)"/><path class="b" d="M204.807,585.673c-1.584,1.172-8.287,1.7-8.287,1.7s2.47-6.255,4.049-7.427a3.563,3.563,0,0,1,4.223,5.727Z" transform="translate(-134.929 -339.749)"/><path class="b" d="M660.492,437.8a41.451,41.451,0,0,1,7.559,43.121c-9.8,25.76,16.8,68.622,16.8,68.622s-.285-.042-.813-.137c-35.657-6.318-53.372-47.1-33.546-77.39C657.863,460.751,663.918,447.544,660.492,437.8Z" transform="translate(-345.369 -272.913)"/><path class="g" d="M660.492,437.8a41.451,41.451,0,0,1,7.559,43.121c-9.8,25.76,16.8,68.622,16.8,68.622s-.285-.042-.813-.137c-35.657-6.318-53.372-47.1-33.546-77.39C657.863,460.751,663.918,447.544,660.492,437.8Z" transform="translate(-345.369 -272.913)"/><path class="h" d="M673.224,437.8s9.8,21.278,0,38.639-1.679,66.078,24.377,73.077" transform="translate(-358.102 -272.913)"/><path class="b" d="M618.25,570.614s19.811-3.167,21.616,14.6,38.09,20.212,38.09,20.212l-.681.454c-29.961,19.668-58.593,12.526-54.285-13.587C624.595,582.586,624.452,572.826,618.25,570.614Z" transform="translate(-334.044 -335.517)"/><path class="i" d="M618.25,570.614s19.811-3.167,21.616,14.6,38.09,20.212,38.09,20.212l-.681.454c-29.961,19.668-58.593,12.526-54.285-13.587C624.595,582.586,624.452,572.826,618.25,570.614Z" transform="translate(-334.044 -335.517)"/><path class="h" d="M618.25,570.81s15.377,3.373,14.115,17.356,22.835,30.743,45.591,17.456" transform="translate(-334.044 -335.712)"/><path class="j" d="M800.525,622.393s-29.4-5.88-37.246-13.724-43.126-21.563-47.048-11.761-52.923,43.132-19.573,49.012,78.409,7.839,88.211,3.922S800.525,622.393,800.525,622.393Z" transform="translate(-365.604 -346.428)"/><path class="g" d="M696.68,667.935c33.324,5.88,78.409,7.839,88.211,3.922,7.464-2.988,12.669-17.33,14.7-24.007l.982.206s-5.88,23.521-15.683,27.449-54.9,1.958-88.211-3.922c-9.618-1.7-12.368-5.685-11.333-10.731C686.123,664.14,689.5,666.668,696.68,667.935Z" transform="translate(-365.626 -372.086)"/><path class="k" d="M892.54,140.283a8.636,8.636,0,0,0-2.433-3.373c-7.892-7.189-20.65-5.009-30.447-9.406-2.259-1.013-4.571-2.418-7.021-2.032-3.421.528-6.6,4.434-9.586,2.7l.211.649-.211-.111,2.2,6.683a24.392,24.392,0,0,0,3.368,7.343,19.225,19.225,0,0,0,4.65,31.978c.106.222.206.449.306.676l.28.116a22.45,22.45,0,0,1,1.446,4.656c-2.539.354-6.968,3.167-11.317,7.306l-8.7-.29a28.473,28.473,0,0,1-15.646-5.321l-26.055-18.713a8.715,8.715,0,0,0-4.988,2.206c-3.231-3.368-5.975-6.862-5.743-8.974,0,0-12.109-22.661-16.512-11.333s8.256,23.226,8.256,23.226l8.029,10.4a43.769,43.769,0,0,0-.6,5.516c9.908,11.333,44.578,21.584,44.578,21.584l5.405.264.032.264a18.409,18.409,0,0,0-.486,4.328v1.082c.275,18.074,2.75,73.373,2.75,73.373.48-.216.982-.412,1.489-.6L835.4,289.4s-23.115,3.236-40.176,9.713-17.609,14.031-17.609,14.031V379.8c-4.872,2.5-12.563,5.806-16.512,4.028-4.286-1.911-6.635-.306-7.063,1.367h0a2.111,2.111,0,0,0,0,1.008h0a1.8,1.8,0,0,0,.164.428v.032a1.713,1.713,0,0,0,.29.38c1.652,1.621,37.425,15.646,45.681,13.487a5.709,5.709,0,0,0,.75-.253c.079-.032.148-.074.227-.111s.306-.143.449-.227.164-.111.243-.164.248-.164.364-.253a2.429,2.429,0,0,0,.227-.206c.074-.069.216-.185.312-.29s.137-.158.206-.238.19-.211.275-.327.116-.174.179-.259.169-.243.243-.37.1-.179.148-.274.148-.269.216-.412a3.016,3.016,0,0,0,.121-.28c.037-.1.132-.3.19-.454s.063-.185.1-.28a5.1,5.1,0,0,0,.164-.528,1.026,1.026,0,0,1,.074-.269c.047-.185.1-.364.143-.528a1.44,1.44,0,0,1,.053-.253c.042-.2.084-.4.116-.6a.49.49,0,0,1,.037-.227c.037-.216.069-.438.095-.655v-.19c.026-.238.053-.475.074-.713v-.148q.032-.385.047-.771v-.982a45.18,45.18,0,0,0-1.056-9.57h0l2.074-56.761a309.627,309.627,0,0,0,32.39-1.193l1.182,27.09s0,17.8,6.055,25.9c5.184,6.926,11.17,37.557,12.785,46.251-2.222,4.223-6.477,9.5-13.888,9.322,0,0-13.941-1.2-13.154,2.639h0a1.982,1.982,0,0,0,.09.3h0a2.731,2.731,0,0,0,.153.322h0c.058.1.121.2.2.306l.042.063q.119.166.269.348v.026c.1.111.2.222.306.333l.1.1c.127.127.253.253.4.385,7.153,6.477,48.98,7.554,48.98,7.554v-.3h0c0-1.874-.274-11.7-2.777-19.1h.581s-6.055-54.5-11.006-60.968c0,0-1.314-28.737,1.652-46.742l.528-.2C885,311.168,885.99,298.4,884.559,289.029c2.639.845,4.181,1.42,4.181,1.42s-.048-.406-.137-1.13l.137.053s-.264-1.716-.7-4.387c-.992-7.353-2.914-20.2-4.962-26.266-.333-1.335-.649-2.476-.94-3.336a57.041,57.041,0,0,1-2.423-11.206,132.824,132.824,0,0,1-.85-14.865,142.66,142.66,0,0,1,1.52-19.827,121.3,121.3,0,0,0,1.531-16.812,22.424,22.424,0,0,0-.333-4.751c-.734-3.362-3.98-5.548-7.353-6.941-.216-.09-.438-.164-.66-.248.084-1.272.19-2.718.327-4.223a3.626,3.626,0,0,0,2.8.57,6.691,6.691,0,0,0,3.415-2.639c4.877-5.991,9.887-12.236,11.761-19.679a42.509,42.509,0,0,0,1.056-10.135v-.56A11.022,11.022,0,0,0,892.54,140.283Z" transform="translate(-398.13 -125.42)"/><path class="l" d="M932.34,201.761s7.39,11.085,5.806,16.364,17.419,2.111,17.419,2.111.528-20.587,4.223-25.337S932.34,201.761,932.34,201.761Z" transform="translate(-482.338 -157.691)"/><path class="l" d="M811.658,194.148s-15.308-12.669-14.78-17.419c0,0-11.613-22.17-15.836-11.085s7.918,22.7,7.918,22.7l14.78,19.531Z" transform="translate(-410.483 -142.952)"/><path class="m" d="M786.278,598.92s-14.252,8.974-20.059,6.334-7.918,1.584-6.334,3.167,35.895,15.308,43.813,13.2,3.89-19.4,3.89-19.4Z" transform="translate(-400.675 -348.984)"/><path class="m" d="M928.334,670.031s-3.431,14.516-15.308,14.252c0,0-17.947-1.584-11.085,4.751s46.98,7.39,46.98,7.39,0-21.642-7.39-26.393S928.334,670.031,928.334,670.031Z" transform="translate(-467.248 -381.562)"/><path class="n" d="M912.34,471.31l1.584,36.95s0,17.419,5.807,25.337S932.4,581.105,932.4,581.105h20.059s-5.806-53.314-10.557-59.648c0,0-2.111-46.98,5.279-57.537Z" transform="translate(-472.895 -285.245)"/><path class="c" d="M912.34,471.31l1.584,36.95s0,17.419,5.807,25.337S932.4,581.105,932.4,581.105h20.059s-5.806-53.314-10.557-59.648c0,0-2.111-46.98,5.279-57.537Z" transform="translate(-472.895 -285.245)"/><path class="n" d="M902.106,412.559s12.141,29.032-10.029,37.478-62.288,7.39-62.288,7.39l-2.111,61.232s-24.809,3.167-25.337-4.751V446.87s.528-7.39,16.892-13.724,38.534-9.5,38.534-9.5l1.056-13.724Z" transform="translate(-420.96 -259.75)"/><path class="c" d="M928.927,233.593a25.258,25.258,0,0,1,12.4,1.753c3.236,1.362,6.334,3.5,7.052,6.788.834,3.9-.09,12.632-1.151,20.027a137.92,137.92,0,0,0-.644,34.992c.528,4.851,1.293,9.079,2.323,10.964,3.167,5.806,6.334,33.255,6.334,33.255s-34.839-13.2-52.258-5.279c0,0-2.375-54.106-2.639-71.789-.206-13.693,17.156-29.3,22.962-29.824C926.71,234.173,925.543,233.946,928.927,233.593Z" transform="translate(-467.233 -176.427)"/><path class="o" d="M928.927,231.593a25.258,25.258,0,0,1,12.4,1.753c3.236,1.362,6.334,3.5,7.052,6.788.834,3.9-.09,12.632-1.151,20.027a137.92,137.92,0,0,0-.644,34.992,56.756,56.756,0,0,0,2.323,10.964c2.375,7.126,6.334,33.255,6.334,33.255s-34.839-13.2-52.258-5.279c0,0-2.375-54.106-2.639-71.789-.206-13.693,17.156-29.3,22.962-29.824C926.71,232.173,925.543,231.946,928.927,231.593Z" transform="translate(-467.233 -175.482)"/><path class="c" d="M938.349,268.765l-37.478-2.111s-2.386-18.375,3.025-18.185l37.093,1.293S948.907,259.263,938.349,268.765Z" transform="translate(-467.233 -183.522)"/><path class="o" d="M895.854,245.733,853.1,243.621s-33.255-10.029-42.757-21.114c0,0,.528-19.531,11.085-20.587L846.4,220.232a26.964,26.964,0,0,0,15,5.2l37.093,1.293S906.411,236.231,895.854,245.733Z" transform="translate(-424.737 -161.545)"/><path class="c" d="M955.3,204.609c.628-5,2.9-6.667,4.487-8.71,3.7-4.751-27.449,6.862-27.449,6.862a56,56,0,0,1,4.223,7.765,18.923,18.923,0,0,0,7.918,1.737C949.052,212.263,952.019,207.317,955.3,204.609Z" transform="translate(-482.338 -158.163)"/><circle class="l" cx="19.003" cy="19.003" r="19.003" transform="translate(443.14 15.565)"/><path class="c" d="M927.218,150.256c-2.022-2.212-3-5.157-3.917-8.013l-2.111-6.54c2.861,1.689,5.912-2.111,9.2-2.639,2.349-.375,4.571,1,6.736,1.985,9.4,4.3,21.642,2.164,29.2,9.2a8.445,8.445,0,0,1,2.333,3.3,11.035,11.035,0,0,1,.422,3.7,42.4,42.4,0,0,1-.987,9.913c-1.795,7.279-6.6,13.392-11.28,19.251a6.374,6.374,0,0,1-3.278,2.608c-2.719.607-4.819-2.328-5.87-4.9a52.2,52.2,0,0,1-3.062-10.594,13.92,13.92,0,0,0-1.256-4.476c-1.636-2.9-5.669-5.643-8.118-7.892S929.467,152.71,927.218,150.256Z" transform="translate(-477.074 -129.005)"/><path class="p" d="M927.218,149.256c-2.022-2.212-3-5.157-3.917-8.013l-2.111-6.54c2.861,1.689,5.912-2.111,9.2-2.639,2.349-.375,4.571,1,6.736,1.985,9.4,4.3,21.642,2.164,29.2,9.2a8.445,8.445,0,0,1,2.333,3.3,11.035,11.035,0,0,1,.422,3.7,42.4,42.4,0,0,1-.987,9.913c-1.795,7.279-6.6,13.392-11.28,19.251a6.374,6.374,0,0,1-3.278,2.608c-2.719.607-4.819-2.328-5.87-4.9a52.2,52.2,0,0,1-3.062-10.594,13.92,13.92,0,0,0-1.256-4.476c-1.636-2.9-5.669-5.643-8.118-7.892S929.467,151.71,927.218,149.256Z" transform="translate(-477.074 -128.533)"/><ellipse class="l" cx="1.584" cy="3.431" rx="1.584" ry="3.431" transform="translate(465.574 33.249)"/><path class="c" d="M958.761,368.42s-1.056,3.167-6.334,2.639-20.587-1.584-20.587,0" transform="translate(-482.102 -240.156)"/><path class="q" d="M901.944,704.951a4.388,4.388,0,0,1-1.536-2.2c-.137.686.285,1.584,1.536,2.729,6.862,6.334,46.98,7.39,46.98,7.39v-.528C948.665,712.336,908.785,711.264,901.944,704.951Z" transform="translate(-467.25 -398.006)"/><path class="q" d="M803.694,627.427c-7.918,2.111-42.229-11.613-43.812-13.2a1.714,1.714,0,0,1-.438-.771,1.9,1.9,0,0,0,.438,1.826c1.584,1.584,35.895,15.308,43.813,13.2,4.075-1.087,4.983-6.192,4.909-10.9C808.524,621.969,807.463,626.414,803.694,627.427Z" transform="translate(-400.672 -355.849)"/><path class="r" d="M581.222,627.744a.792.792,0,1,0-.792-.792.792.792,0,0,0,.792.792Z" transform="translate(-316.188 -361.845)"/><path class="j" d="M171.33,593.108s19.7-.607,25.633-4.835,30.3-9.275,31.772-2.5,29.608,33.72,7.348,33.92-51.672-3.463-57.6-7.073S171.33,593.108,171.33,593.108Z" transform="translate(-123.036 -341.214)"/><path class="g" d="M236.5,626.814c-22.239.179-51.672-3.463-57.6-7.073-4.513-2.75-6.334-12.611-6.91-17.161h-.66s1.246,15.889,7.174,19.494,35.361,7.279,57.579,7.121c6.419-.053,8.636-2.333,8.514-5.717C243.726,625.5,241.277,626.777,236.5,626.814Z" transform="translate(-123.036 -350.712)"/><rect class="b" width="54.37" height="21.642" rx="8.84" transform="translate(549.145 302.543) rotate(180)"/><rect class="c" width="54.37" height="21.642" rx="8.84" transform="translate(549.145 302.543) rotate(180)"/><rect class="b" width="54.37" height="21.642" rx="8.84" transform="translate(494.775 260.314)"/><rect class="b" width="54.37" height="21.642" rx="8.84" transform="translate(549.145 260.314) rotate(180)"/><rect class="c" width="54.37" height="21.642" rx="8.84" transform="translate(549.145 260.314) rotate(180)"/><rect class="b" width="54.37" height="21.642" rx="8.84" transform="translate(494.775 217.029)"/></g></g></svg>