<svg xmlns="http://www.w3.org/2000/svg" xmlns:xlink="http://www.w3.org/1999/xlink" viewBox="0 0 131.347 99.073"><defs><style>.a,.e{fill:#6c63ff;}.a,.c,.g{opacity:0.1;}.b{fill:#fff;}.ae,.d{opacity:0.2;}.f{fill:#ffd2c6;}.h{fill:#626696;}.i{fill:#ffcde5;}.j{fill:#985c7e;}.k{fill:url(#a);}.l{fill:#cc818c;}.m{fill:#444053;}.aa,.n{opacity:0.05;}.o{fill:#ff748f;}.p,.r{fill:#575988;}.q{fill:#dce6f2;}.r{opacity:0.5;}.s{fill:#67647e;}.t{fill:#585268;}.u{fill:#e4aab4;}.v{fill:#ffd037;}.w{fill:#65617d;}.x{fill:#9d9cb5;}.y{fill:url(#b);}.z{fill:#2d293d;}.ab{fill:#ffcdd3;}.ac{fill:#656691;}.ad{fill:#a8a8a8;}</style><linearGradient id="a" x1="0.877" y1="1" x2="0.877" gradientUnits="objectBoundingBox"><stop offset="0" stop-color="gray" stop-opacity="0.251"/><stop offset="0.54" stop-color="gray" stop-opacity="0.122"/><stop offset="1" stop-color="gray" stop-opacity="0.102"/></linearGradient><linearGradient id="b" x1="0.5" y1="1" x2="0.5" y2="0" xlink:href="#a"/></defs><g transform="translate(-0.016 -0.004)"><path class="a" d="M141.967,57.063c-5.636,4.784-12.946,4.475-19.352,1.985s-12.291-6.92-18.532-10.07A52.031,52.031,0,0,0,87.8,43.831c-7.955-1.1-16.838.244-22.381,7.974-6.172,8.613-5.7,24.148.975,32.049,3.4,4.021,7.843,6,11.72,9.139s7.469,8.355,7.138,14.416c-.306,5.606-3.86,9.916-7.539,12.617-2.843,2.087-6.344,4.367-6.686,8.692-.331,4.183,2.613,7.463,5.424,9.327a26.142,26.142,0,0,0,29.612-.154c3.259-2.2,6.251-5.136,9.67-6.852,8.975-4.509,18.865.029,28.369,1.69a47.206,47.206,0,0,0,24.128-2.13c4.706-1.685,9.431-4.265,12.737-9.061,2.385-3.461,3.87-7.842,5.264-12.168q2.23-6.918,4.288-13.936a41.314,41.314,0,0,0,1.846-8.675c.385-5.445-1.238-10.827-3.449-15.421-5.248-10.91-14.088-18.581-23.661-20.53S145.555,52.667,138.13,61" transform="translate(-61.06 -43.49)"/><ellipse class="a" cx="27.66" cy="1.262" rx="27.66" ry="1.262" transform="translate(32.011 63.635)"/><path class="b" d="M362.3,171.832a25.076,25.076,0,1,1,25.072-25.076A25.1,25.1,0,0,1,362.3,171.832Zm0-49.909a24.832,24.832,0,1,0,24.832,24.832A24.86,24.86,0,0,0,362.3,121.924Z" transform="translate(-303.554 -112.148)"/><path class="b" d="M402.84,206.757a19.449,19.449,0,1,1,19.449-19.449A19.472,19.472,0,0,1,402.84,206.757Zm0-38.654a19.2,19.2,0,1,0,19.2,19.2A19.227,19.227,0,0,0,402.84,168.1Z" transform="translate(-344.098 -152.701)"/><path class="b" d="M446.4,244.269a13.4,13.4,0,1,1,13.4-13.4A13.4,13.4,0,0,1,446.4,244.269Zm0-26.565a13.161,13.161,0,1,0,13.161,13.161A13.161,13.161,0,0,0,446.4,217.7Z" transform="translate(-387.662 -196.256)"/><ellipse class="a" cx="1.739" cy="0.575" rx="1.739" ry="0.575" transform="translate(117.695 48.557)"/><ellipse class="a" cx="10.241" cy="1.68" rx="10.241" ry="1.68" transform="translate(11.531 77.753)"/><g class="c" transform="translate(6.848 32.872)"><path d="M150.016,313.21H118.773a1.638,1.638,0,0,0-1.633,1.633v19.741a1.638,1.638,0,0,0,1.633,1.633h24.509s.635,3.371-1.451,3.734c0,0,4.672.335,3.856-3.734h4.33a1.638,1.638,0,0,0,1.633-1.633V314.843A1.638,1.638,0,0,0,150.016,313.21Z" transform="translate(-117.14 -313.21)"/><g class="d" transform="translate(4.599 5.24)"><rect width="25.31" height="1.543" rx="0.771"/><rect width="25.31" height="1.543" rx="0.771" transform="translate(0 6.895)"/><rect width="21.225" height="1.543" rx="0.771" transform="translate(0 10.341)"/><rect width="10.975" height="1.543" rx="0.771" transform="translate(0 3.447)"/></g></g><path class="b" d="M152.248,312.09H121a1.638,1.638,0,0,0-1.633,1.633v19.741A1.638,1.638,0,0,0,121,335.1h24.509s.636,3.371-1.451,3.733c0,0,4.672.335,3.856-3.733h4.331a1.637,1.637,0,0,0,1.632-1.633V313.723A1.637,1.637,0,0,0,152.248,312.09Z" transform="translate(-112.251 -279.355)"/><g class="d" transform="translate(11.719 37.975)"><rect class="e" width="25.31" height="1.543" rx="0.771"/><rect class="e" width="25.31" height="1.543" rx="0.771" transform="translate(0 6.895)"/><rect class="e" width="21.225" height="1.543" rx="0.771" transform="translate(0 10.342)"/><rect class="e" width="10.975" height="1.543" rx="0.771" transform="translate(0 3.447)"/></g><path class="f" d="M248.864,294.951l-1.732,3.683a3.154,3.154,0,0,1-.42.819,19.053,19.053,0,0,0-.892,2.315l-1.856,2.869h0l-.122.195-.731-.2-.511-1.91.032-.554V302.1a11.438,11.438,0,0,1,1.4-1.293s.2.023.584-.908a2.382,2.382,0,0,1,.731-1.133l.2-.675,2.152-3.425s1.8-2.587,2.295-1.439S248.864,294.951,248.864,294.951Z" transform="translate(-220.464 -262.529)"/><path class="f" d="M199.425,516.539a.414.414,0,0,1-.058.177c-.2.291-1.329,6.25-1.329,6.25a3.363,3.363,0,0,1-.329,1.568,22.563,22.563,0,0,0-.529,2.259,38.508,38.508,0,0,1-.327,4.72,4.924,4.924,0,0,0,.076,2,3.069,3.069,0,0,0,.579,1.632c.017.022.03.044.044.062.073.1.122.164.122.164a.949.949,0,0,0,.255.316c.016.013.033.026.051.039a2.9,2.9,0,0,0,1.021.431l.035.007c.146.033.244.045.244.045l.09.487-.965.2-1.84.122s-2.169.165-1.677-.8a1.527,1.527,0,0,0,.089-.2h0c.018-.046.035-.1.05-.144a5,5,0,0,0,.1-2.057l-.424-3.284a13.3,13.3,0,0,1,.546-6.469,1.577,1.577,0,0,1,.129-.965,6.489,6.489,0,0,0,0-2.2s-.122-1.95-.291-2.916a5.893,5.893,0,0,1-.066-1.227,6.129,6.129,0,0,1,.066-.719l4.155-.551A3.206,3.206,0,0,1,199.425,516.539Z" transform="translate(-178.215 -457.96)"/><path class="g" d="M201.678,677.816l-.965.2-1.84.122s-2.169.165-1.677-.8a1.528,1.528,0,0,0,.089-.2h0c.018-.046.035-.1.05-.144a3.338,3.338,0,0,1,1.1.222,1,1,0,0,0,1.083-.384l.3-.573.044-.083c.073.1.122.164.122.164a.974.974,0,0,0,.306.353l-.051.107-.291.609s.373.038.883.122a.4.4,0,0,0,.48-.263l.035.007c.146.033.244.045.244.045Z" transform="translate(-180.529 -599.069)"/><path class="h" d="M201.437,679.351c-.073.328-2.1.429-2.1.429s-1.131-.11-1.448.155-1.25.2-1.287.2-.528-.019-.72-.9c-.186-.86.251-1.01.273-1.018h0a3.306,3.306,0,0,1,1.149.223,1,1,0,0,0,1.083-.383l.344-.657c.073.1.122.165.122.165a.962.962,0,0,0,.306.355l-.342.72s.373.038.883.122a.422.422,0,0,0,.515-.4.416.416,0,0,0,0-.055s.318.091.709.2A.731.731,0,0,1,201.437,679.351Z" transform="translate(-179.395 -600.149)"/><path class="f" d="M240.471,517.5c-.049.291-.1,1.046-.1,1.046a5.983,5.983,0,0,1-.267,2.131l-.218.853a17.287,17.287,0,0,1-.6,3.767s-.468,2.479-.712,3.549a2.95,2.95,0,0,0,.122,1.786c.012.029.02.044.02.044a.2.2,0,0,0,.015.06c.006.019.016.058.026.087a1.316,1.316,0,0,0,.244.407,1.228,1.228,0,0,0,.13.134l.007.007a2.636,2.636,0,0,0,.775.476h0l.122.049a3.669,3.669,0,0,0,.386.122h0l.044.01-.1.573-1.287-.329-1.724-.559-.853-.487s.01-.046.027-.135v-.015c.007-.038.015-.083.026-.134a17.45,17.45,0,0,0,.31-4.4,15.29,15.29,0,0,1,.788-5.2,3.152,3.152,0,0,0,.146-1.117,7.6,7.6,0,0,1-.39-2.308s-.582-1.192-1.065-2.455a6.459,6.459,0,0,1-.347-1.277,4.466,4.466,0,0,1-.071-.933s3.914-3.572,4.343-.113c.015.122.028.229.041.339C240.686,516.631,240.518,517.214,240.471,517.5Z" transform="translate(-214.602 -454.573)"/><path class="g" d="M244.683,669.312l-.1.573-1.287-.329L241.573,669l-.853-.487s.01-.046.027-.135v-.015c.007-.038.015-.083.026-.134l.122-.012h.01a1.624,1.624,0,0,1,.723.1c.28.106.648.227.724.176a.92.92,0,0,1,.413-.073l.179-.392.026-.06a1.3,1.3,0,0,0,.244.407,1.364,1.364,0,0,0,.138.141l-.007.139-.01.2a2.507,2.507,0,0,0,.619.286.359.359,0,0,0,.173,0h0l.122.049a3.656,3.656,0,0,0,.386.122h0A.389.389,0,0,0,244.683,669.312Z" transform="translate(-218.813 -591.859)"/><path class="h" d="M243.146,671.587c-.359-.1-1.226-.268-1.366-.14a4.675,4.675,0,0,1-1.34,0,.731.731,0,0,1-.62-.366,3.811,3.811,0,0,1-.048-1.646l.089-.009.149-.015h.01a1.6,1.6,0,0,1,.723.1,1.73,1.73,0,0,0,.724.175.905.905,0,0,1,.413-.073l.2-.452a1.316,1.316,0,0,0,.244.407,1.381,1.381,0,0,0,.138.141l-.017.335a2.524,2.524,0,0,0,.619.285.244.244,0,0,0,.3-.094.185.185,0,0,0,.022-.05h0a2.093,2.093,0,0,0,.508.169h0a.93.93,0,0,1,.992.714C245.069,671.626,243.5,671.69,243.146,671.587Z" transform="translate(-217.915 -592.913)"/><path class="g" d="M203.246,516.513c-.08.023-.154.045-.222.067a3.076,3.076,0,0,1-.537.113,22.4,22.4,0,0,1-3.647.027,6.129,6.129,0,0,1,.066-.719l4.155-.551A3.256,3.256,0,0,1,203.246,516.513Z" transform="translate(-182.037 -457.934)"/><path class="h" d="M204.23,474.67s-1.526.236-2.766.508c-.414.09-.8.184-1.08.277a3.316,3.316,0,0,1-.537.113,24.16,24.16,0,0,1-3.836.015c-.674-2.186.819-4.939.819-4.939a2.771,2.771,0,0,1,.311-.892l.006-.022.212-.78h5.668l.069.335.144.682.89,4.225Z" transform="translate(-179.399 -417.1)"/><path class="g" d="M240.311,513.46l-.034.015-.663.294a13.557,13.557,0,0,1-3.617.4,4.466,4.466,0,0,1-.071-.933s3.914-3.572,4.343-.113C240.284,513.245,240.3,513.351,240.311,513.46Z" transform="translate(-214.602 -454.565)"/><path class="h" d="M214.975,475.676l-.139.061-.663.295a13.8,13.8,0,0,1-3.656.4h-.186a.854.854,0,0,1-.656-.4c0-.044-.034-.26-.063-.445-.024-.149-.046-.277-.046-.277a17.022,17.022,0,0,1-2.2-1.142c-.557-.379-.417-3.072-.308-4.426.038-.467.071-.774.071-.774l5.737.335.8.046.461.1.122.026a19.628,19.628,0,0,0,.487,2.605c.158.2.056.875.037,1.259a2.337,2.337,0,0,1-.054.487,3.014,3.014,0,0,1,.18,1.053A2.1,2.1,0,0,0,214.975,475.676Z" transform="translate(-189.161 -417.118)"/><circle class="f" cx="2.351" cy="2.351" r="2.351" transform="translate(17.323 33.881)"/><path class="f" d="M199.081,348.77s.163,2.226-.291,2.737a20.344,20.344,0,0,1-1.64,1.476l.366,1.512,2.059.238,2.406-2.57-.547-.674a3.931,3.931,0,0,1-.073-2.133C201.706,348.646,199.081,348.77,199.081,348.77Z" transform="translate(-180.553 -311.558)"/><path class="g" d="M243.964,369.646h0l-.122.195-.731-.2-.511-1.91.032-.554.15-.216s.8.02.766.748A6.392,6.392,0,0,0,243.964,369.646Z" transform="translate(-220.464 -327.539)"/><path class="g" d="M213.927,469.752s-.58.129-1.244.216a3.609,3.609,0,0,1-1.745-.052c-.528-.312-3.386-.223-4.207-.191a.936.936,0,0,0-.141.006l.212-.78h5.668l.069.335.8.046.461.1C213.881,469.623,213.927,469.752,213.927,469.752Z" transform="translate(-188.842 -417.1)"/><path class="i" d="M190.435,368.15s.8.018.765.747a6.724,6.724,0,0,0,.437,1.986l-.183.419s-.255,1.02-.055,1.276.93.255.511,2.351a7.514,7.514,0,0,0,.128,2.078,16.661,16.661,0,0,0,.546,2.241,12.314,12.314,0,0,1,.766,1.7s-2.37.528-2.989.163-4.428-.179-4.428-.179.018-.639,0-.71a.609.609,0,0,1,.091-.466c.122-.173.328-.464.218-.719s.274-.631.073-1.026-.445-.474-.4-.69a.935.935,0,0,0-.223-.69c-.145-.182-1.131-2.108-1.131-2.108l-.163-.9s-1.269-.93-1.245-1.367a2.558,2.558,0,0,1,.48-1.043l1.219-1.2s.674.731,1.329.474a12.112,12.112,0,0,0,2.07-1.476s.5-.273.541-.473.346-.018.346-.018.456-.25.547-.162a1.582,1.582,0,0,0,.487.162Z" transform="translate(-168.265 -328.584)"/><path class="f" d="M144.142,399.3l-.389.3a5.19,5.19,0,0,0-.487,1.986,27.217,27.217,0,0,1-.487,3.078l-.765,1.368a34.574,34.574,0,0,0-1.425,3.341,8.718,8.718,0,0,1-.911,1.886s-2.533,2.276-.765,2.681,1.822-1.812,1.822-1.812a2.394,2.394,0,0,0,.48-.765c.067-.31,2.308-4.274,2.308-4.274s.785-1.066.62-1.63a17.016,17.016,0,0,0,1.02-3,10.662,10.662,0,0,0-.163-1.493l.163-1.258Z" transform="translate(-128.861 -355.938)"/><path class="g" d="M213.743,440.53a18.066,18.066,0,0,1-2.133.983c-.346.049,1.512-.2,1.512-.2Z" transform="translate(-193.213 -392.143)"/><path class="g" d="M216.792,446.51a11.343,11.343,0,0,1-3.412.656S215.972,447.658,216.792,446.51Z" transform="translate(-194.805 -397.395)"/><path class="g" d="M218.15,448.66s-2.133,1.34-3.39,1.122c0,0,2.934.584,3.39.274l-1.312-.366S218.3,448.921,218.15,448.66Z" transform="translate(-196.017 -399.283)"/><path class="g" d="M174.776,306.451a2.22,2.22,0,0,0-1.794.339c-.366.288-.609.731-1.02.941a6,6,0,0,1-.667.235,1.923,1.923,0,0,0-1.174,2.072c.065.366.234.695.317,1.05a4.1,4.1,0,0,1-.144,1.935,20.362,20.362,0,0,1-2.029,5.024.526.526,0,0,0-.1.338.487.487,0,0,0,.122.216,4.752,4.752,0,0,0,3.5,1.351,2.651,2.651,0,0,0,1.387-.23,2.1,2.1,0,0,0,.676-.62,3.29,3.29,0,0,0,.631-2.122,5.818,5.818,0,0,1-.087-1.821.488.488,0,0,1,.11-.223c.139-.141.366-.1.565-.128a1.248,1.248,0,0,0,.944-1.16,13.238,13.238,0,0,0-.073-1.611,3.374,3.374,0,0,1,.635-1.984,2.139,2.139,0,0,0,.465-.793,1.33,1.33,0,0,0-.34-.975,4.776,4.776,0,0,0-.9-1.385A2.427,2.427,0,0,0,174.776,306.451Z" transform="translate(-155.099 -274.356)"/><path class="j" d="M173.618,305.252a2.217,2.217,0,0,0-1.794.34c-.366.286-.609.731-1.02.941a5.9,5.9,0,0,1-.665.234,1.924,1.924,0,0,0-1.175,2.072c.065.366.234.695.318,1.052a4.115,4.115,0,0,1-.144,1.934,20.375,20.375,0,0,1-2.025,5.024.516.516,0,0,0-.1.336.469.469,0,0,0,.122.216,4.754,4.754,0,0,0,3.5,1.351,2.65,2.65,0,0,0,1.387-.229,2.1,2.1,0,0,0,.676-.621,3.29,3.29,0,0,0,.628-2.117,5.788,5.788,0,0,1-.085-1.822.487.487,0,0,1,.108-.223c.139-.141.366-.1.567-.122a1.247,1.247,0,0,0,.943-1.161,12.99,12.99,0,0,0-.073-1.611,3.374,3.374,0,0,1,.634-1.99,2.131,2.131,0,0,0,.464-.794,1.331,1.331,0,0,0-.339-.975,4.733,4.733,0,0,0-.9-1.384A2.415,2.415,0,0,0,173.618,305.252Z" transform="translate(-154.088 -273.303)"/><path class="g" d="M214.76,492.62s.468,2.186,1.245,2.782Z" transform="translate(-196.017 -437.886)"/><g class="c" transform="translate(12.922 34.114)"><path d="M183.582,337.235c-.024-.085-.052-.171-.082-.255C183.524,337.065,183.552,337.151,183.582,337.235Z" transform="translate(-181.488 -335.326)"/><path d="M175.731,323.41a.791.791,0,0,1-.01.206,2.16,2.16,0,0,1-.465.795,3.365,3.365,0,0,0-.635,1.983,13.739,13.739,0,0,1,.072,1.611,1.249,1.249,0,0,1-.943,1.161c-.2.023-.428-.015-.565.122a.487.487,0,0,0-.11.223,5.936,5.936,0,0,0,.085,1.822,3.29,3.29,0,0,1-.626,2.117,2.113,2.113,0,0,1-.676.621,2.725,2.725,0,0,1-1.388.229,4.792,4.792,0,0,1-3.456-1.305.334.334,0,0,0-.021.175.469.469,0,0,0,.122.216,4.754,4.754,0,0,0,3.5,1.351,2.65,2.65,0,0,0,1.387-.229,2.113,2.113,0,0,0,.676-.621,3.29,3.29,0,0,0,.628-2.117,5.789,5.789,0,0,1-.085-1.822.488.488,0,0,1,.108-.223c.139-.141.366-.1.567-.122a1.247,1.247,0,0,0,.943-1.161,12.99,12.99,0,0,0-.073-1.611,3.374,3.374,0,0,1,.634-1.983,2.132,2.132,0,0,0,.464-.795A.9.9,0,0,0,175.731,323.41Z" transform="translate(-166.989 -323.41)"/></g><path class="e" d="M552.536,807.426s-4.637-.28-4.09,2.969a.793.793,0,0,0,.412.835s.009-.244.475-.158a2.131,2.131,0,0,0,.5.024,1.051,1.051,0,0,0,.617-.255h0a3.68,3.68,0,0,0,1.81-2.669s.375-.464.366-.584l-.782.334a1.4,1.4,0,0,1,.056,1.033s-.024-1.013-.175-.988c-.031,0-.406.195-.406.195a2.313,2.313,0,0,1,.112,1.7s.132-1.211-.256-1.626l-.551.32a2.435,2.435,0,0,1,.173,1.845,3.456,3.456,0,0,0-.289-1.766l-.5.389a2.375,2.375,0,0,1,.2,1.688s-.04-1.479-.306-1.584a3,3,0,0,0-.5.542s.345.731.13,1.11c0,0-.132-.986-.244-.99a3.28,3.28,0,0,0-.48,1.1,2.375,2.375,0,0,1,.374-1.164,1.3,1.3,0,0,0-.665.345s.067-.462.773-.5a3.332,3.332,0,0,1,.456-.525,2.858,2.858,0,0,0-1.127.13,1.273,1.273,0,0,1,1.256-.244l.487-.4a4.2,4.2,0,0,0-1.316.013,1.6,1.6,0,0,1,1.449-.1l.536-.322a4.869,4.869,0,0,0-1.256-.108,1.925,1.925,0,0,1,1.414.023l.384-.173s-.578-.113-.746-.13-.178-.065-.178-.065a1.993,1.993,0,0,1,1.083.122A4.936,4.936,0,0,0,552.536,807.426Z" transform="translate(-489.001 -714.325)"/><ellipse class="a" cx="3.282" cy="0.554" rx="3.282" ry="0.554" transform="translate(57.059 96.634)"/><path class="e" d="M850.653,774.827s-4.631-.279-4.09,2.97a.793.793,0,0,0,.412.835s.009-.244.475-.16a2.145,2.145,0,0,0,.5.024,1.041,1.041,0,0,0,.615-.255h0a3.672,3.672,0,0,0,1.81-2.667s.375-.466.366-.585l-.787.341a1.406,1.406,0,0,1,.057,1.033s-.026-1.014-.175-.989c-.031,0-.407.2-.407.2a2.32,2.32,0,0,1,.113,1.7s.132-1.211-.257-1.627l-.551.322a2.431,2.431,0,0,1,.173,1.844,3.455,3.455,0,0,0-.289-1.766l-.5.386a2.38,2.38,0,0,1,.2,1.689s-.04-1.481-.3-1.591a3.057,3.057,0,0,0-.5.544s.346.731.132,1.109c0,0-.132-.985-.244-.99a3.281,3.281,0,0,0-.48,1.1,2.371,2.371,0,0,1,.375-1.164,1.31,1.31,0,0,0-.667.345s.068-.461.774-.5a3.332,3.332,0,0,1,.456-.525,2.864,2.864,0,0,0-1.128.13,1.266,1.266,0,0,1,1.256-.238l.487-.4a4.2,4.2,0,0,0-1.316.013,1.6,1.6,0,0,1,1.449-.1l.536-.32a4.826,4.826,0,0,0-1.258-.108,1.93,1.93,0,0,1,1.415.022l.384-.172s-.578-.113-.747-.132-.178-.065-.178-.065a2,2,0,0,1,1.085.122A4.951,4.951,0,0,0,850.653,774.827Z" transform="translate(-750.79 -685.698)"/><ellipse class="a" cx="3.282" cy="0.554" rx="3.282" ry="0.554" transform="translate(93.387 92.662)"/><ellipse class="a" cx="9.45" cy="1.55" rx="9.45" ry="1.55" transform="translate(93.911 51.685)"/><path class="k" d="M821.34,105.157a5.074,5.074,0,0,0,0-2.591v-1.219a4.268,4.268,0,0,0-1.523-3.923l-1.3-1.149a4.929,4.929,0,0,0-.942-.667.96.96,0,0,0-.122-.018l-.039-.022a3.925,3.925,0,0,1-.285-.6.557.557,0,0,0,.464-.158.609.609,0,0,0,.11-.183h0c.076-.169.088-.374.152-.554a1.293,1.293,0,0,1,.244-.4c-.013.022-.027.043-.039.065.184-.229.425-.427.6-.669a1.463,1.463,0,0,0,.1-.149l-.026.03a3.348,3.348,0,0,0,.383-1.3,1.174,1.174,0,0,0,.007-.466,1.547,1.547,0,0,0-.13-.295c-.283-.585-.277-1.319-.731-1.785a2.186,2.186,0,0,0-1.34-.517,3.458,3.458,0,0,1-1.412-.349,1.531,1.531,0,0,0-.383-.211.316.316,0,0,0-.376.14.243.243,0,0,1-.05.1.162.162,0,0,1-.145.009L813.9,88.1l.007.033h-.016l.023.1a.057.057,0,0,1,.061.035l-.1.16a1.6,1.6,0,0,1-.584-.122.274.274,0,0,0,0,.032h-.009c-.012.183.2.3.258.473a.358.358,0,0,1,0,.232.526.526,0,0,1-.122.185c-.23.227-.523.182-.787.325a.168.168,0,0,0-.1.106.082.082,0,0,0-.009.058.137.137,0,0,0,.054.067,1.219,1.219,0,0,0,.251.156l-.076.073a2.893,2.893,0,0,0,1,4.717c.01.05.017.1.024.156v.015l.007.069-.871.366a.693.693,0,0,1-.624-.4c-.2-.419-.918,0-.918,0a8.6,8.6,0,0,0-2.993.238s-1.3-.547-1.487-.584-.459-.183-.589-.146-.294-.244-.385-.219-.122-.182-.422-.255-.4.018-.731-.311a28.715,28.715,0,0,0-3.011-1.623l-1.211-.986-1.286-1.021-.023.043c-.007-.03-.016-.062-.024-.1a12.193,12.193,0,0,0-.477-1.5c-.083-.2-.122-.447-.23-.316-.068.079-.185-.094-.366-.211a.3.3,0,0,0-.453.132h0c-1,1.568-1.359,1.682-.779,2.256.516.512.859.964,1.281,1.1l.05.016a.07.07,0,0,1-.028,0l2.437,2.919a14.617,14.617,0,0,0,2.975,2.025c1.213.492,1.12.639,1.12.639a27.683,27.683,0,0,0,4.241,1.828c.569-.033.459,3.813.221,4.433s-.624,5.108-.624,5.108a2.149,2.149,0,0,0,.018,1.6,10.124,10.124,0,0,1,.009,1.559,5.348,5.348,0,0,0-.89,2.291,1.306,1.306,0,0,1-.015.139.316.316,0,0,1-.087.071s.032-.007.082-.024a4.633,4.633,0,0,1-.244,1.1,4.468,4.468,0,0,0-.3,1.584v2.9l-.243,1.8s-.294,1.361,0,1.678a.771.771,0,0,1,.161.559,1.036,1.036,0,0,0,.188.652.5.5,0,0,1,.122.419c-.1.316.144,3.672.144,3.672a3.735,3.735,0,0,1-.168.975c-.1.05.163,1.063.163,1.063s-.992.827-.74,1.266l.253.389-.067.066-.041.041a.386.386,0,0,0-.252-.048,9.454,9.454,0,0,1-1,.888,10.813,10.813,0,0,1-1.664.791l-.96.078h-.018s-.459-.043-.2.669,2.559.487,2.559.487l1.34-.212a25.8,25.8,0,0,0,3.084-.14c.288-.065.356-.217.338-.373h0l-.007-.007a.957.957,0,0,0-.2-.4.191.191,0,0,0-.017-.021l.044-.487c1.018-.586-.288-1.74-.288-1.74a11.628,11.628,0,0,1,.676-1.288,38.1,38.1,0,0,0,.229-4.962s.122-1.679-.2-2.072a.7.7,0,0,1,.342-.632,22.747,22.747,0,0,0,1.449-4.055l.339,2.085a2.956,2.956,0,0,0,.148,1.289.5.5,0,0,1,.09.388,1.724,1.724,0,0,0,.05.844.546.546,0,0,0,.177.3c.2.1.208.445.281.518s.526-.1.551.163a5.967,5.967,0,0,1,0,.706l.147,4.33a2.832,2.832,0,0,0-.294,1.314,1.7,1.7,0,0,1-.177.775.4.4,0,0,0,.036.466l.043.049-.182.14a.4.4,0,0,0-.112.487.391.391,0,0,0-.113.42.485.485,0,0,0,.032.068.686.686,0,0,0-.366.18,3,3,0,0,1-.646.651,12.182,12.182,0,0,0-1.031.882,1.479,1.479,0,0,1-.6.487.975.975,0,0,1-.182.054c-.487.1-.33.6.061.682a6.515,6.515,0,0,0,2.7.244.943.943,0,0,0,.74-.1,10.186,10.186,0,0,1,1.442-.487s.551,0,.624-.219a.84.84,0,0,0,.032-.213l.016-.015-.015-.013a2.872,2.872,0,0,0-.038-.487c-.013-.083-.029-.158-.044-.218-.048-.183-.134-.418-.172-.518a.186.186,0,0,0,.017-.026c.21-.355-.139-1.219-.139-1.219a2.329,2.329,0,0,1,.416-.487,31.912,31.912,0,0,0,.71-3.94,3.416,3.416,0,0,1,.244-1.411c.268-.436-.366-3.089-.366-3.089s-.269-.609-.171-.827a2.9,2.9,0,0,0-.1-1.021v-.958a1.051,1.051,0,0,0-.056-.336,1.6,1.6,0,0,1-.066-.975c.172-.437.563-3.138.563-3.138a3.616,3.616,0,0,1,.141-2.139,2.041,2.041,0,0,1,.122-.221,3.279,3.279,0,0,0,.069-2.193c-.026-.116-.052-.227-.079-.333-.012-.045-.024-.088-.035-.13l.052-.022a1.639,1.639,0,0,1,.016-.193,1.34,1.34,0,0,0,.883-.609,9.855,9.855,0,0,1,2.112-1.788,1.831,1.831,0,0,0,1.065-1.3c-.147-.256.262-1.3.262-1.3ZM817.441,95.605Zm.674,11.229-1.06,1.23a.024.024,0,0,1,0-.007c-.275-.383.257-1.241.257-1.241l.876-1.963a1.187,1.187,0,0,1-.115.58c-.244.329.44.876.44.876-.367,0-.4.525-.4.525Z" transform="translate(-706.977 -82.487)"/><path class="l" d="M801.419,93.627l-.578,1.122a2.236,2.236,0,0,1-.539-.112,2.043,2.043,0,0,1-1.265-1.1,1.591,1.591,0,0,1,.737-2.1c.4-.217.768-.467,1.066.244a12.355,12.355,0,0,1,.47,1.489C801.378,93.445,801.419,93.627,801.419,93.627Z" transform="translate(-708.954 -85.397)"/><path class="l" d="M937.772,133.053l-.924,1.378s-4.37,2.084-3.534-.366a5.521,5.521,0,0,0,.345-2.414v-.015a1.905,1.905,0,0,0-.342-.975s4.259-2.179,3.625-.689a2.07,2.07,0,0,0-.151.981,3.341,3.341,0,0,0,.459,1.361A4.506,4.506,0,0,0,937.772,133.053Z" transform="translate(-826.915 -118.973)"/><path class="m" d="M889.61,289.944s.629,2.635.366,3.07a3.461,3.461,0,0,0-.244,1.4,31.958,31.958,0,0,1-.7,3.917,2.314,2.314,0,0,0-.411.487s.345.853.138,1.206a.286.286,0,0,1-.138.122c-.324.137-1.521-.469-2.2-.841a.375.375,0,0,1-.18-.216.384.384,0,0,1,.111-.417.4.4,0,0,1,.111-.487l.179-.139L886.6,298a.4.4,0,0,1-.037-.463,1.708,1.708,0,0,0,.174-.769,2.81,2.81,0,0,1,.29-1.305l-.145-4.3a6.155,6.155,0,0,0,0-.7c-.024-.266-.472-.09-.543-.163s-.085-.417-.278-.514a.541.541,0,0,1-.176-.3,1.733,1.733,0,0,1-.05-.84.5.5,0,0,0-.089-.385,2.946,2.946,0,0,1-.145-1.281l-.334-2.072a22.808,22.808,0,0,1-1.431,4.03.7.7,0,0,0-.339.629c.314.386.194,2.055.194,2.055a38.259,38.259,0,0,1-.227,4.93,12.012,12.012,0,0,0-.668,1.281s1.3,1.153.277,1.734l-.011.006c-1.039.58-3.19-1.038-3.19-1.038l.224-.224.066-.066-.244-.388c-.25-.435.731-1.256.731-1.256s-.261-1.015-.164-1.064a3.71,3.71,0,0,0,.164-.968s-.238-3.335-.141-3.648a.487.487,0,0,0-.115-.417,1.041,1.041,0,0,1-.185-.647.77.77,0,0,0-.158-.556c-.29-.314,0-1.668,0-1.668l.244-1.789v-2.849a4.51,4.51,0,0,1,.293-1.6,4.83,4.83,0,0,0,.263-1.287,5.4,5.4,0,0,1,.9-2.315c.176-.268.306-.429.306-.429l7.734-.3s.122.345.244.824c.027.1.054.214.078.33a3.278,3.278,0,0,1-.068,2.183,1.714,1.714,0,0,0-.122.218,3.611,3.611,0,0,0-.14,2.125s-.386,2.681-.556,3.118a1.565,1.565,0,0,0,.066.963,1.074,1.074,0,0,1,.055.334v.952a2.925,2.925,0,0,1,.1,1.015C889.348,289.34,889.61,289.944,889.61,289.944Z" transform="translate(-780.077 -248.594)"/><path class="g" d="M956.872,289.272a1.991,1.991,0,0,0-.122.218l-.435-.024c.041-.224-.255-2.326-.255-2.326l.877-.05A3.268,3.268,0,0,1,956.872,289.272Z" transform="translate(-846.983 -257.401)"/><path class="m" d="M957.462,288.723a1.7,1.7,0,0,0-.122.218l-.436-.024c.043-.224-.254-2.327-.254-2.327l.876-.049A3.258,3.258,0,0,1,957.462,288.723Z" transform="translate(-847.501 -256.918)"/><path class="n" d="M957.462,288.723a1.7,1.7,0,0,0-.122.218l-.436-.024c.043-.224-.254-2.327-.254-2.327l.876-.049A3.258,3.258,0,0,1,957.462,288.723Z" transform="translate(-847.501 -256.918)"/><path class="g" d="M934.64,458.7a.286.286,0,0,1-.138.122c-.324.136-1.521-.469-2.2-.841a.376.376,0,0,1-.18-.216c.388-.071.642.366.642.366a.572.572,0,0,1,.8.194c.333.487,1.046.283,1.046.283S934.619,458.639,934.64,458.7Z" transform="translate(-825.96 -407.271)"/><path class="o" d="M912.792,460.691c-.073.217-.617.217-.617.217a11.578,11.578,0,0,0-1.409.5.963.963,0,0,1-.731.1,6.521,6.521,0,0,1-2.665-.244c-.386-.076-.539-.58-.061-.676a.957.957,0,0,0,.179-.055,1.455,1.455,0,0,0,.595-.487,12.326,12.326,0,0,1,1.018-.877,2.944,2.944,0,0,0,.638-.646c.568-.5.975.188.975.188a.572.572,0,0,1,.8.194c.333.487,1.046.283,1.046.283s.122.327.188.562c.015.06.031.135.044.218A1.906,1.906,0,0,1,912.792,460.691Z" transform="translate(-803.911 -407.781)"/><circle class="p" cx="0.067" cy="0.067" r="0.067" transform="translate(107.152 51.248)"/><circle class="p" cx="0.067" cy="0.067" r="0.067" transform="translate(106.584 51.779)"/><circle class="p" cx="0.067" cy="0.067" r="0.067" transform="translate(106.007 52.257)"/><circle class="p" cx="0.067" cy="0.067" r="0.067" transform="translate(106.305 52.044)"/><circle class="p" cx="0.067" cy="0.067" r="0.067" transform="translate(106.88 51.496)"/><path class="q" d="M912.792,472.416c-.073.217-.617.217-.617.217a11.572,11.572,0,0,0-1.409.5.963.963,0,0,1-.731.1,6.521,6.521,0,0,1-2.665-.244c-.386-.076-.539-.58-.061-.676a.955.955,0,0,0,.179-.055,4.631,4.631,0,0,0,1.308.244c.985.041,1.765,0,1.765,0l1-.32a1.667,1.667,0,0,1,.617-.224,1.584,1.584,0,0,0,.609-.266A1.905,1.905,0,0,1,912.792,472.416Z" transform="translate(-803.911 -419.506)"/><path class="r" d="M932.9,476.247a.826.826,0,0,1-.166-.017l.015-.071a1.047,1.047,0,0,0,.6-.083,2.874,2.874,0,0,0,.264-.122,3.054,3.054,0,0,1,.314-.138l.1-.034c.055-.018.11-.037.162-.06.03-.012.06-.027.089-.04a.993.993,0,0,1,.224-.085,1.047,1.047,0,0,1,.122-.016,1.033,1.033,0,0,0,.11-.013.954.954,0,0,0,.21-.078,1.018,1.018,0,0,1,.225-.083l.054-.01a.257.257,0,0,0,.156-.057l.052.05a.325.325,0,0,1-.2.079l-.05.008a.954.954,0,0,0-.21.078,1.02,1.02,0,0,1-.225.083.8.8,0,0,1-.122.015,1.072,1.072,0,0,0-.113.015.921.921,0,0,0-.207.08l-.091.041c-.056.023-.112.043-.168.061l-.1.034c-.1.039-.208.088-.31.134s-.177.084-.268.122a1.289,1.289,0,0,1-.469.106Z" transform="translate(-826.496 -422.712)"/><path class="g" d="M936,378.355a1.758,1.758,0,0,1,1.36-.719,4.655,4.655,0,0,0,1.226-.1,3.043,3.043,0,0,1-.93.366A15.713,15.713,0,0,0,936,378.355Z" transform="translate(-829.367 -336.829)"/><path class="g" d="M938.38,383a2.02,2.02,0,0,1,.713-.327c.26-.012.487-.037.487-.037a1.375,1.375,0,0,1-.4.194C938.96,382.895,938.38,383,938.38,383Z" transform="translate(-831.457 -341.308)"/><path class="g" d="M939.17,387.4s.684.055.69.236" transform="translate(-832.151 -345.488)"/><path class="g" d="M887,294.568a2.723,2.723,0,0,0,.687-.888.621.621,0,0,1,.266-.39s.394.157.043.639A1.952,1.952,0,0,1,887,294.568Z" transform="translate(-786.338 -262.846)"/><path class="g" d="M937.7,129.919c-.139.329-.262.353-.235.673a2.422,2.422,0,0,1-.553.435c-.433.257-.9.759-1.442.759a2.857,2.857,0,0,1-1.053-.2,1.906,1.906,0,0,0-.342-.975S938.327,128.429,937.7,129.919Z" transform="translate(-827.672 -118.926)"/><path class="l" d="M927.634,103.382a2.882,2.882,0,1,1-2.882-2.882,2.882,2.882,0,0,1,2.882,2.882Z" transform="translate(-816.959 -93.549)"/><path class="g" d="M937.772,148.9l-.924,1.378s-4.37,2.084-3.534-.366a5.521,5.521,0,0,0,.345-2.414h.007a2.287,2.287,0,0,1,.086.556c.013.375.023.853.957,1.009a2.607,2.607,0,0,0,2.538-.9A4.506,4.506,0,0,0,937.772,148.9Z" transform="translate(-826.915 -134.822)"/><path class="g" d="M811.336,107.654l-.578,1.122a2.237,2.237,0,0,1-.539-.112l-.05-.06c.236.09,1.033-1.415,1.033-1.415l.026.021C811.295,107.473,811.336,107.654,811.336,107.654Z" transform="translate(-718.871 -99.424)"/><path class="g" d="M903.262,277.911c-1.866.81-8.322.122-8.322.122a.812.812,0,0,0,.033-.211c.176-.268.306-.429.306-.429l7.734-.3S903.139,277.432,903.262,277.911Z" transform="translate(-793.311 -248.62)"/><path class="s" d="M826.214,112.7l-.86.366a.687.687,0,0,1-.617-.4c-.2-.417-.905,0-.905,0a8.434,8.434,0,0,0-2.955.236s-1.287-.545-1.462-.58-.453-.182-.58-.145-.29-.236-.38-.218-.128-.182-.418-.253-.4.018-.725-.308a28.8,28.8,0,0,0-2.972-1.613l-1.2-.975-1.269-1.015s-.8,1.5-1.033,1.414l2.41,2.9a14.426,14.426,0,0,0,2.937,2.012c1.2.489,1.105.635,1.105.635a27.026,27.026,0,0,0,4.188,1.813c.562-.035.453,3.789.217,4.405s-.615,5.075-.615,5.075a2.127,2.127,0,0,0,.017,1.6,8.968,8.968,0,0,1,0,1.577s6.5.695,8.339-.122c0,0,.272-3.009,0-3.39s.255-1.232.255-1.232l1.152-2.6,2.825-2.848a4.262,4.262,0,0,0-1.5-3.9l-1.288-1.142a4.776,4.776,0,0,0-.93-.662c-.21-.039-.133,0-.133,0a2.607,2.607,0,0,1-2.559.933c-.933-.157-.943-.632-.957-1.009A2.287,2.287,0,0,0,826.214,112.7Z" transform="translate(-719.459 -99.951)"/><path class="g" d="M931.565,228.13s-3.988.163-4.785,1.415a3.959,3.959,0,0,1,1.957-.345C929.661,229.343,931.565,228.13,931.565,228.13Z" transform="translate(-821.271 -205.626)"/><path class="g" d="M929.9,257.475s1.885.122,2.285-.272.4-.634.4-.634Z" transform="translate(-824.01 -230.601)"/><path class="g" d="M964.725,196.6s-1.6,1.885.345,2.7Z" transform="translate(-854.05 -177.938)"/><path class="g" d="M891.67,166.7s.58,1.183.87,1.262Z" transform="translate(-790.439 -151.682)"/><path class="g" d="M875.61,162.53a21.709,21.709,0,0,0,1.722,1.432A12.041,12.041,0,0,0,875.61,162.53Z" transform="translate(-776.336 -148.02)"/><path class="g" d="M917.332,152.27s-1.4,2.084-.487,3.354A4.454,4.454,0,0,1,917.332,152.27Z" transform="translate(-812.276 -139.01)"/><path class="l" d="M919.357,273.48l-.427.4-.06.056-.494.467c-.036.027-.071.054-.106.078-2.011,1.442-2.414-.748-2.414-.748s-.888.58-1.015.108,2.072-1.142,2.392-1.105a.426.426,0,0,0,.088,0,1.378,1.378,0,0,0,.451-.16c.033-.017.066-.034.1-.052a3.626,3.626,0,0,0,.325-.2Z" transform="translate(-810.783 -244.431)"/><path class="g" d="M934.153,103.379a2.882,2.882,0,0,1-1.409,2.478,1.673,1.673,0,0,1-.1-.21c-.1-.244-.167-.5-.271-.74a2.309,2.309,0,0,0-.487-.706.309.309,0,0,0-.122-.089.35.35,0,0,0-.264.073,1.2,1.2,0,0,1-.4.177.428.428,0,0,1-.4-.122.6.6,0,0,1-.063-.5,6.243,6.243,0,0,0,.188-1.125,1.11,1.11,0,0,0-.475-.982,4.233,4.233,0,0,0-.981-.213,1.057,1.057,0,0,1-.147-.051,2.883,2.883,0,0,1,4.946,2.013Z" transform="translate(-823.404 -93.546)"/><path class="t" d="M926.885,92.821c-.052.028-.11.078-.094.136a.134.134,0,0,0,.052.067,1.248,1.248,0,0,0,.456.234,4.006,4.006,0,0,1,.982.213,1.108,1.108,0,0,1,.475.981,6.572,6.572,0,0,1-.189,1.125.609.609,0,0,0,.065.5.43.43,0,0,0,.4.122,1.189,1.189,0,0,0,.4-.175.347.347,0,0,1,.264-.073.322.322,0,0,1,.129.088,2.286,2.286,0,0,1,.487.707c.1.244.168.5.271.74a1.193,1.193,0,0,0,.487.6.609.609,0,0,0,.731-.077c.168-.185.163-.465.244-.7.144-.411.546-.669.8-1.024a3.147,3.147,0,0,0,.438-1.384,1.162,1.162,0,0,0,.007-.463,1.676,1.676,0,0,0-.128-.292c-.28-.58-.274-1.31-.721-1.774a2.156,2.156,0,0,0-1.326-.512,3.408,3.408,0,0,1-1.4-.347,1.536,1.536,0,0,0-.378-.21.311.311,0,0,0-.372.139.245.245,0,0,1-.05.1.158.158,0,0,1-.141.009l-.639-.172.073.322a1.594,1.594,0,0,1-.678-.122c-.012.182.193.3.256.469a.434.434,0,0,1-.122.442C927.435,92.724,927.145,92.679,926.885,92.821Z" transform="translate(-821.278 -85.46)"/><path class="g" d="M883.1,452.336l-.026.29-.011.006c-1.039.58-3.19-1.038-3.19-1.038l.224-.224a.39.39,0,0,1,.1.3l.44.024.525.568a9.876,9.876,0,0,0,1.807.072Z" transform="translate(-780.077 -401.663)"/><path class="o" d="M854.575,453.862a25.362,25.362,0,0,1-3.047.139l-1.323.211s-2.278.218-2.531-.487.2-.664.2-.664h.017l.948-.077a10.671,10.671,0,0,0,1.644-.786,9.484,9.484,0,0,0,.985-.882s.4-.077.389.381l.44.024.525.567a9.856,9.856,0,0,0,1.807.073h.133l-.061.7.017.022C854.8,453.192,855.179,453.727,854.575,453.862Z" transform="translate(-751.737 -401.61)"/><circle class="p" cx="0.067" cy="0.067" r="0.067" transform="translate(100.317 50.424)"/><circle class="p" cx="0.067" cy="0.067" r="0.067" transform="translate(98.613 51.164)"/><circle class="p" cx="0.067" cy="0.067" r="0.067" transform="translate(97.736 51.431)"/><circle class="p" cx="0.067" cy="0.067" r="0.067" transform="translate(99.061 51.022)"/><circle class="p" cx="0.067" cy="0.067" r="0.067" transform="translate(98.173 51.298)"/><circle class="p" cx="0.067" cy="0.067" r="0.067" transform="translate(99.513 50.813)"/><circle class="p" cx="0.067" cy="0.067" r="0.067" transform="translate(99.96 50.619)"/><path class="q" d="M854.575,466.469a25.368,25.368,0,0,1-3.047.139l-1.323.211s-2.278.218-2.531-.487.2-.664.2-.664h.017a1.218,1.218,0,0,0,1.009.412l1.638.067,1.7-.122s1.584-.049,1.849-.1a3.843,3.843,0,0,0,.634-.233C854.8,465.8,855.179,466.333,854.575,466.469Z" transform="translate(-751.737 -414.217)"/><path class="r" d="M868.068,469.384a1.068,1.068,0,0,1-.268-.033l.024-.066a1.314,1.314,0,0,0,.675-.03c.08-.021.16-.044.244-.068a2.764,2.764,0,0,1,1.176-.133h.052a11.134,11.134,0,0,0,2.175-.1.809.809,0,0,0,.465-.186l.052.051a.882.882,0,0,1-.506.207,11.305,11.305,0,0,1-2.193.1h-.051a3.561,3.561,0,0,0-.72.021,3.74,3.74,0,0,0-.432.108c-.08.024-.161.049-.244.069A1.81,1.81,0,0,1,868.068,469.384Z" transform="translate(-769.478 -416.942)"/><path class="g" d="M941.217,273.48l-.427.4-1.06-1.356a3.643,3.643,0,0,0,.325-.2Z" transform="translate(-832.643 -244.431)"/><path class="s" d="M945.492,190.5l.833,1.16v1.219a5.076,5.076,0,0,1,0,2.575l.043,1.124s-.4,1.033-.26,1.287a1.824,1.824,0,0,1-1.052,1.288,9.872,9.872,0,0,0-2.085,1.767,1.419,1.419,0,0,1-1.54.617l-1.07.453-1.232-1.577,1.667-.907s.58-.78.925-.743l1.414-1.646s.037-.525.4-.525c0,0-.67-.543-.435-.87s.036-1.777.036-1.777Z" transform="translate(-832.116 -172.582)"/><path class="g" d="M978.55,233.641s1.9-.035,2.139.453S979.13,233.369,978.55,233.641Z" transform="translate(-866.732 -210.43)"/><path class="g" d="M936.777,275.686a.5.5,0,0,1-.007.1.641.641,0,0,1-.6.545h-.034a.64.64,0,0,1-.64-.64.655.655,0,0,1,.035-.208,1.1,1.1,0,0,1-.311-.9,1.378,1.378,0,0,0,.451-.16,3,3,0,0,0,.316.645.61.61,0,0,1,.149-.018.64.64,0,0,1,.641.64Z" transform="translate(-828.682 -246.275)"/><path class="p" d="M936.25,273.26s-.429.1-.429.174-.1.786.374,1.076.424-.4.424-.4S936.214,273.483,936.25,273.26Z" transform="translate(-829.203 -245.257)"/><circle class="u" cx="0.641" cy="0.641" r="0.641" transform="translate(106.886 28.77)"/><circle class="q" cx="0.55" cy="0.55" r="0.55" transform="translate(106.978 28.861)"/><path class="g" d="M922.788,286.84a3.174,3.174,0,0,0,3.094.412v.543a2.518,2.518,0,0,1-2.212.314C922.618,287.627,922.788,286.84,922.788,286.84Z" transform="translate(-817.756 -257.182)"/><path class="g" d="M922.788,285.65a3.171,3.171,0,0,0,3.094.408v.543a2.519,2.519,0,0,1-2.212.314C922.618,286.434,922.788,285.65,922.788,285.65Z" transform="translate(-817.756 -256.137)"/><path class="m" d="M922.788,285.65a3.171,3.171,0,0,0,3.094.408v.543a2.519,2.519,0,0,1-2.212.314C922.618,286.434,922.788,285.65,922.788,285.65Z" transform="translate(-817.756 -256.137)"/><path class="n" d="M923.091,285.65a3.174,3.174,0,0,0,3.094.412v.543a2.535,2.535,0,0,1-2.212.314C922.925,286.441,923.091,285.65,923.091,285.65Z" transform="translate(-818.023 -256.137)"/><path class="g" d="M888,451.32s1.813.333,2.079.4-.073.2-.073.2A7.347,7.347,0,0,1,888,451.32Z" transform="translate(-787.216 -401.619)"/><path class="g" d="M887.61,436.819c.029,0,1.232-.339,1.492-.919" transform="translate(-786.874 -388.078)"/><path class="g" d="M902,386.505s.487.641.8.623S902.286,386.481,902,386.505Z" transform="translate(-799.51 -344.701)"/><path class="g" d="M904.22,395.24s.2.453.507.308" transform="translate(-801.46 -352.372)"/><path class="n" d="M913.59,313.534l1.286,3.39a7.812,7.812,0,0,0-.2-2.834A1.132,1.132,0,0,0,913.59,313.534Z" transform="translate(-809.688 -280.619)"/><g class="c" transform="translate(105.497 5.949)"><path d="M937.988,92.384l-.011-.049-.207-.055.023.1a1.486,1.486,0,0,0,.2,0Z" transform="translate(-936.419 -92.28)"/><path d="M933.043,94.683l.022-.02a.433.433,0,0,0,.122-.441.6.6,0,0,0-.1-.165,1.585,1.585,0,0,1-.3-.088c-.012.182.193.3.256.469A.366.366,0,0,1,933.043,94.683Z" transform="translate(-932.042 -93.764)"/><path d="M931.107,108.923a1.2,1.2,0,0,1-.487-.6c-.1-.244-.166-.5-.271-.74a2.272,2.272,0,0,0-.487-.706.308.308,0,0,0-.128-.089.346.346,0,0,0-.264.073,1.218,1.218,0,0,1-.4.177.435.435,0,0,1-.4-.122.605.605,0,0,1-.063-.5,6.275,6.275,0,0,0,.189-1.126,1.089,1.089,0,0,0-.477-.975,4.188,4.188,0,0,0-.975-.213,1.238,1.238,0,0,1-.456-.234l-.026-.023a.775.775,0,0,0-.079.038c-.052.028-.108.078-.094.135a.145.145,0,0,0,.054.068,1.255,1.255,0,0,0,.456.233,4.053,4.053,0,0,1,.981.214,1.1,1.1,0,0,1,.477.975,6.553,6.553,0,0,1-.189,1.125.607.607,0,0,0,.063.5.429.429,0,0,0,.4.122,1.218,1.218,0,0,0,.4-.175.352.352,0,0,1,.264-.074.32.32,0,0,1,.122.089,2.3,2.3,0,0,1,.487.706c.1.244.167.5.271.74a1.2,1.2,0,0,0,.487.609.617.617,0,0,0,.731-.077.575.575,0,0,0,.109-.182A.621.621,0,0,1,931.107,108.923Z" transform="translate(-926.681 -102.431)"/><path d="M971.54,132.134c.182-.229.419-.424.59-.665a1.7,1.7,0,0,0,.094-.149A6.047,6.047,0,0,0,971.54,132.134Z" transform="translate(-966.073 -126.563)"/></g><g class="c" transform="translate(69.871 8.096)"><path d="M664.659,109.9H635.827a1.511,1.511,0,0,0-1.507,1.506v18.217a1.511,1.511,0,0,0,1.507,1.506h22.617s.586,3.111-1.34,3.445c0,0,4.311.31,3.558-3.445h4a1.51,1.51,0,0,0,1.506-1.506V111.406A1.51,1.51,0,0,0,664.659,109.9Z" transform="translate(-634.32 -109.9)"/><g class="d" transform="translate(4.244 4.835)"><rect width="23.355" height="1.423" rx="0.712"/><rect width="19.272" height="1.423" rx="0.712" transform="translate(0 6.361)"/><rect width="13.874" height="1.423" rx="0.712" transform="translate(0 3.181)"/></g></g><path class="b" d="M667.749,107.83H638.917a1.512,1.512,0,0,0-1.507,1.507v18.217a1.511,1.511,0,0,0,1.507,1.506h22.617s.586,3.111-1.34,3.445c0,0,4.311.31,3.558-3.445h4a1.51,1.51,0,0,0,1.506-1.506V109.337A1.511,1.511,0,0,0,667.749,107.83Z" transform="translate(-567.163 -99.986)"/><g class="d" transform="translate(74.491 12.68)"><rect class="e" width="23.355" height="1.423" rx="0.712"/><rect class="e" width="19.272" height="1.423" rx="0.712" transform="translate(0 6.362)"/><rect class="e" width="13.874" height="1.423" rx="0.712" transform="translate(0 3.182)"/></g><path class="e" d="M133.573,596.48s.434.568-.2,1.426-1.159,1.584-.947,2.117c0,0,.958-1.593,1.738-1.615S134.431,597.438,133.573,596.48Z" transform="translate(-123.673 -529.089)"/><path class="g" d="M133.751,596.48a.716.716,0,0,1,.088.178c.762.894,1.166,1.728.435,1.75-.681.019-1.5,1.237-1.694,1.545a.223.223,0,0,0,.023.069s.958-1.593,1.738-1.615S134.609,597.438,133.751,596.48Z" transform="translate(-123.851 -529.089)"/><path class="v" d="M148.09,601.488c0,.2-.022.366-.05.366s-.05-.162-.05-.366.028-.106.056-.106S148.09,601.288,148.09,601.488Z" transform="translate(-137.383 -533.373)"/><path class="v" d="M148.616,603.4c-.175.1-.329.154-.342.129s.122-.122.294-.217.107-.026.122,0S148.791,603.3,148.616,603.4Z" transform="translate(-137.631 -535.045)"/><path class="e" d="M116.327,596.48s-.434.568.2,1.426,1.159,1.584.947,2.117c0,0-.958-1.593-1.738-1.615S115.469,597.438,116.327,596.48Z" transform="translate(-108.723 -529.089)"/><path class="g" d="M116.327,596.48a.715.715,0,0,0-.088.178c-.762.894-1.166,1.728-.435,1.75.681.019,1.5,1.237,1.694,1.545-.006.023-.015.046-.023.069,0,0-.958-1.593-1.738-1.615S115.469,597.438,116.327,596.48Z" transform="translate(-108.723 -529.089)"/><path class="v" d="M116.73,601.488c0,.2.022.366.05.366s.05-.162.05-.366-.028-.106-.056-.106S116.73,601.288,116.73,601.488Z" transform="translate(-109.932 -533.373)"/><path class="v" d="M113.669,603.4c.175.1.329.154.342.129s-.122-.122-.294-.217-.107-.026-.122,0S113.492,603.3,113.669,603.4Z" transform="translate(-107.149 -535.045)"/><ellipse class="a" cx="4.543" cy="0.697" rx="4.543" ry="0.697" transform="translate(4.209 73.886)"/><path class="w" d="M118.255,617.364l-.022.177-.03.251-.013.1-.03.25-.012.1-.03.251-.349,2.85c-.03.255-.446.453-.948.453h-1.811c-.5,0-.916-.2-.948-.453l-.349-2.849-.03-.251-.012-.1-.03-.25-.013-.1-.03-.251-.022-.177c-.017-.144.208-.266.487-.266h3.694C118.042,617.1,118.267,617.221,118.255,617.364Z" transform="translate(-107.16 -547.197)"/><path class="x" d="M57.332,577.23l-.03.251H52.73l-.03-.251Z" transform="translate(-46.264 -506.886)"/><path class="x" d="M57.6,580.15l-.03.25H53.082l-.032-.25Z" transform="translate(-46.572 -509.45)"/><path class="x" d="M57.869,583.06l-.03.251h-4.4l-.03-.251Z" transform="translate(-46.888 -512.005)"/><ellipse class="a" cx="10.241" cy="1.68" rx="10.241" ry="1.68" transform="translate(68.468 94.513)"/><g class="c" transform="translate(57.694 44.588)"><path d="M567.276,409.36H536.033a1.638,1.638,0,0,0-1.633,1.633v19.741a1.638,1.638,0,0,0,1.633,1.633h24.509s.635,3.371-1.451,3.733c0,0,4.671.335,3.854-3.733h4.331a1.638,1.638,0,0,0,1.633-1.633V410.993A1.638,1.638,0,0,0,567.276,409.36Z" transform="translate(-534.4 -409.36)"/><g class="d" transform="translate(4.599 8.687)"><rect width="25.31" height="1.543" rx="0.771" transform="translate(0 3.447)"/><rect width="10.975" height="1.543" rx="0.771"/></g></g><path class="b" d="M565.042,407.13h-31.25a1.638,1.638,0,0,0-1.633,1.633V428.5a1.638,1.638,0,0,0,1.633,1.633H558.3s.635,3.371-1.451,3.734c0,0,4.672.335,3.856-3.734h4.336a1.638,1.638,0,0,0,1.633-1.633V408.763A1.638,1.638,0,0,0,565.042,407.13Z" transform="translate(-474.739 -362.814)"/><g class="d" transform="translate(62.022 53.004)"><rect class="e" width="25.31" height="1.543" rx="0.771" transform="translate(0 3.447)"/><rect class="e" width="10.975" height="1.543" rx="0.771"/></g><path class="y" d="M568.9,435.887c-.147-.625-.244-1.175-.244-1.175a2.421,2.421,0,0,0-.272-1.193v-.171h0V432.09a4.229,4.229,0,0,1,.318-.659,4.927,4.927,0,0,0,0-1.846,8.144,8.144,0,0,1-.636-3.341c.2-1.3-1.727-5.76-1.727-5.76a5.666,5.666,0,0,1,.182-1.275.986.986,0,0,0,.024-.267.269.269,0,0,0,0-.033v.011a9.953,9.953,0,0,0-.706-2.459l.091-3.055a8.984,8.984,0,0,0-.273-4.221c-.244-.843-.4-1.52-.5-2.04-.011-.06-.022-.122-.032-.171,1.45-.221,2.559-.4,2.559-.4s-.838-3.518-1.406-4.127a8.077,8.077,0,0,1-1.021-2.559s-.3-2.485.182-3.21a4.817,4.817,0,0,0,.545-1.978s1.1-.792,1.227-1.143a6.05,6.05,0,0,0,.366-1.561c0-.418-.136-.792-.091-1.011s-.318-1.055-.136-1.451a1.068,1.068,0,0,0,.073-.381v-.011h0a5.38,5.38,0,0,0-.1-1.031,2.924,2.924,0,0,0-1.078-.576l-.024-.1-.061-.244c-.037-.024-.072-.045-.107-.065v-.09l-.011-.357.172-.8c.335-1.4-1.528-1.6-1.528-1.6a.975.975,0,0,0-.528-.462c-.375-.132-.062,2.1.113,2.242A8.094,8.094,0,0,1,565,387.2h0l.032.057a.675.675,0,0,0-.085.089l.071.487.011.074a2.029,2.029,0,0,0-.3.507,1.082,1.082,0,0,1,.273.792,2.408,2.408,0,0,0,.112.966c-.019-.023-.26-.283-.5-.219s-.909.264-.909.264-.5.088-.453.2-.341.593-.341.593l-1.34-1.272c-.012-.038-.027-.076-.039-.116a3.187,3.187,0,0,1-.122-.557,3.191,3.191,0,0,0,.429-.136.929.929,0,0,0,.366-.238,1.447,1.447,0,0,0,.216-.579,8.368,8.368,0,0,1,.5-1.111,3.608,3.608,0,0,0,.268-1.995,1.317,1.317,0,0,0-.206-.584c-.219-.3-.617-.424-.907-.665s-.475-.609-.812-.788a1.616,1.616,0,0,0-1.02-.088,5.494,5.494,0,0,0-1.9.692.979.979,0,0,1-.636.21.857.857,0,0,1-.459-.338.022.022,0,0,1,.006-.018l-.015-.017a2.36,2.36,0,0,0-.2,1,1.432,1.432,0,0,0,.006.161v.1h0a.243.243,0,0,1-.01.072.524.524,0,0,1-.122.182.952.952,0,0,0-.11.149.5.5,0,0,1,.018-.055.8.8,0,0,0-.139.424.419.419,0,0,0,.1.3,1.466,1.466,0,0,0,.219.177,2.559,2.559,0,0,0,1.219,2.661c.016.038.032.077.046.116a3.2,3.2,0,0,1,.244,1.462.535.535,0,0,1-.017.107c-.007.035-.033.037-.048.056h0s-2.217.022-2.739-.451-1.317,1.154-1.317,1.154-.794.154-.953,0-1.091-.022-1.091-.022a2,2,0,0,0-1.379-.5,4.1,4.1,0,0,0-1.016-.565h0l-.024-.009h0a1.143,1.143,0,0,0-.5-.063,10.253,10.253,0,0,1-1.409-1.384c-.318-.483-1.828-2.278-1.839-2.286v-.087l-.017-.262a.869.869,0,0,1-.135.012c-.009-.026-.018-.056-.031-.09a5.06,5.06,0,0,0-.322-.74s0-.329.1-.412a5.642,5.642,0,0,0-.04-1.292s-.982-2.3-1.862-.582c0,0-1.663,1.11-.267,2.4,0,0,.557.269.635.487.052.139.244.526.366.784l.057.116-.016.013.021.216.009.083c-.263.15-.441.3-.4.409a2.477,2.477,0,0,1,.16.593,15.76,15.76,0,0,1,2.173,3.449s5.178,3.077,6.881,3.3l-.295,1.539a12.306,12.306,0,0,0-.068,1.253c.022.33-.2,1.828-.2,1.828a12.224,12.224,0,0,1-.545,2.505,4.186,4.186,0,0,0-.2,1.624,11.1,11.1,0,0,1-.341,1.868,4.9,4.9,0,0,0-.068,1.869s-.863,1.978,1.2.637c0,0,1.015-.063,2.184-.1v.122c0,.15,0,.313-.007.487-.016,1.133-.022,2.694.029,3.876.091,2.087.731,6.221.731,6.221v2.072a2.851,2.851,0,0,0-.06.593,3.869,3.869,0,0,0,.559,2.079l.16,1.384a5.42,5.42,0,0,1,.38,1.462.853.853,0,0,1-.016.133.947.947,0,0,0-.018.212,11.965,11.965,0,0,0,.358,2.133s.022,1.517.244,1.6c.194.076-.26.875-.395,1.1a.081.081,0,0,0-.008-.044l-.028.046a1.062,1.062,0,0,0-.071.383.552.552,0,0,0,.252.534c.431.263.663.487.3.572a3.935,3.935,0,0,0-.4.084l-.019-.051a.244.244,0,0,0-.149.266,1.107,1.107,0,0,0,.135.514,5.863,5.863,0,0,0,.609,1.121l.175-.02a.94.94,0,0,1-.1.188.724.724,0,0,1-.257.228.775.775,0,0,1-.311.106.879.879,0,0,0-.643.313.671.671,0,0,0,.079,1.043l1.624.561s2.793.366,2.646-.264-.244-1.176-.244-1.176a2.475,2.475,0,0,0-.227-1.111,1.484,1.484,0,0,0-.1-.163l.1-.011a5.153,5.153,0,0,1,.477-1.649c.063-.061.078-.107.062-.144.028-.076-.043-.122-.134-.145l-.02.055a1.331,1.331,0,0,0-.272-.03s-.09-.725.2-.988a.28.28,0,0,0,.057-.216,1.217,1.217,0,0,0-.03-.3l-.011.017a10.729,10.729,0,0,0-.652-1.706,2.079,2.079,0,0,1,.16-.924,23.154,23.154,0,0,0-.023-3.583,10.85,10.85,0,0,0-.136-2.352,2.636,2.636,0,0,1,.25-1.627v-.049l.006-.011s-.011-.1-.027-.252v.015c-.046-.424-.133-1.194-.2-1.55-.091-.506.022-2.925.022-2.925l.41-1.033.731,1.782.773,2.374a2.02,2.02,0,0,1,.391,1.009.5.5,0,0,1,0,.074,1.438,1.438,0,0,0-.009.16,1.406,1.406,0,0,0,.235.845,3.691,3.691,0,0,0,.523,1.407,1.268,1.268,0,0,1,.318.835,13.972,13.972,0,0,0,.568,1.913,2.868,2.868,0,0,1,.16,1.105h0v.06s.054.581.051,1.07v.174a.049.049,0,0,1,0-.013,1.788,1.788,0,0,1-.048.4.041.041,0,0,1-.007.023l.007-.083a4.189,4.189,0,0,0-.122,1.014,2.6,2.6,0,0,0,.433,1.683c.609.7,1,.617,1,.617s-.295.879-.659,1.054a.208.208,0,0,0-.038.026.388.388,0,0,0-.01-.051.426.426,0,0,0-.106.328,2.336,2.336,0,0,0,.45,1.3.709.709,0,0,0,.307.179l-.057.035a1.271,1.271,0,0,1-.122.06.59.59,0,0,1-.185.047.87.87,0,0,0-.643.313.67.67,0,0,0,.079,1.042l1.624.561S569.05,436.514,568.9,435.887Z" transform="translate(-484.3 -340.837)"/><path class="z" d="M654.28,809.771l-1.572-.561a.684.684,0,0,1-.077-1.043.841.841,0,0,1,.623-.313.732.732,0,0,0,.3-.106.7.7,0,0,0,.244-.228,1.149,1.149,0,0,0,.179-.609s1.727-.506,2.193,0a1.3,1.3,0,0,1,.21.306,2.558,2.558,0,0,1,.219,1.111s.089.55.23,1.176S654.28,809.771,654.28,809.771Z" transform="translate(-580.348 -713.68)"/><path class="z" d="M717.417,803.418l-1.572-.561a.681.681,0,0,1-.077-1.042.832.832,0,0,1,.623-.313.553.553,0,0,0,.179-.047.931.931,0,0,0,.122-.06,1,1,0,0,0,.428-.835s1.726-.506,2.193,0a1.181,1.181,0,0,1,.164.224,2.487,2.487,0,0,1,.264,1.194s.088.55.23,1.176S717.417,803.418,717.417,803.418Z" transform="translate(-635.79 -708.104)"/><path class="g" d="M666.117,806.913a1.3,1.3,0,0,1,.21.306h0l-2.587.3a1.149,1.149,0,0,0,.179-.609S665.646,806.408,666.117,806.913Z" transform="translate(-590.284 -713.682)"/><path class="g" d="M726.752,800.782v.487c-.4.663-2.347.518-2.912.185a.931.931,0,0,0,.122-.06,1,1,0,0,0,.428-.835s1.726-.506,2.193,0A1.18,1.18,0,0,1,726.752,800.782Z" transform="translate(-643.061 -708.104)"/><path class="p" d="M655.563,601.7a4.488,4.488,0,0,0-.308.659v1.737c-.439.731-2.725.487-3.033.088s-.637-1.428-.285-1.6.637-1.055.637-1.055-.374.088-.968-.615a3.634,3.634,0,0,1-.307-2.638,7.74,7.74,0,0,0,0-1.627,3.249,3.249,0,0,0-.155-1.165,14.343,14.343,0,0,1-.55-1.912,1.3,1.3,0,0,0-.307-.836,3.778,3.778,0,0,1-.506-1.406,1.444,1.444,0,0,1-.223-.944,1.909,1.909,0,0,0-.373-1.143l-.747-2.374-.7-1.78-.392,1.032s-.111,2.418-.022,2.925.219,1.846.219,1.846a2.721,2.721,0,0,0-.244,1.627,11.336,11.336,0,0,1,.132,2.352,24.13,24.13,0,0,1,.022,3.583,2.156,2.156,0,0,0-.154.924s.9,1.934.609,2.193-.2.989-.2.989.609,0,.352.263a5.389,5.389,0,0,0-.45,1.652l-2.658.307a5.518,5.518,0,0,1-.6-1.121c-.352-.814.066-.731.42-.813s.129-.308-.288-.571-.177-.853-.177-.853.637-1.077.418-1.166-.244-1.6-.244-1.6a9.829,9.829,0,0,1-.33-2.286,4.414,4.414,0,0,0-.352-1.649l-.154-1.385a3.811,3.811,0,0,1-.487-2.615v-2.136s-.609-4.132-.7-6.221c-.056-1.34-.04-3.162-.022-4.3.011-.639.022-1.061.022-1.061l9.5-.992a7.844,7.844,0,0,0,.172,1.41c.1.522.244,1.2.487,2.041a9.266,9.266,0,0,1,.263,4.22l-.088,3.056a7.754,7.754,0,0,1,.659,2.748,5.85,5.85,0,0,0-.175,1.275s1.868,4.462,1.671,5.759a8.427,8.427,0,0,0,.609,3.341A5.074,5.074,0,0,1,655.563,601.7Z" transform="translate(-571.563 -511.105)"/><path class="n" d="M705.71,690.135l2.892-.385S706.964,691.421,705.71,690.135Z" transform="translate(-627.14 -610.994)"/><path class="g" d="M722.2,666.57s.1,1.022-.528,1.407C721.671,667.977,722.792,667.8,722.2,666.57Z" transform="translate(-641.155 -590.638)"/><path class="g" d="M699.972,639.88s-2.416,1.989-3.29,1.828S699.972,639.88,699.972,639.88Z" transform="translate(-619.106 -567.201)"/><path class="g" d="M662.682,700.58s-1.835.417-1.89,1.154S662.682,700.58,662.682,700.58Z" transform="translate(-587.694 -620.504)"/><path class="n" d="M665.289,775.8s-2.593.487-1.857.813a13.069,13.069,0,0,0,1.95.593S666.213,777.25,665.289,775.8Z" transform="translate(-589.899 -686.558)"/><g class="aa" transform="translate(70.856 65.823)"><path d="M657.676,784.057a.517.517,0,0,1-.236-.377l-.027.046s-.244.593.175.853c.049.03.094.061.135.09.078-.015.161-.026.244-.045C658.318,784.539,658.094,784.32,657.676,784.057Z" transform="translate(-655.522 -759.301)"/><path d="M686.614,782.062c.072-.066.069-.235.026-.452a1.225,1.225,0,0,0-.147.637A.533.533,0,0,1,686.614,782.062Z" transform="translate(-681.118 -757.483)"/><path d="M682.965,695.58a2.954,2.954,0,0,0-.175.808,3.185,3.185,0,0,1,.2-.556S682.981,695.734,682.965,695.58Z" transform="translate(-677.869 -681.937)"/><path d="M732.657,684.354a1.01,1.01,0,0,0,.024-.244c-.033.163-.056.316-.072.45A1.193,1.193,0,0,1,732.657,684.354Z" transform="translate(-721.617 -671.864)"/><path d="M683.306,756.2a1.4,1.4,0,0,0,.066-.487,1.656,1.656,0,0,0-.122.617A.6.6,0,0,1,683.306,756.2Z" transform="translate(-678.272 -734.739)"/><path d="M660.967,793.72a8.64,8.64,0,0,0-.3,1.35l-2.658.308a5.573,5.573,0,0,1-.6-1.121c-.03-.072-.055-.135-.074-.194-.16.073-.222.244-.013.721a5.622,5.622,0,0,0,.595,1.121l2.661-.308a5.284,5.284,0,0,1,.461-1.649C661.168,793.82,661.085,793.754,660.967,793.72Z" transform="translate(-655.389 -768.117)"/><path d="M644.47,605.276s.022,1.517.244,1.6h0c.111-.251.185-.487.086-.529-.221-.088-.244-1.6-.244-1.6a9.83,9.83,0,0,1-.329-2.286,4.407,4.407,0,0,0-.352-1.649l-.154-1.384a3.805,3.805,0,0,1-.487-2.616v-2.133s-.609-4.132-.7-6.215c-.056-1.34-.04-3.168-.022-4.3,0-.206.006-.389.01-.542l-.076.007s-.012.423-.022,1.063c-.02,1.138-.035,2.964.022,4.3.088,2.089.7,6.221.7,6.221v2.133a3.806,3.806,0,0,0,.487,2.616l.155,1.376a4.409,4.409,0,0,1,.352,1.649A9.874,9.874,0,0,0,644.47,605.276Z" transform="translate(-642.403 -583.62)"/><path d="M719.8,794.934a2.559,2.559,0,0,1-.42-1.044c-.272.244.04,1.2.333,1.572.307.395,2.593.637,3.033-.088v-.419A3.16,3.16,0,0,1,719.8,794.934Z" transform="translate(-709.906 -768.267)"/><path d="M748.778,781.939a4.27,4.27,0,0,0-.308.659v.306c.05-.113.122-.263.221-.441a1.314,1.314,0,0,0,.1-.544A.073.073,0,0,0,748.778,781.939Z" transform="translate(-735.545 -757.755)"/><path d="M715.621,761.561a4.241,4.241,0,0,0,.217-.523s-.374.088-.968-.609a3.115,3.115,0,0,1-.395-2.109,3.631,3.631,0,0,0,.307,2.637A1.576,1.576,0,0,0,715.621,761.561Z" transform="translate(-705.594 -737.031)"/><path d="M687.311,657.791a11.747,11.747,0,0,1,.044,1.3,1.893,1.893,0,0,1,.045-.2,7.734,7.734,0,0,0,0-1.626,3.266,3.266,0,0,0-.154-1.165,14.477,14.477,0,0,1-.55-1.913,1.3,1.3,0,0,0-.307-.835,3.776,3.776,0,0,1-.506-1.407,1.44,1.44,0,0,1-.221-.944,1.918,1.918,0,0,0-.373-1.143l-.748-2.375-.7-1.78-.4,1.033s0,.13-.013.334l.322-.84.7,1.78.751,2.375a1.915,1.915,0,0,1,.374,1.143,1.439,1.439,0,0,0,.221.944,3.776,3.776,0,0,0,.5,1.408,1.3,1.3,0,0,1,.308.835,14.537,14.537,0,0,0,.55,1.913A3.235,3.235,0,0,1,687.311,657.791Z" transform="translate(-678.43 -638.135)"/></g><path class="ab" d="M714.866,398.075l-.166.8.01.357.007.264-.918.094-.1-.19h0a8.4,8.4,0,0,0-.712-1.15c-.169-.143-.472-2.374-.108-2.242a.961.961,0,0,1,.511.463S715.19,396.685,714.866,398.075Z" transform="translate(-633.284 -353.043)"/><path class="g" d="M721.86,422.044l-.918.094-.1-.19h0a.81.81,0,0,1,1.013-.167Z" transform="translate(-640.426 -375.584)"/><path class="q" d="M721.714,423.054l-1.21.28-.024-.18-.069-.487a.832.832,0,0,1,1.171-.16l.06.244Z" transform="translate(-640.049 -376.16)"/><path class="ab" d="M549.26,385.944l-1.291.692-.122-.244c-.122-.257-.306-.645-.356-.784-.077-.213-.615-.487-.615-.487a1.489,1.489,0,0,1,.258-2.4c.853-1.715,1.8.582,1.8.582a5.868,5.868,0,0,1,.039,1.292c-.093.082-.094.412-.094.412a5,5,0,0,1,.312.74C549.24,385.868,549.26,385.944,549.26,385.944Z" transform="translate(-487.188 -340.819)"/><path class="g" d="M560.152,412.288l-1.29.692-.122-.244c.182-.151.829-.675,1.041-.652a1.626,1.626,0,0,0,.306.009C560.132,412.213,560.152,412.288,560.152,412.288Z" transform="translate(-498.08 -367.164)"/><path class="q" d="M560.6,413.35l-1.45.715-.029-.312-.021-.216s.841-.72,1.089-.693a1.312,1.312,0,0,0,.379,0l.016.261Z" transform="translate(-498.396 -367.831)"/><path class="ab" d="M663.441,421.432s-6.327.714-5.144.33a1.586,1.586,0,0,0,1.219-1.372,3.3,3.3,0,0,0-.236-1.462,6.294,6.294,0,0,0-.565-1.143s4.837-2.66,3.869-.244a3.877,3.877,0,0,0-.274,1.145,3.2,3.2,0,0,0,.122,1.159A3.445,3.445,0,0,0,663.441,421.432Z" transform="translate(-585.376 -371.065)"/><path class="g" d="M666.649,417.529a3.875,3.875,0,0,0-.274,1.146,2.229,2.229,0,0,1-1.6.357,2.794,2.794,0,0,1-1.433-.122,6.3,6.3,0,0,0-.565-1.143S667.617,415.109,666.649,417.529Z" transform="translate(-589.441 -371.052)"/><circle class="ab" cx="2.616" cy="2.616" r="2.616" transform="translate(72.634 42.915)"/><path class="g" d="M663.441,443.39s-6.327.714-5.144.33a1.586,1.586,0,0,0,1.219-1.372,3.451,3.451,0,0,1,1.354-.718,1.89,1.89,0,0,1,1.147-.018,1.592,1.592,0,0,1,.417.193A3.446,3.446,0,0,0,663.441,443.39Z" transform="translate(-585.376 -393.023)"/><path class="g" d="M722.214,425.832l-1.21.28-.024-.18a1.069,1.069,0,0,1,1.161-.4Z" transform="translate(-640.549 -378.939)"/><path class="g" d="M560.749,415.235l-1.45.715-.029-.312a10.657,10.657,0,0,1,1.462-.648Z" transform="translate(-498.545 -369.716)"/><path class="g" d="M652.27,577.412c-2.449.388-5.937.891-6.49.723a16.41,16.41,0,0,0-3.2-.082c.011-.639.022-1.061.022-1.061l9.5-.992A7.849,7.849,0,0,0,652.27,577.412Z" transform="translate(-571.703 -511.105)"/><path class="ac" d="M578.832,436.01s-8.067,1.386-8.933,1.121a34.6,34.6,0,0,0-5.311.022c-2,1.34-1.165-.637-1.165-.637a4.922,4.922,0,0,1,.066-1.868,11.385,11.385,0,0,0,.336-1.868,4.357,4.357,0,0,1,.2-1.627,12.555,12.555,0,0,0,.528-2.507s.221-1.494.2-1.828a12.517,12.517,0,0,1,.066-1.253l.285-1.539c-1.649-.219-6.661-3.3-6.661-3.3a16,16,0,0,0-2.109-3.451,2.51,2.51,0,0,0-.155-.593c-.132-.351,1.847-1.054,1.847-1.054s1.472,1.8,1.78,2.286a10.043,10.043,0,0,0,1.362,1.384,1.073,1.073,0,0,1,.487.063l.026.007h0a3.941,3.941,0,0,1,.985.565,1.908,1.908,0,0,1,1.34.506s.9-.132,1.055.022.924,0,.924,0,.769-1.627,1.275-1.154,2.65.451,2.65.451a3.17,3.17,0,0,1,1.417-.793,1.9,1.9,0,0,1,1.147-.018,1.478,1.478,0,0,1,.452.218l1.3,1.275s.374-.487.33-.593.44-.2.44-.2.637-.2.879-.264.463.2.487.219a2.577,2.577,0,0,1-.108-.966,1.138,1.138,0,0,0-.264-.792c.77-1.89,2.507-.307,2.507-.307a3.625,3.625,0,0,1,.022,1.428c-.175.395.175,1.232.132,1.451s.088.593.088,1.011a5.931,5.931,0,0,1-.352,1.56c-.133.351-1.187,1.143-1.187,1.143a4.962,4.962,0,0,1-.528,1.979c-.462.725-.189,3.21-.189,3.21a8.291,8.291,0,0,0,.993,2.559C578.026,432.5,578.832,436.01,578.832,436.01Z" transform="translate(-495.821 -370.278)"/><path class="g" d="M637.729,454.468s-.244-.725-.462-.791a5.235,5.235,0,0,1-.637-.286l.141-.271s.825.227.958.468A1.888,1.888,0,0,1,637.729,454.468Z" transform="translate(-566.478 -403.199)"/><path class="g" d="M594.971,446.864c-.044.219-2,.418-2,.418l.99-.992h0l.024.009h0A3.942,3.942,0,0,1,594.971,446.864Z" transform="translate(-528.138 -397.201)"/><circle class="p" cx="0.175" cy="0.175" r="0.175" transform="translate(60.996 46.471)"/><circle class="p" cx="0.175" cy="0.175" r="0.175" transform="translate(61.221 46.823)"/><circle class="p" cx="0.175" cy="0.175" r="0.175" transform="translate(61.442 47.147)"/><circle class="p" cx="0.175" cy="0.175" r="0.175" transform="translate(61.672 47.499)"/><circle class="p" cx="0.143" cy="0.143" r="0.143" transform="translate(82.426 47.513)"/><circle class="p" cx="0.143" cy="0.143" r="0.143" transform="translate(82.448 47.837)"/><circle class="p" cx="0.143" cy="0.143" r="0.143" transform="translate(82.467 48.161)"/><path class="g" d="M645.74,513.059c-.021-.026,4.934,6.232,8.781,2.616C654.521,515.676,648.442,516.5,645.74,513.059Z" transform="translate(-574.477 -455.834)"/><path class="g" d="M622.38,539.76s2.965.08,3.274.933v.888a.567.567,0,0,1-.551,0c-.3-.162-2.092-1.072-2.724-.635Z" transform="translate(-553.964 -479.281)"/><path class="ac" d="M622.83,539.76s2.836.077,3.132.891v.844a.544.544,0,0,1-.528,0c-.285-.154-2-1.022-2.6-.609Z" transform="translate(-554.36 -479.281)"/><path class="g" d="M635.66,486.92a9.58,9.58,0,0,0,1.149,1.973,7.736,7.736,0,0,0,1.8,1.739A34.658,34.658,0,0,1,635.66,486.92Z" transform="translate(-565.626 -432.88)"/><path class="g" d="M627.7,458.65s.495,2.135,1.769,2.861Z" transform="translate(-558.636 -408.055)"/><path class="g" d="M621.154,460.415a2.361,2.361,0,0,0,1.644,2.646S621.913,462.76,621.154,460.415Z" transform="translate(-552.849 -409.605)"/><path class="g" d="M727.715,448.66a14.951,14.951,0,0,1,1.316.988S728.341,448.616,727.715,448.66Z" transform="translate(-646.463 -399.282)"/><path class="z" d="M657.023,394.021a.557.557,0,0,0,.2.353.564.564,0,0,0,.244.055,5.294,5.294,0,0,0,2.365-.223.894.894,0,0,0,.366-.238,1.473,1.473,0,0,0,.21-.579,7.61,7.61,0,0,1,.487-1.111,3.728,3.728,0,0,0,.258-1.995,1.323,1.323,0,0,0-.2-.584c-.212-.3-.6-.424-.877-.664s-.459-.609-.786-.79a1.517,1.517,0,0,0-.987-.088,5.207,5.207,0,0,0-1.855.692.921.921,0,0,1-.609.21.851.851,0,0,1-.453-.347,2.436,2.436,0,0,0-.2,1.139.5.5,0,0,1,0,.172.529.529,0,0,1-.122.182.657.657,0,0,0-.122.82c.084.1.214.156.3.258.147.184.1.447.094.684a.349.349,0,0,0,.058.232.337.337,0,0,0,.323.077.9.9,0,0,1,.344-.033.565.565,0,0,1,.3.23A4.229,4.229,0,0,1,657.023,394.021Z" transform="translate(-582.479 -346.118)"/><g class="c" transform="translate(72.365 42.569)"><path d="M660.229,409.522a.885.885,0,0,1-.366.244,5.267,5.267,0,0,1-2.365.222.531.531,0,0,1-.244-.055.553.553,0,0,1-.2-.353,4.074,4.074,0,0,0-.667-1.546.565.565,0,0,0-.3-.23.873.873,0,0,0-.344.033.34.34,0,0,1-.319-.077.351.351,0,0,1-.058-.233c0-.235.054-.5-.094-.682-.083-.1-.212-.157-.3-.258a.517.517,0,0,1-.051-.525.6.6,0,0,0-.036.7c.084.1.214.156.3.258.147.184.1.447.094.684a.349.349,0,0,0,.058.232.338.338,0,0,0,.323.077.9.9,0,0,1,.344-.033.566.566,0,0,1,.3.23,4.128,4.128,0,0,1,.667,1.548.413.413,0,0,0,.451.408,5.293,5.293,0,0,0,2.365-.223.894.894,0,0,0,.366-.238.7.7,0,0,0,.113-.212.372.372,0,0,1-.032.03Z" transform="translate(-654.786 -404.443)"/><path d="M657.583,394.057a.366.366,0,0,0,.08-.132.508.508,0,0,0,0-.172,2.425,2.425,0,0,1,.122-.947l-.015-.017a2.421,2.421,0,0,0-.195,1.139A.747.747,0,0,1,657.583,394.057Z" transform="translate(-657.23 -392.79)"/></g><path class="g" d="M668.84,449.148s3.268.433,3.562-.059" transform="translate(-594.763 -399.66)"/><path class="g" d="M721,438.47s1.814,0,2.214.684" transform="translate(-640.567 -390.334)"/><path class="e" d="M1037.23,425s.227.3-.1.745-.609.827-.495,1.106c0,0,.5-.832.908-.844S1037.679,425.495,1037.23,425Z" transform="translate(-917.712 -378.506)"/><path class="g" d="M1037.332,425a.4.4,0,0,1,.046.093c.4.468.609.9.227.914-.356.011-.782.647-.885.808a.107.107,0,0,0,.012.037c0,.012.5-.832.908-.844S1037.78,425.495,1037.332,425Z" transform="translate(-917.813 -378.506)"/><path class="v" d="M1044.823,427.569c0,.1-.011.19-.026.19s-.027-.085-.027-.19.015-.055.029-.055S1044.823,427.465,1044.823,427.569Z" transform="translate(-924.883 -380.703)"/><path class="v" d="M1045.105,428.563c-.091.05-.172.08-.178.067s.061-.063.154-.113.055-.013.062,0S1045.2,428.513,1045.105,428.563Z" transform="translate(-925.02 -381.571)"/><path class="e" d="M1028.221,425s-.228.3.1.745.609.827.495,1.106c0,0-.5-.832-.909-.844S1027.772,425.495,1028.221,425Z" transform="translate(-909.902 -378.506)"/><path class="g" d="M1028.221,425a.369.369,0,0,0-.047.093c-.4.468-.609.9-.227.914.356.011.784.647.886.808a.107.107,0,0,1-.012.037c0,.012-.5-.832-.909-.844S1027.772,425.495,1028.221,425Z" transform="translate(-909.902 -378.506)"/><path class="v" d="M1028.43,427.572c0,.1.012.19.027.19a.385.385,0,0,0,.026-.19c0-.1-.015-.055-.029-.055S1028.43,427.469,1028.43,427.572Z" transform="translate(-910.534 -380.707)"/><path class="v" d="M1026.837,428.563c.093.05.172.08.179.067s-.062-.063-.153-.113-.056-.013-.063,0S1026.745,428.513,1026.837,428.563Z" transform="translate(-909.085 -381.571)"/><path class="ad" d="M1029,437.347a2.322,2.322,0,0,0,.826-.156c.191-.136.975-.3,1.025-.08s.954,1.087.244,1.1a5.965,5.965,0,0,1-1.857-.228C1029.046,437.863,1029,437.347,1029,437.347Z" transform="translate(-911.034 -389.047)"/><path class="ae" d="M1031.1,440.6a6.274,6.274,0,0,1-1.856-.228c-.146-.089-.2-.407-.223-.553H1029s.04.513.232.629a6.08,6.08,0,0,0,1.857.228c.207,0,.278-.076.274-.184C1031.336,440.559,1031.258,440.6,1031.1,440.6Z" transform="translate(-911.034 -391.52)"/></g></svg>