<svg xmlns="http://www.w3.org/2000/svg" xmlns:xlink="http://www.w3.org/1999/xlink" viewBox="0 0 131.99 106.278"><defs><style>.a{fill:url(#a);}.b{fill:url(#b);}.c{fill:url(#e);}.d{fill:#fff;}.e{fill:#6c63ff;}.f{fill:#bdbdbd;}.g{fill:#e0e0e0;}.h{fill:#64ffda;}</style><linearGradient id="a" x1="0.5" y1="1" x2="0.5" gradientUnits="objectBoundingBox"><stop offset="0" stop-color="gray" stop-opacity="0.251"/><stop offset="0.54" stop-color="gray" stop-opacity="0.122"/><stop offset="1" stop-color="gray" stop-opacity="0.102"/></linearGradient><linearGradient id="b" x1="0.5" y1="1" x2="0.5" gradientUnits="objectBoundingBox"><stop offset="0" stop-color="#b3b3b3" stop-opacity="0.251"/><stop offset="0.54" stop-color="#b3b3b3" stop-opacity="0.102"/><stop offset="1" stop-color="#b3b3b3" stop-opacity="0.051"/></linearGradient><linearGradient id="e" xlink:href="#a"/></defs><rect class="a" width="131.99" height="19.46" rx="9.73"/><rect class="b" width="14.106" height="13.701" rx="6.851" transform="translate(6.338 3.077)"/><rect class="b" width="27.14" height="1.787" transform="translate(24.911 4.666)"/><rect class="b" width="38.389" height="1.787" transform="translate(24.828 8.836)"/><rect class="c" width="131.99" height="19.46" rx="9.73" transform="translate(0 28.925)"/><rect class="b" width="14.106" height="13.701" rx="6.851" transform="translate(6.338 32.045)"/><rect class="b" width="27.14" height="1.787" transform="translate(24.911 33.691)"/><rect class="b" width="38.389" height="1.787" transform="translate(24.828 37.766)"/><rect class="a" width="131.99" height="19.46" rx="9.73" transform="translate(0 57.894)"/><rect class="b" width="14.106" height="13.701" rx="6.851" transform="translate(6.338 60.919)"/><rect class="b" width="27.14" height="1.787" transform="translate(24.911 62.649)"/><rect class="b" width="38.389" height="1.787" transform="translate(24.828 66.724)"/><rect class="a" width="131.99" height="19.46" rx="9.73" transform="translate(0 86.818)"/><rect class="b" width="14.106" height="13.701" rx="6.851" transform="translate(6.338 89.896)"/><rect class="b" width="27.14" height="1.787" transform="translate(24.911 91.484)"/><rect class="b" width="38.389" height="1.787" transform="translate(24.828 95.655)"/><rect class="d" width="129.536" height="17.18" rx="8.59" transform="translate(1.227 0.701)"/><rect class="e" width="13.85" height="12.097" rx="6.048" transform="translate(7.45 3.419)"/><rect class="f" width="26.647" height="1.578" transform="translate(25.654 4.821)"/><rect class="g" width="37.691" height="1.578" transform="translate(25.571 8.503)"/><rect class="d" width="129.536" height="17.18" rx="8.59" transform="translate(1.227 29.7)"/><rect class="e" width="13.85" height="12.097" rx="6.048" transform="translate(7.45 32.391)"/><rect class="f" width="26.647" height="1.578" transform="translate(25.654 33.843)"/><rect class="h" width="37.691" height="1.578" transform="translate(25.571 37.441)"/><rect class="d" width="129.536" height="17.18" rx="8.59" transform="translate(1.227 58.715)"/><rect class="e" width="13.85" height="12.097" rx="6.048" transform="translate(7.45 61.449)"/><rect class="f" width="26.647" height="1.578" transform="translate(25.654 62.974)"/><rect class="g" width="37.691" height="1.578" transform="translate(25.571 66.573)"/><rect class="d" width="129.536" height="17.18" rx="8.59" transform="translate(1.227 87.695)"/><rect class="e" width="13.85" height="12.097" rx="6.048" transform="translate(7.45 90.412)"/><rect class="f" width="26.647" height="1.578" transform="translate(25.654 91.815)"/><rect class="h" width="37.691" height="1.578" transform="translate(25.571 95.497)"/></svg>