<svg xmlns="http://www.w3.org/2000/svg" xmlns:xlink="http://www.w3.org/1999/xlink" viewBox="0 0 135.076 113.365"><defs><style>.a{opacity:0.5;}.b{fill:url(#a);}.c{fill:url(#b);}.d{fill:#fff;}.e,.l{fill:#6c63ff;}.e{opacity:0.2;}.f{fill:#dbdbdb;}.g{fill:url(#c);}.h{fill:#f5f5f5;}.i{fill:#fda57d;}.j{fill:#333;}.k{opacity:0.1;}.m{fill:#4d8af0;}.n{fill:#fdb797;}.o{fill:url(#e);}.p{fill:#be7c5e;}.q{fill:none;stroke:#6c63ff;stroke-miterlimit:10;stroke-width:2px;stroke-dasharray:12;}.r{fill:url(#f);}.s{fill:#69f0ae;}</style><linearGradient id="a" x1="0.815" y1="0.481" x2="0.161" y2="0.479" gradientUnits="objectBoundingBox"><stop offset="0" stop-color="gray" stop-opacity="0.251"/><stop offset="0.54" stop-color="gray" stop-opacity="0.122"/><stop offset="1" stop-color="gray" stop-opacity="0.102"/></linearGradient><linearGradient id="b" x1="0.489" y1="1.219" x2="0.489" y2="-0.264" gradientUnits="objectBoundingBox"><stop offset="0" stop-opacity="0.09"/><stop offset="0.55" stop-opacity="0.071"/><stop offset="1" stop-opacity="0.02"/></linearGradient><linearGradient id="c" x1="0.5" y1="1" x2="0.5" y2="0" xlink:href="#a"/><linearGradient id="e" x1="-4.806" y1="1" x2="-4.806" y2="0" xlink:href="#a"/><linearGradient id="f" x1="0.5" y1="1" x2="0.5" y2="0" xlink:href="#a"/></defs><g transform="translate(0 0.008)"><g class="a" transform="translate(0 18.181)"><path class="b" d="M163.054,286.083l-.114-81.931a3.091,3.091,0,0,1,3.09-3.09l128.783-.172a3.091,3.091,0,0,1,3.091,3.091l.113,81.931a3.09,3.09,0,0,1-3.09,3.091l-128.783.172A3.09,3.09,0,0,1,163.054,286.083Z" transform="translate(-162.94 -200.89)"/></g><rect class="c" width="114.552" height="76.088" transform="translate(9.977 24.509) rotate(-0.08)"/><rect class="d" width="130.289" height="82.747" rx="12.68" transform="translate(2.603 21.033) rotate(-0.08)"/><rect class="e" width="71.459" height="109.279" transform="translate(122.866 26.63) rotate(90)"/><ellipse class="f" cx="3.016" cy="2.945" rx="3.016" ry="2.945" transform="translate(5.169 59.839)"/><ellipse class="f" cx="1.006" cy="0.981" rx="1.006" ry="0.981" transform="translate(126.612 49.248)"/><rect class="f" width="12.761" height="1.006" rx="0.503" transform="translate(128.317 54.927) rotate(89.92)"/><g class="a" transform="translate(87.904 -0.008)"><path class="g" d="M764.515,99.534a16.352,16.352,0,1,0-25.475,13.572l.011.073a5.6,5.6,0,0,0,1.854,1.181l.022-.073c.773.657,3.988,1.708,7.694,1.7h.08a15.032,15.032,0,0,0,7.133-1.626s.02-.043.051-.124a5.826,5.826,0,0,0,1.545-1.055q.014-.094.026-.185A16.333,16.333,0,0,0,764.515,99.534Z" transform="translate(-731.809 -83.182)"/></g><circle class="h" cx="15.86" cy="15.86" r="15.86" transform="translate(88.398 0.486)"/><path class="i" d="M782.293,231.22s-3.78.309-2.781,7.195a5.429,5.429,0,0,0,1.8,1.145l2.126-7.195Z" transform="translate(-684.094 -208.352)"/><path class="i" d="M871.533,231.22s3.78.309,2.781,7.195a5.429,5.429,0,0,1-1.8,1.145l-2.126-7.195Z" transform="translate(-761.071 -208.352)"/><path class="j" d="M784.271,158.2s-1.8,5.232-2.781,4.742c0,0,9.466,8.176,17.823,0a24.909,24.909,0,0,0-3.6-4.742Z" transform="translate(-685.909 -146.616)"/><circle class="j" cx="7.031" cy="7.031" r="7.031" transform="translate(97.399 4.063)"/><path class="k" d="M802.56,231.22H790.3l-1.151,4.911s-.672,2.272.164,3.27,8.653,3.27,14.389.164a6.4,6.4,0,0,0,.164-4.087c-.654-2.289-.164-.164-.164-.164Z" transform="translate(-692.17 -208.352)"/><path class="k" d="M803.62,231.22H791.354l-1.142,4.911s-.672,2.272.164,3.27,8.653,3.27,14.389.164a6.4,6.4,0,0,0,.164-4.087c-.654-2.289-.164-.164-.164-.164Z" transform="translate(-693.067 -208.352)"/><path class="l" d="M803.013,231.22H790.75l-1.148,4.911s-.672,2.272.164,3.27,8.653,3.27,14.389.164a6.4,6.4,0,0,0,.164-4.087c-.654-2.289-.164-.164-.164-.164Z" transform="translate(-692.551 -208.352)"/><path class="k" d="M659.82,121.7h4.906v4.018a2.364,2.364,0,0,1-2.364,2.364h-.178a2.364,2.364,0,0,1-2.364-2.364Z" transform="translate(-557.861 -102.901)"/><path class="i" d="M659.82,120.52h4.906v4.018a2.364,2.364,0,0,1-2.364,2.364h-.178a2.364,2.364,0,0,1-2.364-2.364Z" transform="translate(-557.861 -101.903)"/><path class="k" d="M822.83,205.059a7.06,7.06,0,0,0,4.906.014v-.6H822.83Z" transform="translate(-720.861 -185.736)"/><circle class="i" cx="7.031" cy="7.031" r="7.031" transform="translate(97.399 5.59)"/><path class="j" d="M795.25,119.8h13.405s-1.145-5.408-6.213-5.068S795.25,119.8,795.25,119.8Z" transform="translate(-697.542 -109.855)"/><ellipse class="i" cx="0.654" cy="1.227" rx="0.654" ry="1.227" transform="translate(96.89 11.094)"/><ellipse class="i" cx="0.654" cy="1.227" rx="0.654" ry="1.227" transform="translate(110.626 11.094)"/><path class="k" d="M795.25,120.984h13.405s-1.145-5.408-6.213-5.068S795.25,120.984,795.25,120.984Z" transform="translate(-697.542 -110.853)"/><g class="a" transform="translate(5.666 22.756)"><path class="g" d="M232.315,246.847a16.352,16.352,0,1,0-25.473,13.572l.011.073a5.6,5.6,0,0,0,1.854,1.181l.022-.073c.773.657,3.988,1.708,7.694,1.7h.08a15.033,15.033,0,0,0,7.133-1.626s.02-.043.051-.124a5.826,5.826,0,0,0,1.545-1.055q.014-.094.026-.185a16.333,16.333,0,0,0,7.057-13.462Z" transform="translate(-199.609 -230.495)"/></g><circle class="h" cx="15.86" cy="15.86" r="15.86" transform="translate(6.159 23.249)"/><path class="l" d="M244.863,376.46s-3.78.309-2.781,7.195a5.428,5.428,0,0,0,1.8,1.145l2.126-7.195Z" transform="translate(-229.71 -331.149)"/><path class="l" d="M334.145,376.46s3.78.309,2.781,7.195a5.428,5.428,0,0,1-1.8,1.145L333,377.6Z" transform="translate(-306.721 -331.149)"/><circle class="j" cx="7.031" cy="7.031" r="7.031" transform="translate(14.36 26.507)"/><path class="m" d="M265.171,376.46H252.907l-1.145,4.906s-.672,2.272.164,3.27,8.653,3.27,14.389.164a6.4,6.4,0,0,0,.164-4.084c-.654-2.289-.164-.164-.164-.164Z" transform="translate(-237.821 -331.149)"/><path class="m" d="M266.231,376.46H253.967l-1.145,4.906s-.672,2.272.164,3.27,8.653,3.27,14.389.164a6.4,6.4,0,0,0,.164-4.084c-.654-2.289-.164-.164-.164-.164Z" transform="translate(-238.717 -331.149)"/><path class="l" d="M265.608,376.46H253.337l-1.145,4.906s-.672,2.272.164,3.27,8.653,3.27,14.389.164a6.4,6.4,0,0,0,.17-4.084c-.654-2.289-.164-.164-.164-.164Z" transform="translate(-238.184 -331.149)"/><path class="k" d="M122.44,266.93h4.906v4.018a2.364,2.364,0,0,1-2.364,2.364H124.8a2.364,2.364,0,0,1-2.364-2.364Z" transform="translate(-103.52 -225.689)"/><path class="n" d="M122.44,265.76h4.906v4.018a2.364,2.364,0,0,1-2.364,2.364H124.8a2.364,2.364,0,0,1-2.364-2.364Z" transform="translate(-103.52 -224.7)"/><path class="k" d="M285.44,350.3a7.06,7.06,0,0,0,4.906.014v-.6H285.44Z" transform="translate(-266.511 -308.533)"/><circle class="n" cx="7.031" cy="7.031" r="7.031" transform="translate(14.36 28.033)"/><path class="k" d="M257.87,266.184h13.408s-1.145-5.408-6.213-5.068S257.87,266.184,257.87,266.184Z" transform="translate(-243.201 -233.616)"/><path class="j" d="M257.87,265.044h13.408s-1.145-5.408-6.213-5.068S257.87,265.044,257.87,265.044Z" transform="translate(-243.201 -232.652)"/><ellipse class="n" cx="0.654" cy="1.227" rx="0.654" ry="1.227" transform="translate(13.852 33.538)"/><ellipse class="n" cx="0.654" cy="1.227" rx="0.654" ry="1.227" transform="translate(27.586 33.538)"/><path class="j" d="M263.478,248.269a2.493,2.493,0,0,1,.9-1.34,4.709,4.709,0,0,1,1.145-.491,8.754,8.754,0,0,0,1.666-.8,10.6,10.6,0,0,1,1.813-1.052,6.023,6.023,0,0,1,3.554.108,2.991,2.991,0,0,1,.831.309,3.146,3.146,0,0,1,.737.714l1.854,2.233a3.555,3.555,0,0,1,.464.647,2.23,2.23,0,0,1,.21.731,1.913,1.913,0,0,1-.2,1.2,1.887,1.887,0,0,1-1.576.828,5.733,5.733,0,0,1-1.82-.329,36.056,36.056,0,0,0-5.844-1.317,16.483,16.483,0,0,0-2.973-.1c-.309.02-.723.164-.912-.155C263.161,249.187,263.393,248.544,263.478,248.269Z" transform="translate(-247.767 -219.463)"/><g class="a" transform="translate(48.952 71.809)"><path class="o" d="M479.73,564.3A16.352,16.352,0,1,1,505.2,577.869l-.011.073a5.6,5.6,0,0,1-1.854,1.181l-.022-.073c-.773.657-3.988,1.708-7.694,1.7h-.08a15.032,15.032,0,0,1-7.133-1.626s-.02-.043-.051-.124a5.826,5.826,0,0,1-1.545-1.055q-.014-.094-.026-.185A16.333,16.333,0,0,1,479.73,564.3Z" transform="translate(-479.73 -547.945)"/></g><circle class="h" cx="15.86" cy="15.86" r="15.86" transform="translate(49.442 72.303)"/><path class="p" d="M529.163,692.87s-3.78.309-2.781,7.195a5.428,5.428,0,0,0,1.8,1.145l2.126-7.195Z" transform="translate(-470.079 -598.666)"/><path class="p" d="M618.387,692.87s3.78.309,2.781,7.195a5.427,5.427,0,0,1-1.8,1.145l-2.126-7.195Z" transform="translate(-547.039 -598.666)"/><path class="j" d="M540.729,619.852s-.29.847-.7,1.826c-.9,2.143.127,10.373,2.279,11.249a12.226,12.226,0,0,0,8.89.411c2.868-1.046,3.752-10.413,1.724-12.7-.238-.267-.487-.533-.746-.793Z" transform="translate(-481.481 -536.929)"/><circle class="j" cx="7.031" cy="7.031" r="7.031" transform="translate(58.284 75.401)"/><path class="k" d="M549.43,692.87H537.167l-1.145,4.906s-.672,2.272.164,3.27,8.653,3.27,14.389.164a6.4,6.4,0,0,0,.164-4.087c-.654-2.289-.164-.164-.164-.164Z" transform="translate(-478.155 -598.666)"/><path class="k" d="M550.49,692.87H538.227l-1.145,4.906s-.672,2.272.164,3.27,8.653,3.27,14.389.164a6.4,6.4,0,0,0,.164-4.087c-.654-2.289-.164-.164-.164-.164Z" transform="translate(-479.052 -598.666)"/><path class="l" d="M549.9,692.87H537.637l-1.145,4.906s-.672,2.272.164,3.27,8.653,3.27,14.389.164a6.4,6.4,0,0,0,.164-4.087c-.654-2.289-.164-.164-.164-.164Z" transform="translate(-478.553 -598.666)"/><path class="k" d="M406.69,583.35H411.6v4.018a2.364,2.364,0,0,1-2.364,2.364h-.176a2.364,2.364,0,0,1-2.364-2.364V583.35Z" transform="translate(-343.846 -493.215)"/><path class="p" d="M406.69,582.17H411.6v4.018a2.364,2.364,0,0,1-2.364,2.364h-.176a2.364,2.364,0,0,1-2.364-2.364V582.17Z" transform="translate(-343.846 -492.217)"/><path class="k" d="M569.7,666.709a7.06,7.06,0,0,0,4.906.014v-.6H569.7Z" transform="translate(-506.845 -576.049)"/><circle class="p" cx="7.031" cy="7.031" r="7.031" transform="translate(58.284 76.927)"/><path class="j" d="M542.12,581.464h13.408s-1.145-5.408-6.213-5.068S542.12,581.464,542.12,581.464Z" transform="translate(-483.527 -500.177)"/><ellipse class="p" cx="0.654" cy="1.227" rx="0.654" ry="1.227" transform="translate(57.775 82.431)"/><ellipse class="p" cx="0.654" cy="1.227" rx="0.654" ry="1.227" transform="translate(71.511 82.431)"/><path class="k" d="M542.12,582.634h13.408s-1.145-5.408-6.213-5.068S542.12,582.634,542.12,582.634Z" transform="translate(-483.527 -501.166)"/><path class="q" d="M585.27,240.44v59.154H569.4" transform="translate(-481.414 -203.293)"/><path class="q" d="M139.91,380.49V418h23.083" transform="translate(-118.29 -321.701)"/><g class="a" transform="translate(15.579 53.017)"><circle class="r" cx="5.643" cy="5.643" r="5.643"/></g><circle class="s" cx="5.311" cy="5.311" r="5.311" transform="translate(15.911 53.349)"/><path class="d" d="M117.88,362.364l1.992,1.825,2.82-4.149,1,.83-3.817,4.979L117.05,362.7Z" transform="translate(-98.963 -304.412)"/><g class="a" transform="translate(99.098 28.811)"><circle class="r" cx="5.643" cy="5.643" r="5.643"/></g><circle class="s" cx="5.311" cy="5.311" r="5.311" transform="translate(99.431 29.143)"/><path class="d" d="M658.37,205.714l1.992,1.825,2.822-4.149,1,.83-3.817,4.979-2.822-3.154Z" transform="translate(-555.934 -171.968)"/><g class="a" transform="translate(60.144 102.071)"><circle class="r" cx="5.643" cy="5.643" r="5.643"/></g><circle class="s" cx="5.311" cy="5.311" r="5.311" transform="translate(60.476 102.403)"/><path class="d" d="M406.28,679.814l1.992,1.825,2.822-4.149,1,.83-3.817,4.979-2.822-3.152Z" transform="translate(-342.798 -572.808)"/></g></svg>