<svg xmlns="http://www.w3.org/2000/svg" xmlns:xlink="http://www.w3.org/1999/xlink" viewBox="0 0 133.01 156.166"><defs><style>.a{opacity:0.5;}.b{fill:url(#a);}.c{fill:#fff;}.d{fill:#bbb;}.e{fill:#dbdbdb;}.f{fill:#e0e0e0;}.g{fill:#f5f5f5;}.h{fill:#6c63ff;}.i{fill:#333;}.j{opacity:0.1;}.k{fill:#fda57d;}.l{fill:url(#b);}.m{fill:#fafafa;}.n{fill:url(#c);}.o{fill:#eee;}</style><linearGradient id="a" x1="0.143" y1="1.023" x2="0.921" y2="-0.014" gradientUnits="objectBoundingBox"><stop offset="0" stop-color="gray" stop-opacity="0.251"/><stop offset="0.54" stop-color="gray" stop-opacity="0.122"/><stop offset="1" stop-color="gray" stop-opacity="0.102"/></linearGradient><linearGradient id="b" x1="0.144" y1="1.024" x2="0.919" y2="-0.013" xlink:href="#a"/><linearGradient id="c" x1="0.5" y1="1" x2="0.5" y2="0" xlink:href="#a"/></defs><g transform="translate(0 0.04)"><g class="a" transform="translate(0 -0.04)"><path class="b" d="M343.541,60.78l-72.564.176A2.983,2.983,0,0,0,268,63.943l.331,133.757a2.983,2.983,0,0,0,2.991,2.975l72.564-.176a2.983,2.983,0,0,0,2.975-2.989l-.337-133.757A2.983,2.983,0,0,0,343.541,60.78Z" transform="translate(-268 -60.66)"/><rect class="c" width="76.408" height="137.917" rx="13.64" transform="translate(1.059 0.186) rotate(-0.14)"/><path class="d" d="M355.582,112.295h0l-.076-31.85A2.9,2.9,0,0,0,352.6,77.55l-14.192.034a6.194,6.194,0,0,1-6.092,5.284l-26.392.064a6.194,6.194,0,0,1-6.118-5.254l-13.98.034a2.9,2.9,0,0,0-2.895,2.909l.078,32.119.226,93.079a2.9,2.9,0,0,0,2.915,2.889l66.773-.162a2.9,2.9,0,0,0,2.887-2.9Z" transform="translate(-279.939 -74.071)"/><rect class="e" width="17.027" height="1.064" rx="0.532" transform="translate(30.065 5.337) rotate(-0.86)"/><circle class="e" cx="0.639" cy="0.639" r="0.639" transform="translate(50.066 4.823) rotate(-0.86)"/><rect class="f" width="35.574" height="2.836" transform="translate(33.272 20.745)"/><rect class="f" width="35.574" height="2.836" transform="translate(33.272 26.418)"/><ellipse class="g" cx="6.719" cy="6.751" rx="6.719" ry="6.751" transform="translate(8.924 17.079)"/><path class="h" d="M331.615,202.73h-5.827a1.737,1.737,0,0,0-1.418.753,8.74,8.74,0,0,0,8.614.048A1.735,1.735,0,0,0,331.615,202.73Z" transform="translate(-313.078 -174.175)"/><path class="i" d="M326.42,180s-.853,2.484-1.32,2.252c0,0,4.5,3.882,8.463,0A11.832,11.832,0,0,0,331.855,180Z" transform="translate(-313.662 -155.998)"/><circle class="i" cx="3.339" cy="3.339" r="3.339" transform="translate(12.299 20.43)"/><path class="j" d="M72.17,136.73H74.5v.905a1.07,1.07,0,0,1-1.07,1.07h-.2a1.07,1.07,0,0,1-1.07-1.07v-.905Z" transform="translate(-57.705 -109.333)"/><path class="k" d="M72.456,136.45h1.839a.246.246,0,0,1,.246.246v.665a1.07,1.07,0,0,1-1.07,1.07h-.2a1.07,1.07,0,0,1-1.062-1.07V136.7a.246.246,0,0,1,.246-.252Z" transform="translate(-57.745 -109.109)"/><path class="j" d="M340.24,197.27a3.351,3.351,0,0,0,2.33,0V197h-2.33Z" transform="translate(-325.769 -169.593)"/><circle class="k" cx="3.339" cy="3.339" r="3.339" transform="translate(12.299 21.155)"/><path class="i" d="M330.14,166.5h6.366s-.543-2.57-2.951-2.4A4.317,4.317,0,0,0,330.14,166.5Z" transform="translate(-317.692 -143.276)"/><ellipse class="k" cx="0.31" cy="0.583" rx="0.31" ry="0.583" transform="translate(12.059 23.769)"/><ellipse class="k" cx="0.31" cy="0.583" rx="0.31" ry="0.583" transform="translate(18.581 23.769)"/><path class="j" d="M330.14,166.943h6.366s-.543-2.57-2.951-2.4A4.317,4.317,0,0,0,330.14,166.943Z" transform="translate(-317.692 -143.628)"/><rect class="f" width="35.574" height="2.836" transform="translate(33.272 42.351)"/><rect class="f" width="35.574" height="2.836" transform="translate(33.272 48.024)"/><ellipse class="f" cx="6.719" cy="6.751" rx="6.719" ry="6.751" transform="translate(8.924 38.685)"/><rect class="f" width="35.574" height="2.836" transform="translate(33.272 63.957)"/><rect class="f" width="35.574" height="2.836" transform="translate(33.272 69.63)"/><ellipse class="f" cx="6.719" cy="6.751" rx="6.719" ry="6.751" transform="translate(8.924 60.291)"/><rect class="f" width="35.574" height="2.836" transform="translate(33.272 85.563)"/><rect class="f" width="35.574" height="2.836" transform="translate(33.272 91.236)"/><ellipse class="f" cx="6.719" cy="6.751" rx="6.719" ry="6.751" transform="translate(8.924 81.897)"/><rect class="f" width="35.574" height="2.836" transform="translate(33.272 107.169)"/><rect class="f" width="35.574" height="2.836" transform="translate(33.272 112.842)"/><ellipse class="f" cx="6.719" cy="6.751" rx="6.719" ry="6.751" transform="translate(8.924 103.503)"/></g><path class="l" d="M576.691,144.67l-72.566.176a2.983,2.983,0,0,0-2.975,2.989l.331,133.1a2.983,2.983,0,0,0,2.991,2.975l72.568-.176a2.983,2.983,0,0,0,2.971-2.985l-.331-133.1A2.983,2.983,0,0,0,576.691,144.67Z" transform="translate(-454.446 -127.785)"/><rect class="c" width="76.408" height="137.917" rx="13.64" transform="translate(47.762 16.297) rotate(-0.14)"/><path class="m" d="M588.724,193.1l-.076-32.077a2.9,2.9,0,0,0-2.909-2.895l-14.2.034a6.194,6.194,0,0,1-6.092,5.284l-26.39.064a6.194,6.194,0,0,1-6.118-5.254l-13.98.034a2.9,2.9,0,0,0-2.895,2.909l.078,32.119" transform="translate(-466.378 -138.549)"/><path class="m" d="M516.46,332.035l.226,93.079a2.9,2.9,0,0,0,2.909,2.895l66.773-.162a2.9,2.9,0,0,0,2.895-2.909l-.228-93.347" transform="translate(-466.69 -277.262)"/><rect class="f" width="14.186" height="14.186" transform="translate(56.189 32.926)"/><g class="a" transform="translate(39.336 58.897)"><rect class="n" width="93.674" height="31.864"/></g><rect class="c" width="91.444" height="29.462" transform="translate(40.452 60.207)"/><rect class="h" width="35.574" height="2.836" transform="translate(76.921 71.118)"/><rect class="h" width="35.574" height="2.836" transform="translate(76.921 76.793)"/><rect class="f" width="35.574" height="2.836" transform="translate(76.921 102.546)"/><rect class="o" width="35.574" height="2.836" transform="translate(76.921 108.219)"/><rect class="h" width="15.931" height="5.02" transform="translate(86.743 44.274)"/><ellipse class="g" cx="6.719" cy="6.751" rx="6.719" ry="6.751" transform="translate(52.573 67.453)"/><path class="h" d="M549.507,454.4h-5.829a1.737,1.737,0,0,0-1.418.753,8.74,8.74,0,0,0,8.614.048A1.735,1.735,0,0,0,549.507,454.4Z" transform="translate(-487.321 -375.471)"/><path class="i" d="M544.32,431.68s-.853,2.484-1.32,2.252c0,0,4.5,3.882,8.463,0a11.833,11.833,0,0,0-1.709-2.252Z" transform="translate(-487.913 -357.302)"/><circle class="i" cx="3.339" cy="3.339" r="3.339" transform="translate(55.948 70.806)"/><path class="j" d="M290.07,388.41h2.33v.905a1.07,1.07,0,0,1-1.07,1.07h-.2a1.07,1.07,0,0,1-1.07-1.07v-.905Z" transform="translate(-231.956 -310.637)"/><path class="k" d="M290.316,388.13h1.839a.246.246,0,0,1,.246.246v.659a1.07,1.07,0,0,1-1.072,1.072h-.2a1.07,1.07,0,0,1-1.07-1.07v-.659a.246.246,0,0,1,.246-.246Z" transform="translate(-231.956 -310.413)"/><path class="j" d="M558.13,448.856a3.351,3.351,0,0,0,2.33,0v-.286h-2.33Z" transform="translate(-500.012 -370.809)"/><circle class="k" cx="3.339" cy="3.339" r="3.339" transform="translate(55.948 71.529)"/><path class="i" d="M548,418.183h6.366s-.543-2.57-2.951-2.4A4.317,4.317,0,0,0,548,418.183Z" transform="translate(-491.912 -344.581)"/><ellipse class="k" cx="0.31" cy="0.583" rx="0.31" ry="0.583" transform="translate(55.708 74.143)"/><ellipse class="k" cx="0.31" cy="0.583" rx="0.31" ry="0.583" transform="translate(62.228 74.143)"/><path class="j" d="M548,418.613h6.366s-.543-2.57-2.951-2.4A4.317,4.317,0,0,0,548,418.613Z" transform="translate(-491.912 -344.924)"/><ellipse class="f" cx="6.719" cy="6.751" rx="6.719" ry="6.751" transform="translate(56.938 99.098)"/><ellipse class="f" cx="6.719" cy="6.751" rx="6.719" ry="6.751" transform="translate(56.938 125.069)"/><rect class="f" width="35.574" height="2.836" transform="translate(76.921 127.643)"/><rect class="o" width="35.574" height="2.836" transform="translate(76.921 133.316)"/><rect class="f" width="35.574" height="2.836" transform="translate(76.921 32.926)"/><rect class="f" width="35.574" height="2.836" transform="translate(76.921 38.601)"/><rect class="e" width="17.027" height="1.064" rx="0.532" transform="translate(76.767 21.449) rotate(-0.86)"/><circle class="e" cx="0.639" cy="0.639" r="0.639" transform="translate(96.769 20.937) rotate(-0.86)"/></g></svg>