<svg xmlns="http://www.w3.org/2000/svg" viewBox="0 0 133.165 98.655"><defs><style>.a{fill:#ff5252;}.b{fill:#6c63ff;}.c{opacity:0.1;}.d{fill:#464353;}</style></defs><circle class="a" cx="11.468" cy="11.468" r="11.468" transform="translate(91.142 0)"/><rect class="b" width="94.111" height="73.85" transform="translate(19.6 19.373)"/><rect class="c" width="94.111" height="73.85" transform="translate(19.6 19.373)"/><rect class="d" width="133.165" height="64.16" transform="translate(0 29.503)"/><rect class="b" width="77.814" height="86.917" transform="translate(27.749 11.738)"/><rect class="b" width="16.444" height="10.571" transform="translate(5.432 38.166)"/><rect class="b" width="16.444" height="10.571" transform="translate(5.432 56.077)"/><rect class="b" width="16.444" height="10.571" transform="translate(5.432 73.989)"/><rect class="d" width="16.444" height="10.571" transform="translate(37.732 20.254)"/><rect class="d" width="16.444" height="10.571" transform="translate(37.732 38.166)"/><rect class="d" width="16.444" height="10.571" transform="translate(37.732 56.077)"/><rect class="d" width="16.444" height="10.571" transform="translate(95.579 30.825) rotate(180)"/><rect class="d" width="16.444" height="10.571" transform="translate(95.579 48.737) rotate(180)"/><rect class="d" width="16.444" height="10.571" transform="translate(95.579 66.648) rotate(180)"/><rect class="b" width="16.444" height="10.571" transform="translate(110.114 38.166)"/><rect class="b" width="16.444" height="10.571" transform="translate(110.114 56.077)"/><rect class="b" width="16.444" height="10.571" transform="translate(110.114 73.989)"/><rect class="d" width="14.388" height="28.189" transform="translate(59.462 70.466)"/><rect class="c" width="16.444" height="3.23" transform="translate(37.732 20.254)"/><rect class="c" width="16.444" height="3.23" transform="translate(79.135 20.254)"/><rect class="c" width="16.444" height="3.23" transform="translate(79.135 38.166)"/><rect class="c" width="16.444" height="3.23" transform="translate(79.135 56.077)"/><rect class="c" width="16.444" height="3.23" transform="translate(37.732 38.166)"/><rect class="c" width="16.444" height="3.23" transform="translate(37.732 56.077)"/><rect class="c" width="16.444" height="2.496" transform="translate(5.432 38.166)"/><rect class="c" width="16.444" height="2.496" transform="translate(5.432 56.077)"/><rect class="c" width="16.444" height="2.496" transform="translate(5.432 73.989)"/><rect class="c" width="16.444" height="2.496" transform="translate(110.114 38.166)"/><rect class="c" width="16.444" height="2.496" transform="translate(110.114 56.077)"/><rect class="c" width="16.444" height="2.496" transform="translate(110.114 73.989)"/></svg>