<svg xmlns="http://www.w3.org/2000/svg" xmlns:xlink="http://www.w3.org/1999/xlink" viewBox="0 0 610.932 413.723"><defs><style>.a,.b,.e{fill:#6c63ff;}.a,.h,.r{opacity:0.1;}.c{fill:#444053;}.d{fill:#fff;}.e,.l{opacity:0.2;}.f{fill:url(#a);}.g{fill:#65617d;}.i{fill:#fbbebe;}.j{fill:#3f3d56;}.k{fill:#e7effd;}.m{fill:url(#b);}.n{fill:#be6f72;}.o{fill:#f3f5f9;}.p{fill:#67647e;}.q{fill:none;}.s{fill:url(#c);}.t{opacity:0.05;}.u{fill:#ee8e9e;}.v{fill:#e3e8f4;}.w{fill:#e6e8ec;}.x{fill:#565387;}</style><linearGradient id="a" x1="0.501" y1="1" x2="0.501" gradientUnits="objectBoundingBox"><stop offset="0" stop-color="gray" stop-opacity="0.251"/><stop offset="0.54" stop-color="gray" stop-opacity="0.122"/><stop offset="1" stop-color="gray" stop-opacity="0.102"/></linearGradient><linearGradient id="b" x1="-4.618" y1="1" x2="-4.618" y2="0" xlink:href="#a"/><linearGradient id="c" x1="0.5" y1="1" x2="0.5" y2="0" xlink:href="#a"/></defs><g transform="translate(0.01 -0.04)"><path class="a" d="M638.922,309.037c0-37.964-16.053-71.5-40.586-91.66q.507-5.751.534-11.669c0-61.643-42.316-111.612-94.523-111.612a83.115,83.115,0,0,0-45.878,14.018c-36.949-28.3-85.188-45.435-137.96-45.435-85.866,0-159.727,45.355-192.5,110.394-1.821-.123-3.653-.192-5.5-.192-52.2,0-94.523,49.969-94.523,111.612a125.9,125.9,0,0,0,15.551,61.349h0a100.4,100.4,0,0,0,100.4,100.4H546.13A78.844,78.844,0,0,0,624.973,367.4h0A126.472,126.472,0,0,0,638.922,309.037Z" transform="translate(-28 -62.64)"/><path class="b" d="M668.118,725.214s-6.563-4.331-13.068-1.25c0,0,2,3.861,10.237,3.493Z" transform="translate(-320.193 -370.265)"/><path class="b" d="M677.2,727.7s2,7.61-3.012,12.779c0,0-3.012-3.135,0-10.814Z" transform="translate(-328.489 -372.521)"/><path class="b" d="M683.186,709.849s-.481-6.467-15.086-4.32c0,0-.069,4.171,5.057,6.152S680.628,711.985,683.186,709.849Z" transform="translate(-326.274 -361.987)"/><path class="b" d="M694.265,714s6.173,1.987.668,15.679c0,0-4.075-.908-4.806-6.355S691.595,715.96,694.265,714Z" transform="translate(-336.471 -366.138)"/><path class="b" d="M701.208,688.37s.833-10.643-14.088-9.548c0,0-1.068,9.613,11.455,12.106Z" transform="translate(-335.126 -349.708)"/><path class="b" d="M717.2,666.3s-2.045-12.058-16.966-8.464c0,0-.053,10.424,14.531,11.337Z" transform="translate(-341.246 -339.655)"/><path class="b" d="M729.595,643.245s-3.423-11.749-18.2-8.229c0,0,3.519,10.563,17.228,10.4Z" transform="translate(-346.446 -329.027)"/><path class="b" d="M742.933,620.249s-3.354-12.2-17.623-8.544c0,0,4.758,11.583,16.678,10.606Z" transform="translate(-352.932 -318.153)"/><path class="b" d="M752.712,596.169s-2.574-14.915-15.882-11.615c0,0,3.866,13.564,14.9,13.783Z" transform="translate(-358.3 -305.597)"/><path class="b" d="M759.875,570.632s-3.092-15.028-16.555-10.681c0,0,5.282,14.205,15.6,12.737Z" transform="translate(-361.325 -293.987)"/><path class="b" d="M765.756,543.615s-4.908-15.028-15.316-14.622c0,0,5.015,15.871,14.419,17.623Z" transform="translate(-364.642 -279.926)"/><path class="b" d="M770.11,518.066s-5.34-18.093-13.81-16.694c0,0,3.7,13.826,13.511,19.513Z" transform="translate(-367.373 -267.023)"/><path class="b" d="M772.241,490.744s-5-15.076-13.351-15.674c0,0,3.407,14.83,13.185,19.593Z" transform="translate(-368.58 -254.803)"/><path class="b" d="M775.539,464.623S769.3,449.532,763.79,449.19c0,0,2.713,14.862,11.215,17.911Z" transform="translate(-370.863 -242.743)"/><path class="b" d="M778.922,438.081s-3.84-16.389-9.361-17.751c0,0,.758,13.409,8.806,18.979Z" transform="translate(-373.552 -229.295)"/><path class="b" d="M783.568,408.354s-4.048-13.078-8.518-15.054c0,0,.881,15.4,7.476,18.248Z" transform="translate(-376.11 -216.7)"/><path class="b" d="M791.281,380.308l.812-23.038s-8.341,17.388-1.426,27.1Z" transform="translate(-382.109 -199.911)"/><path class="b" d="M803.453,342.046s6.018-16.822,7.476-17.756c0,0-11.8,10.91-10.648,24.95Z" transform="translate(-387.83 -184.543)"/><path class="b" d="M712.169,696.59s10.584-1.4,10.269,13.554c0,0-9.564,1.559-12.688-10.809Z" transform="translate(-345.682 -358.009)"/><path class="b" d="M730.805,673.52s12.229-.043,11.215,15.268c0,0-10.264,1.837-13.65-12.379Z" transform="translate(-354.358 -347.275)"/><path class="b" d="M744.853,652s11.1-5.207,18.2,8.229c0,0-10.253,4.342-19.187-6.061Z" transform="translate(-361.581 -336.786)"/><path class="b" d="M757.95,627.5s11.369-5.543,18.045,7.589c0,0-11.845,4.075-18.985-5.516Z" transform="translate(-367.704 -325.288)"/><path class="b" d="M765.862,603.3s10.942-10.451,19.674.118c0,0-11.177,8.6-20.176,2.211Z" transform="translate(-371.595 -312.405)"/><path class="b" d="M772.815,575.984s11.006-10.681,19.668.5c0,0-12.357,8.769-20.063,1.752Z" transform="translate(-374.884 -299.681)"/><path class="b" d="M777,546.156s8.48-13.351,18.467-10.365c0,0-8.8,14.13-18.371,13.5Z" transform="translate(-377.019 -282.894)"/><path class="b" d="M781.5,520.135s8.544-16.817,16.63-13.885c0,0-6.163,12.918-16.849,16.72Z" transform="translate(-379.013 -269.172)"/><path class="b" d="M782.049,492.561s8.79-13.239,17.014-11.62c0,0-7.177,13.42-17.863,15.449Z" transform="translate(-378.976 -257.474)"/><path class="b" d="M784.05,464.469s6.809-14.846,12.341-14.979c0,0-3.268,14.75-11.882,17.473Z" transform="translate(-380.304 -242.883)"/><path class="b" d="M786.58,439.85s7.567-15.038,13.249-15.07c0,0-3.872,12.859-13,16.395Z" transform="translate(-381.483 -231.369)"/><path class="b" d="M788.71,411.1s5.661-12.448,10.344-13.885c0,0-2.83,15.166-9.725,17.158Z" transform="translate(-382.475 -218.527)"/><path class="b" d="M793.858,382.783l12.651-19.273s-3.242,19.011-14.5,22.963Z" transform="translate(-384.013 -202.819)"/><path class="b" d="M806.385,350.156s14.7-10.147,15.236-11.786c0,0-7.476,14.216-21.361,16.726Z" transform="translate(-387.857 -191.104)"/><path class="b" d="M813.026,337.753s16.881-16.229,21.19-16.213c0,0-13.922.641-21.6,15.348Z" transform="translate(-393.616 -183.262)"/><path class="c" d="M789,391.23l.62.075c3.172-24.827,7.8-39.518,13.02-41.318l-.2-.587C796.9,351.323,792.258,365.789,789,391.23Z" transform="translate(-382.61 -196.244)"/><path class="c" d="M780.28,485.49l.929.08c.2-2.323.347-4.694.449-7.055.886-20.555,2.259-39.422,4.064-53.574l-.534-.662c-1.81,14.173-3.567,33.644-4.454,54.193C780.627,480.823,780.478,483.183,780.28,485.49Z" transform="translate(-378.547 -231.136)"/><path class="c" d="M646.622,649.742c.16-.069,16.517-7.375,33.494-24.795A134.692,134.692,0,0,0,704.6,590.236c7.85-15.978,12.635-35.625,14.237-54.706l-.967.459c-3.6,42.824-23.1,72.094-38.6,88.029-16.811,17.27-32.987,24.5-33.147,24.565Z" transform="translate(-316.032 -282.975)"/><path class="d" d="M574.7,162.027v52.431c0,2.766-2.67,5.02-5.965,5.02H442.5c-3.295,0-5.965-2.254-5.965-5.02V162.027a6.009,6.009,0,0,1,5.965-5.6H568.739A6.005,6.005,0,0,1,574.7,162.027Z" transform="translate(-218.369 -106.325)"/><path class="e" d="M574.7,162.394v14.638H436.53V162.4a5.96,5.96,0,0,1,5.965-5.96H568.739a5.954,5.954,0,0,1,5.965,5.954Z" transform="translate(-218.369 -106.33)"/><circle class="d" cx="3.989" cy="3.989" r="3.989" transform="translate(221.75 56.407)"/><circle class="d" cx="3.989" cy="3.989" r="3.989" transform="translate(233.354 56.407)"/><circle class="d" cx="3.989" cy="3.989" r="3.989" transform="translate(244.959 56.407)"/><circle class="e" cx="15.594" cy="15.594" r="15.594" transform="translate(229.942 75.989)"/><rect class="b" width="65.76" height="2.323" transform="translate(278.8 81.089)"/><rect class="e" width="65.76" height="2.323" transform="translate(278.8 86.75)"/><rect class="e" width="65.76" height="2.323" transform="translate(278.8 92.405)"/><rect class="e" width="65.76" height="2.323" transform="translate(278.8 98.061)"/><path class="d" d="M871.015,104.257v93.049c0,2.766-2.67,5.02-5.965,5.02H738.8c-3.295,0-5.965-2.254-5.965-5.02V104.257a6.009,6.009,0,0,1,5.965-5.6H865.05A6.029,6.029,0,0,1,871.015,104.257Z" transform="translate(-356.436 -79.406)"/><path class="e" d="M871.02,104.625v14.627H732.84V104.625a5.965,5.965,0,0,1,5.96-5.965H865.054A5.965,5.965,0,0,1,871.02,104.625Z" transform="translate(-356.441 -79.406)"/><circle class="d" cx="3.989" cy="3.989" r="3.989" transform="translate(379.988 25.556)"/><circle class="d" cx="3.989" cy="3.989" r="3.989" transform="translate(391.592 25.556)"/><circle class="d" cx="3.989" cy="3.989" r="3.989" transform="translate(403.196 25.556)"/><circle class="e" cx="15.594" cy="15.594" r="15.594" transform="translate(388.18 45.139)"/><rect class="b" width="65.76" height="2.323" transform="translate(437.038 50.244)"/><rect class="e" width="65.76" height="2.323" transform="translate(437.038 55.899)"/><rect class="e" width="65.76" height="2.323" transform="translate(437.038 61.555)"/><rect class="e" width="65.76" height="2.323" transform="translate(437.038 67.215)"/><circle class="e" cx="15.594" cy="15.594" r="15.594" transform="translate(388.18 81.623)"/><rect class="b" width="65.76" height="2.323" transform="translate(437.038 86.723)"/><rect class="e" width="65.76" height="2.323" transform="translate(437.038 92.384)"/><rect class="e" width="65.76" height="2.323" transform="translate(437.038 98.039)"/><rect class="e" width="65.76" height="2.323" transform="translate(437.038 103.695)"/><path class="d" d="M396.264,354.173v201.75c0,6-5.789,10.878-12.934,10.878H109.6c-7.145,0-12.934-4.881-12.934-10.878V354.173c0-6.008,5.789-12.133,12.934-12.133H383.33C390.476,342.019,396.264,348.165,396.264,354.173Z" transform="translate(-60.003 -192.814)"/><path class="e" d="M396.269,354.956v31.711H96.68V354.956A12.929,12.929,0,0,1,109.609,342H383.335a12.929,12.929,0,0,1,12.934,12.956Z" transform="translate(-60.008 -192.796)"/><circle class="d" cx="8.646" cy="8.646" r="8.646" transform="translate(44.453 162.902)"/><circle class="d" cx="8.646" cy="8.646" r="8.646" transform="translate(69.616 162.902)"/><circle class="d" cx="8.646" cy="8.646" r="8.646" transform="translate(94.774 162.902)"/><path class="b" d="M388.442,543.286a8.624,8.624,0,0,1,1.175-4.342,12.511,12.511,0,0,1,.748-1.105A57.675,57.675,0,0,0,400.2,505.68c.107-32.837-27.6-59.48-61.862-59.48-29.906,0-54.813,20.336-60.655,47.331a57.288,57.288,0,0,0-1.319,12.181,60.418,60.418,0,0,0,60.906,60.228c5.447,0,12.785-1.639,16.806-2.74s8.01-2.569,9.046-2.958a9.478,9.478,0,0,1,3.316-.6,9.224,9.224,0,0,1,3.594.71l20.2,7.161a4.854,4.854,0,0,0,1.388.352,2.83,2.83,0,0,0,2.846-2.846,4.59,4.59,0,0,0-.176-.961Z" transform="translate(-143.734 -241.35)"/><path class="b" d="M327.148,611.048c-1.282.352-2.921.748-4.7,1.138a65.594,65.594,0,0,1-12.112,1.6,60.4,60.4,0,0,1-60.879-60.228,67.786,67.786,0,0,1,.534-7.621c.214-1.533.465-3.06.817-4.555.358-1.6.785-3.2,1.25-4.774l-2.852,2.526a53.018,53.018,0,0,0-18.4,39.87,52.42,52.42,0,0,0,8.833,29.206c.817,1.25,1.282,2.211,1.137,2.852s-4.235,22.082-4.235,22.082a2.852,2.852,0,0,0,.961,2.74,2.9,2.9,0,0,0,1.816.641,2.508,2.508,0,0,0,1.031-.214l19.983-7.872a5.565,5.565,0,0,1,4.272.075,60,60,0,0,0,21.617,4.272A55.944,55.944,0,0,0,329,613.163s1.143-1.565,2.457-3.418c-1.314.465-2.814.924-4.31,1.319Z" transform="translate(-122.509 -283.479)"/><path class="f" d="M150.994,678.1s-8.358,2.013-11.668,5.8a11.347,11.347,0,0,1-4.454,2.83v-5.725c1.912-3.2,3.845-6.782,3.845-6.782.085-.176.78-2.638.78-2.638,1.57-1.234-.085-5.543-.085-5.543s.956-2.729.438-3.258-.091-1.933.347-2.547a3.2,3.2,0,0,0,.347-1.939c0-.534-.694-1.319-1.826-1.757s.085-1.143.78-1.319.87-1.848.091-2.729.085-1.4.534-2.376-1.388-.79-1.388-.79v-8.881h0s-.534-2.905-1.068-8.01-2.526-5.629-2.526-5.629A22.629,22.629,0,0,1,132,625.583a21.7,21.7,0,0,0-3.311-1.228,16.906,16.906,0,0,1-4.272-.593,13.161,13.161,0,0,0-2.916-.63l-.3-.155a11.428,11.428,0,0,1-5.287-5.6c-.053-.117-.1-.24-.15-.358a12.784,12.784,0,0,0,1.394-1.848h0v1.036h0c1.394-2.457,5.42-3.017,5.8-5.816a3.1,3.1,0,0,0,.027-.385h0v-.283c-.053-.785-.32-1.565-.374-2.355a4.8,4.8,0,0,1,0-.678h0c.176-2.173,1.821-4.064,2.569-6.179a7.722,7.722,0,0,0,.4-1.762h0c0-.182.032-.363.037-.534a1.117,1.117,0,0,1,0-.134V597.7a8.245,8.245,0,0,0-2.718-5.949c-1.388-1.207-3.2-1.965-4.187-3.541-.449-.732-.668-1.6-1.159-2.307a5.8,5.8,0,0,0-4.208-2.067,24.21,24.21,0,0,1-4.78-.635c-1.068-.352-2.072-.983-3.167-1.3a6.056,6.056,0,0,0-6.51,2.35,11.411,11.411,0,0,1-1.736,2.51c-1.6,1.346-4.3.764-5.7,2.318a4.129,4.129,0,0,0-.764,3.2v.588c.048.427.112.849.166,1.26v.187c0,.059.032.256.043.385a2.383,2.383,0,0,1,0,.278v.619a18.691,18.691,0,0,1-2,9.378c-1.314,2.59-3.274,4.972-3.615,7.861a7.957,7.957,0,0,0-.037,1.426c0,.053,0,.112,0,.166v.256l.032.294v.171c0,.059.037.256.059.39v.08c.347,1.971,1.132,3.914,1.549,5.874a16.346,16.346,0,0,1,.31,2.221h0a5.349,5.349,0,0,0,.032.716c.032.24,0,.646,0,.967a16.108,16.108,0,0,1-2.035.625c-1.218.176-4.806,3.343-4.529,4.133s-1.6,6.344-1.65,6.5h0l-2.937,20.234s-1.554,1.5-1.068,2.462a4.263,4.263,0,0,1-.091,2.638s-2.622,1.143-2.04,1.848.315,2.024-.085,2.905-1.068,2.462,0,2.724.182,3.7.182,3.7,3.674-.422,3.407,1.762c-.085.694,2.569,2.606,3.679,3.37v10.51a31.86,31.86,0,0,1-4.358-1.479c-2.264-1.068-14.979-3.076-17.767,2.991s3.834,14.162,5.49,15.044a11.377,11.377,0,0,1,1.912,1.848c.352.614,2.355.79,2.355.79a15.1,15.1,0,0,1,2.611,1.5c.384.39,3.567,1.4,7.348,2.19h0s-3.044,7.017,1.928,6.44,7.4-3.028,10.9-3.028c1.4,0,4-.192,6.622-.427a16.972,16.972,0,0,1,1.949.459,25.218,25.218,0,0,0,4.529.967s3.92,2.136,6.008,1.6a1.372,1.372,0,0,0,.475-.251h.048a2.814,2.814,0,0,0,1.26-1.068,38.846,38.846,0,0,1,6.718,1.068c2.168.838,17.66-.32,17.66-.32s10.013.2,12.881,1.068,1.848-8.854-3.444-9.949a21.313,21.313,0,0,0-4.3-.379,9.927,9.927,0,0,0,1-1.218c1.906-.176,3.161-.283,3.161-.283s5.052-2.462,7.925-3.957a18.157,18.157,0,0,0,4.881-3.872s2.526-1.6,3.567-2.195,1.57-2.67,1.57-2.67C171.116,675.728,150.994,678.1,150.994,678.1Zm-22.68-22.515V654.7C128.591,654.906,128.554,655.221,128.314,655.59Zm.08,6.221c.214.278.417.534.566.721.534.721-.459,1.068-.385,2.286,0,.272.043.646.064,1.068h0c-.107-1.736-.192-3.177-.246-4.075Z" transform="translate(-41.641 -304.486)"/><path class="g" d="M83.232,780.781a51.309,51.309,0,0,1-7.145-2.179c-2.264-1.047-14.979-3.049-17.767,2.964s3.834,14.024,5.49,14.894,17.767-11.065,17.767-11.065l12.715,5.34,2.441-8.32Z" transform="translate(-41.818 -395.691)"/><rect class="g" width="55.336" height="19.252" rx="9.626" transform="translate(46.792 386.74)"/><path class="h" d="M170.964,796.419a9.613,9.613,0,0,1-9.612,9.613h-36.1a9.626,9.626,0,0,1,0-19.252h36.084a9.613,9.613,0,0,1,9.612,9.612Z" transform="translate(-68.836 -400.051)"/><path class="i" d="M130.8,805.88a45.991,45.991,0,0,1-10.077,1.362c-4.529-.064-25.708,8.737-25.708,8.737s-3.044,6.942,1.928,6.376,7.4-3,10.9-3,14.536-1.212,14.536-1.212l10.643-7.845Z" transform="translate(-58.802 -408.951)"/><path class="i" d="M146.53,661.388l-9.949,1.965-.646.128s-7.872-2.093-8.133-2.27-7.4-9.8-7.4-9.8a14.33,14.33,0,0,0,6.451-1.6,3.422,3.422,0,0,0,.3-.182,6.275,6.275,0,0,0,2.67-3.284c.048-.144.1-.294.139-.449a8.886,8.886,0,0,0-.085-4.272c-.961-4.059,1.266-5.175,4.24-5.079,4.272.139,10.147,2.82,10.147,2.82a11.877,11.877,0,0,0,.919,3.968c.048.123.1.24.15.358a11.359,11.359,0,0,0,5.287,5.543l.315.155a10.586,10.586,0,0,0,1,.427C159.512,652.678,146.53,661.388,146.53,661.388Z" transform="translate(-71.061 -330.043)"/><path class="h" d="M153.426,643.67a12.544,12.544,0,0,1-15.487,2.67,8.438,8.438,0,0,0,.053-4.737c-2.35-9.928,14.371-2.259,14.371-2.259a12.127,12.127,0,0,0,1.063,4.326Z" transform="translate(-79.153 -330.033)"/><path class="i" d="M151.109,622.421a12.544,12.544,0,0,1-11.781,12.518h-.758a12.544,12.544,0,1,1,12.539-12.518Z" transform="translate(-73.679 -317.607)"/><path class="h" d="M146.53,672.469l-9.949,1.965-.646.128s-7.872-2.093-8.133-2.27-7.4-9.8-7.4-9.8a14.33,14.33,0,0,0,6.451-1.6,3.423,3.423,0,0,0,.3-.182,11.7,11.7,0,0,0,8.491,3.738,12.249,12.249,0,0,0,1.773-.144c1.4-.214,2.809-.352,4.219-.5,2.7-.283,6.825-1.1,8.988-3.487l.315.155a10.6,10.6,0,0,0,1,.427C159.512,663.759,146.53,672.469,146.53,672.469Z" transform="translate(-71.061 -341.124)"/><path class="b" d="M147.51,698.031c.085,1.917,1.479,23.5,1.479,23.5H105.525l.294-13.6.235-10.878.08-3.567.347-12.368-1.255-1.079L98.38,674h0c.053-.166,1.906-5.671,1.65-6.446s3.311-3.92,4.529-4.091a16.137,16.137,0,0,0,2.045-.625c2.056-.721,4.806-1.784,5.1-1.6.427.23,4.7-.166,4.881-.187h0a11.642,11.642,0,0,0,8.8,4.032,11.513,11.513,0,0,0,1.773-.139c1.4-.214,2.809-.352,4.219-.5,2.83-.3,7.236-1.186,9.3-3.856a13.287,13.287,0,0,1,2.916.625,17.056,17.056,0,0,0,4.272.587,21.733,21.733,0,0,1,3.311,1.218,23.032,23.032,0,0,0,3.135,1.218s2,.534,2.526,5.575,1.068,7.93,1.068,7.93l-10.365,8.972S147.42,696.113,147.51,698.031Z" transform="translate(-60.8 -341.25)"/><path class="i" d="M69.015,689.812l1.522,2.44,5.709,2.013,3.92-7.151-3.615-2.44-5.794-2.264-3.306,1.917Z" transform="translate(-31.435 -317.966)"/><path class="g" d="M188.88,772.524s8.1-.614,11.412-4.358,11.668-5.746,11.668-5.746,20.122-2.355,12.2,15.417c0,0-.534,2-1.57,2.611s-3.567,2.179-3.567,2.179l-30.92-2.7Z" transform="translate(-102.607 -388.652)"/><path class="h" d="M190.986,798.591a9.613,9.613,0,0,1-1.6,5.34c-5.2.465-16.72,1.549-19.129,2.216-2.964.822-8.956-.609-9.612-.769h-.059s-1.154-3.5-1.7-5.746c-.251-1.015-.374-1.773-.214-1.832.534-.171,5.34-1.479,5.228-.742s14.371-5.618,14.371-5.618l.443,5.575C180.172,798.681,190.986,796.172,190.986,798.591Z" transform="translate(-88.858 -402.223)"/><path class="g" d="M206.336,794.153l-.609,2.264a18.1,18.1,0,0,1-4.881,3.829c-2.873,1.485-7.925,3.92-7.925,3.92s-18.552,1.57-21.692,2.441-9.666-.764-9.666-.764-2.441-7.4-1.917-7.578,5.314-1.479,5.228-.737,14.371-5.618,14.371-5.618Z" transform="translate(-89.314 -402.442)"/><path class="i" d="M150.41,825.33s9.121.641,11.289,1.469,17.66-.32,17.66-.32,10.013.2,12.881,1.068,1.848-8.769-3.444-9.853-12.753.534-12.753.534l-9.436-1.266c-1.02-.128-7.743.064-7.743.064Z" transform="translate(-85.044 -414.094)"/><path class="h" d="M83.31,787.66s12.053,1.068,15.364,3.06Z" transform="translate(-53.778 -400.461)"/><path class="h" d="M212.622,772.85s-9.436,2.3-13.132,5.677Z" transform="translate(-107.914 -393.56)"/><path class="h" d="M84.62,782.52c.192.064,5.549.769,5.42,1.276S84.62,782.52,84.62,782.52Z" transform="translate(-54.388 -398.066)"/><path class="h" d="M68.86,802.979l.694,2.611a11.1,11.1,0,0,1,1.917,1.832c.347.614,2.355.78,2.355.78a14.872,14.872,0,0,1,2.611,1.485c.523.523,6.184,2.174,11.5,2.873s15.156,2,17.249,2.67a24.982,24.982,0,0,0,4.529.961s3.92,2.088,6.008,1.565,5.661-10.013,5.661-10.013-13.762-3.2-14.194-4.272S93.5,797.58,93.5,797.58l-7.84.187Z" transform="translate(-47.044 -405.084)"/><path class="g" d="M67.88,799.587l.7,2.611a11.244,11.244,0,0,1,1.912,1.826c.352.614,2.355.785,2.355.785a14.876,14.876,0,0,1,2.611,1.485c.523.523,6.184,2.174,11.5,2.873s15.156,2,17.249,2.67a24.971,24.971,0,0,0,4.529.961s3.92,2.088,6.008,1.565,5.666-10.013,5.666-10.013-13.767-3.2-14.2-4.272-19.86-8.972-19.86-8.972l-6.12-1.367Z" transform="translate(-46.588 -401.43)"/><path class="b" d="M93.97,684.05l-1.522.87-2.937,20.037s-1.554,1.479-1.068,2.435a4.2,4.2,0,0,1-.091,2.617s-2.622,1.132-2.04,1.826.315,2-.085,2.873-1.068,2.441,0,2.7.182,3.658.182,3.658,3.674-.417,3.407,1.741c-.112.87,4.155,3.658,4.155,3.658s-4.849-8.8,6.013-7.578l.935-4.956s.935-2.793,0-3.663.214-5.009.214-5.009l.2-17.986Z" transform="translate(-54.868 -352.182)"/><path class="h" d="M96.8,732.5c.192.315,6.056.967,6.44,2.013S96.8,732.5,96.8,732.5Z" transform="translate(-60.064 -374.758)"/><path class="h" d="M93.34,739.983s.8-2.489,2.67-2.04S93.34,739.983,93.34,739.983Z" transform="translate(-58.451 -377.269)"/><path class="h" d="M91.43,745.928s1.4-3.311,3.316-3.06S91.43,745.928,91.43,745.928Z" transform="translate(-57.561 -379.583)"/><path class="i" d="M196.107,744.906l-.609,3.658s-6.3,11.5-7.407,11.674-7.316-7.669-7.316-7.669l-1.655-7.663,6.515-1.234,2.894-2.862S195.846,741.51,196.107,744.906Z" transform="translate(-98.423 -378.63)"/><path class="b" d="M197.315,688.272l2.355,1.655v8.8s1.826-.176,1.388.785-1.3,1.479-.534,2.35.609,2.526-.091,2.7-1.917.87-.78,1.3,1.826,1.223,1.826,1.746a3.14,3.14,0,0,1-.347,1.912c-.438.614-.87,2.008-.347,2.526s-.438,3.2-.438,3.2,1.655,4.272.085,5.49c0,0-.694,2.435-.78,2.611,0,0,1.095-8.48-9.863-4.892l-.278-4.432c-.075-1.2.945-1.549.385-2.259s-1.976-2.355-1.308-2.788.438-1.223.176-1.832-1.186-.609-.352-1.351,1.33-1.437.838-1.784-1.34-1.485-.662-2,.7-8.1.7-8.1S192.087,682.782,197.315,688.272Z" transform="translate(-102.594 -353.44)"/><path class="h" d="M203.31,717.308s3.348-.908,3.46,0S203.31,717.308,203.31,717.308Z" transform="translate(-109.694 -367.491)"/><path class="h" d="M196.26,721.83s4.593-1.148,5.164-.256S196.26,721.83,196.26,721.83Z" transform="translate(-106.409 -369.509)"/><path class="h" d="M194.35,726.6s6.889-.956,7.332.449S194.35,726.6,194.35,726.6Z" transform="translate(-105.519 -371.862)"/><path class="h" d="M196.26,732.5c.256.059,6.633.534,6.761,1.72S196.26,732.5,196.26,732.5Z" transform="translate(-106.409 -374.758)"/><rect class="j" width="54.604" height="31.016" rx="10.47" transform="translate(38.627 361.662)"/><circle class="k" cx="2.013" cy="2.013" r="2.013" transform="translate(63.918 375.156)"/><path class="h" d="M117.47,704.25s5.233,4,9.276.951C126.746,705.185,119.889,705.825,117.47,704.25Z" transform="translate(-69.695 -361.594)"/><path class="h" d="M167.09,706.27s5.233,4,9.281.951C176.371,707.221,169.531,707.84,167.09,706.27Z" transform="translate(-92.817 -362.536)"/><path class="h" d="M141.348,622.5a12.507,12.507,0,0,1-1.9,6.638,19.15,19.15,0,0,0-2.83-9.906c-1.741-2.67-7.028-7.359-10.681-6.051a2.6,2.6,0,0,0-1.6,1.709c-.358,1.367.7,1.939,1.372,3.028a9.287,9.287,0,0,1,1.271,6.259,7.786,7.786,0,0,1-.187.865c-.571,2.136-1.88,4.609-.534,6.371.945,1.228,2.969,1.65,3.247,3.177a1.932,1.932,0,0,1,0,.427c-.064,1.025-.94,1.933-1.319,2.937a4.8,4.8,0,0,0,.267,3.557c.6,1.559,1.57,3.129,1.805,4.769a9.38,9.38,0,0,1-.865,4.715,20.963,20.963,0,0,0-1.442,4.432c-.417,2.894.641,6.243-1.18,8.544a1.25,1.25,0,0,1-.8.534c-1.17.123-.967-1.971-1.906-2.67a8.25,8.25,0,0,1-.251,3.637,2.8,2.8,0,0,1-2.8,1.917c-.139-.913-.278-1.826-.411-2.74a7.974,7.974,0,0,1-2.905,1.816,21.212,21.212,0,0,1,3.028-8.2c-3.065,1.479-4.854,4.673-6.451,7.679-1,1.88-2.024,3.936-1.677,6.034.139.854.534,1.666.587,2.526a2.144,2.144,0,0,1-1.031,2.195,1.875,1.875,0,0,1-2.024-.625l-.085-.107-.139-.192a3.163,3.163,0,0,1-.23-.417,7.84,7.84,0,0,1-.491-1.6l-.059-.235c-.806-3.562-1.538-7.231-.945-10.835a20.246,20.246,0,0,0,.571-3.984,7.316,7.316,0,0,0-.454-2.227c-.71-1.992-2.083-3.824-2.862-5.826a.171.171,0,0,1,0-.048c-.411-1.068-.614-2.387.144-3.242a6.494,6.494,0,0,1,1.453-.983,6.547,6.547,0,0,0,2.473-4.651,15.675,15.675,0,0,0,.192-2.446c2.056-.721,4.806-1.784,5.1-1.6.427.23,4.7-.166,4.881-.187a6.366,6.366,0,0,0,2.991-3.466c.048-.144.1-.294.139-.449A12.544,12.544,0,1,1,141.348,622.5Z" transform="translate(-63.919 -317.681)"/><path class="j" d="M126.8,612.285c-.571,2.136-1.88,4.609-.534,6.371.945,1.228,2.969,1.65,3.247,3.177.214,1.207-.86,2.221-1.292,3.37-1.036,2.734,1.661,5.426,2.067,8.32.449,3.145-1.842,6.008-2.3,9.148-.417,2.894.641,6.243-1.18,8.544a1.276,1.276,0,0,1-.8.534c-1.17.123-.972-1.976-1.906-2.67a8.154,8.154,0,0,1-.251,3.631,2.8,2.8,0,0,1-2.8,1.917l-.411-2.74a7.973,7.973,0,0,1-2.905,1.816,21.238,21.238,0,0,1,3.028-8.2c-3.065,1.479-4.854,4.673-6.451,7.679-1,1.88-2.024,3.936-1.677,6.029.139.86.534,1.671.587,2.531a2.144,2.144,0,0,1-1.031,2.195,1.907,1.907,0,0,1-2.136-.726,5.479,5.479,0,0,1-.86-2.216c-.833-3.631-1.6-7.386-1-11.07a20.246,20.246,0,0,0,.571-3.984c-.107-2.943-2.275-5.34-3.338-8.1-.411-1.068-.609-2.392.15-3.247a6.583,6.583,0,0,1,1.458-.983,6.586,6.586,0,0,0,2.473-4.651,16.133,16.133,0,0,0-.166-5.816c-.614-2.868-2.013-5.661-1.666-8.544s2.3-5.217,3.615-7.781a18.386,18.386,0,0,0,1.869-10.761c-.23-1.714-.625-3.706.534-4.988,1.4-1.538,4.107-.961,5.7-2.3a11.275,11.275,0,0,0,1.736-2.489,6.093,6.093,0,0,1,6.51-2.323c1.095.315,2.083.94,3.167,1.292a24.981,24.981,0,0,0,4.78.625,5.81,5.81,0,0,1,4.208,2.051c.491.7.71,1.559,1.159,2.286.961,1.559,2.8,2.307,4.187,3.5a8.133,8.133,0,0,1,2.286,8.678c-.828,2.312-2.745,4.352-2.585,6.8a14.75,14.75,0,0,1,.358,2.99c-.384,2.777-4.411,3.327-5.8,5.762a19.873,19.873,0,0,0-2.83-11.434c-1.741-2.67-7.028-7.359-10.681-6.056a2.6,2.6,0,0,0-1.6,1.709c-.358,1.367.694,1.938,1.372,3.028A9.217,9.217,0,0,1,126.8,612.285Z" transform="translate(-63.912 -305.452)"/><g class="l" transform="translate(41.19 287.704)"><path d="M111.977,653.4a16.2,16.2,0,0,0-.347-3.738c-.534-2.435-1.6-4.806-1.709-7.268-.139,2.724,1.132,5.34,1.709,8.053a16.021,16.021,0,0,1,.347,2.953Z" transform="translate(-107.362 -620.474)"/><path d="M126.652,699.068c.214-.39.433-.774.668-1.148-3.065,1.474-4.854,4.673-6.451,7.679-.924,1.736-1.869,3.626-1.73,5.565a12.853,12.853,0,0,1,1.73-4.806C122.348,703.6,123.987,700.66,126.652,699.068Z" transform="translate(-111.656 -646.349)"/><path d="M115.765,721.439a1.864,1.864,0,0,1-1.02,1.533,1.912,1.912,0,0,1-2.136-.732,5.564,5.564,0,0,1-.86-2.211,39.587,39.587,0,0,1-1.212-7.909,35.01,35.01,0,0,0,1.212,8.694,5.565,5.565,0,0,0,.86,2.211,1.9,1.9,0,0,0,2.136.726,2.1,2.1,0,0,0,1.036-2.195Z" transform="translate(-107.652 -652.966)"/><path d="M145.078,632.27a8.41,8.41,0,0,1-.283,1.853c-.422,1.6-1.25,3.354-1.1,4.876a26.622,26.622,0,0,1,1.1-4.1A8.742,8.742,0,0,0,145.078,632.27Z" transform="translate(-123.096 -615.758)"/><path d="M120.219,606.231a17.861,17.861,0,0,0-.15-2.777c-.091-.678-.2-1.4-.24-2.1a15.946,15.946,0,0,0,.24,2.889A17.757,17.757,0,0,1,120.219,606.231Z" transform="translate(-111.984 -601.35)"/><path d="M149.541,655.029v-.059a20.62,20.62,0,0,1-1.276,2.643,3.7,3.7,0,0,0-.214,1.7,3.368,3.368,0,0,1,.214-.919C148.681,657.25,149.754,656.236,149.541,655.029Z" transform="translate(-125.124 -626.336)"/><path d="M108.83,690.5c-.107-2.943-2.275-5.34-3.332-8.1a5.207,5.207,0,0,1-.342-1.34,4.459,4.459,0,0,0,.342,2.136c1.068,2.7,3.151,5.073,3.322,7.952C108.83,690.924,108.835,690.71,108.83,690.5Z" transform="translate(-105.139 -638.493)"/><path d="M153.348,619.38c-1.741-2.67-7.033-7.359-10.681-6.056a2.574,2.574,0,0,0-1.6,1.709,1.875,1.875,0,0,0-.032.919.977.977,0,0,1,.032-.134,2.574,2.574,0,0,1,1.6-1.709c3.637-1.3,8.929,3.38,10.681,6.056a19.33,19.33,0,0,1,2.83,10.3A19.761,19.761,0,0,0,153.348,619.38Z" transform="translate(-121.845 -606.825)"/><path d="M175.234,635.447c-.379,2.772-4.4,3.327-5.794,5.746v.8c1.394-2.43,5.42-2.985,5.8-5.762a3.529,3.529,0,0,0,0-.822A.218.218,0,0,1,175.234,635.447Z" transform="translate(-135.101 -617.221)"/><path d="M182.2,615.24c-.828,2.307-2.745,4.347-2.585,6.8v.107c.176-2.136,1.821-4.032,2.569-6.125a7.54,7.54,0,0,0,.427-2.98A7.408,7.408,0,0,1,182.2,615.24Z" transform="translate(-139.837 -606.797)"/><path d="M143.432,705.227a1.266,1.266,0,0,1-.8.534c-1.17.123-.967-1.976-1.906-2.67,0,.278.043.534.059.838.865.753.71,2.745,1.848,2.627a1.265,1.265,0,0,0,.8-.534c1.068-1.308,1.143-2.958,1.116-4.673A6.153,6.153,0,0,1,143.432,705.227Z" transform="translate(-121.723 -647.947)"/><path d="M134.92,709.923a2.76,2.76,0,0,1-2.8,1.917l-.417-2.74a7.951,7.951,0,0,1-2.756,1.762c-.053.278-.107.561-.15.838a7.972,7.972,0,0,0,2.905-1.816l.417,2.74a2.784,2.784,0,0,0,2.8-1.917,6.152,6.152,0,0,0,.326-2.478,5.207,5.207,0,0,1-.326,1.693Z" transform="translate(-116.164 -651.153)"/><path d="M147.9,685.725a13.792,13.792,0,0,0-.107,2.216,10.493,10.493,0,0,1,.107-1.431c.433-3,2.531-5.741,2.344-8.71C150.079,680.475,148.3,683,147.9,685.725Z" transform="translate(-125.012 -636.974)"/></g><path class="d" d="M646.429,263.6v52.431c0,2.766-2.67,5.02-5.965,5.02H514.215c-3.295,0-5.965-2.254-5.965-5.02V263.6a6.01,6.01,0,0,1,5.965-5.6H640.464A6.01,6.01,0,0,1,646.429,263.6Z" transform="translate(-251.788 -153.654)"/><path class="e" d="M646.43,263.965v14.627H508.25V263.965A5.965,5.965,0,0,1,514.215,258H640.464A5.965,5.965,0,0,1,646.43,263.965Z" transform="translate(-251.788 -153.654)"/><circle class="d" cx="3.989" cy="3.989" r="3.989" transform="translate(260.05 110.653)"/><circle class="d" cx="3.989" cy="3.989" r="3.989" transform="translate(271.655 110.653)"/><circle class="d" cx="3.989" cy="3.989" r="3.989" transform="translate(283.259 110.653)"/><circle class="b" cx="15.594" cy="15.594" r="15.594" transform="translate(351.834 130.236)"/><rect class="b" width="65.76" height="2.323" transform="translate(334.163 137.653) rotate(180)"/><rect class="e" width="65.76" height="2.323" transform="translate(334.163 143.314) rotate(180)"/><rect class="e" width="65.76" height="2.323" transform="translate(334.163 148.975) rotate(180)"/><rect class="e" width="65.76" height="2.323" transform="translate(334.163 154.625) rotate(180)"/><path class="m" d="M290.635,327.214c3.679,2.467,9.26,1.292,9.26,1.292s8.422-3.989,10.916-3.989,8.544-2.467,8.544-2.467l-.2-1.661-.6-5.009c3.84,2.991,8.1,1.96,10.2,1.741,2.254-.235,14.3-7.4,15.455-7.866a3.029,3.029,0,0,0,1.068-1.068h0a26.994,26.994,0,0,0,2.035-3.738h0c.758-.662,1.308-1.2,1.266-1.314a8.7,8.7,0,0,1,.742-1.971,9.671,9.671,0,0,0,3.653-1.314,3.2,3.2,0,0,0,1.186-2.585s11.749-11.855,10.205-16.784,3.8-5.047,3.8-5.047,8.192-3.519,9.329-5.634c.7-1.3,6.846-4.149,11.466-6.157l.571-.246c1.794,3.936,10.9.908,12.7-.758,1.9-1.757,7.476-2.579,7.476-2.579s.235-23.006,2.019-25.943c.844-1.388,1.068-5.933,1.025-10.317v-.47c2.494-.486,8.427-1.6,11.183-1.885a10.759,10.759,0,0,0,4.961-2.323l.16.208a3.444,3.444,0,0,0,1.522.251,2.376,2.376,0,0,0,1.33-.251c1.068-.587,4.982-1.762,6.408-2.35s-.24-4.806-1.308-5.634-1.778-1.874-1.186-2.344-1.426-1.645-2.611-1.88a38.7,38.7,0,0,1-4.747-1.88s-1.3-2.7-3.439-2.7-4.988-2.136-4.988-2.136c-.117-.94-2.371-1.068-2.371-1.068s-8.544-6.569-9.97-5.751-5.34-1.287-5.34-1.287-4.806.534-5.933-.347h0a1.351,1.351,0,0,0-.288-.8c-.256-.8-1.5-1.885-2.67-2.793a11.026,11.026,0,0,0,.133-1.693,6.742,6.742,0,0,0-.027-.737.953.953,0,0,0,0-.123c.059-.534.112-1.1.171-1.65a3.386,3.386,0,0,1,.411-1.554c.2-.31.5-.534.721-.849a1.941,1.941,0,0,0,.144-.219l.037-.064c.032-.059.059-.117.085-.176a.287.287,0,0,0,.027-.059,2.471,2.471,0,0,0,.155-.5V180.7c0-.043.027-.155.032-.235v-.032a5.009,5.009,0,0,0-.267-2.013,13.457,13.457,0,0,1-.972-3.338,10.829,10.829,0,0,0-.059-1.72c-.288-1.282-1.6-2.1-2.878-2.633a16.073,16.073,0,0,1-4.048-2.633c-1.2-.929-3.172-.459-4.683-.363a40.766,40.766,0,0,0-10.077,2.328,10.008,10.008,0,0,0-3.525,1.746,3.893,3.893,0,0,0-1.287,2.179h0a2.772,2.772,0,0,0-.043.593v.053a.837.837,0,0,0,.027.224.317.317,0,0,0,0,.075,2.516,2.516,0,0,0,.064.272h0c.134.433.39.822.534,1.255a2.9,2.9,0,0,1,.08.288v.032l.048.283h0a12.4,12.4,0,0,1-.438,3.268,4.524,4.524,0,0,0-.053.47h0a5.677,5.677,0,0,0,.16,1.874h0a.867.867,0,0,0,.069.219l.032.1c0,.064.048.123.069.187a1.23,1.23,0,0,1,.053.123c0,.053.048.107.075.16s.048.091.069.134a1.452,1.452,0,0,0,.085.144l.085.139.085.128.107.134c.032.037.059.08.1.117l.123.128.1.1.15.123.1.085.182.123.091.059a2.268,2.268,0,0,0,.3.155c.684.315,1.538.422,1.955,1.02a1.448,1.448,0,0,1,.2.47v.224a9.448,9.448,0,0,0,.059,1.031,4.832,4.832,0,0,0,.027.534,1.724,1.724,0,0,0,.117.4,10.681,10.681,0,0,0,3.6,6.045c.037.182.075.4.123.635a11.825,11.825,0,0,1-3.455,1.8c-2.857.935-6.873,4.764-6.873,4.764s-2,14.419-2.483,16.2a79.027,79.027,0,0,0-.838,8.571,19.764,19.764,0,0,1-1.186,4.224c-.5.993-.411,5.26.993,7.85a6.5,6.5,0,0,1-.876,1.421c-2.846,3.29-11.391,3.172-14.243,3.172-2.622,0-3.434,1.6-3.541,1.842-5.217,1.479-22.109,6.3-24.111,7.177-2.371,1.036-3.679,11.284-3.679,11.284s-4.982,17.019-4.747,19.262-1.661,8.438-1.661,8.438,0,7.022-.806,7.5h-.027c-.828.352-.71,3.738-.71,3.738s.609.182,1.565.422a27.154,27.154,0,0,1-1.922,5.837c-.368-.47-.732-.668-.945-.117-.593,1.49-9.495,12.053-11.749,12.053a6.846,6.846,0,0,0-4.016,2.072C289.252,324.25,288.712,325.927,290.635,327.214Zm40.826-61.173a98.948,98.948,0,0,0,20.891-.716,24.2,24.2,0,0,1-1.543,4.117,41.832,41.832,0,0,0-2.734,9.276c0,1.41-3.2,13.495-4.149,14.082a3.52,3.52,0,0,0-1.036,1.5,14.068,14.068,0,0,0-.625,1.794,7.221,7.221,0,0,0,.08.865c-.71.651-1.458,1.335-2.136,1.939h0a47.074,47.074,0,0,0-5.639,3.674c-1.4,1.282-8.069,2.873-8.069,2.873a41.006,41.006,0,0,0-4.806,2.435c-2.056,1.244-4.117,2.82-4.657,4.374.235-2.622.614-5.778.865-7.791h.379c3.327-.2,2.83-3.38,2.67-4.165a1.507,1.507,0,0,0-.043-.176c2.376-2.585,7.717-21.831,7-23.946s.6-3.989.876-3.989.668-2.35.075-3.642S331.461,266.041,331.461,266.041Zm81.578-51.8-.63.155v-.133a3.259,3.259,0,0,0,.63.016Zm-34.482-17.708c-.1.117-.192.23-.294.342l-.123.128v-.652ZM366.67,219.3l.043.662s-.064.4-.187,1.068Zm54.54-6.558-2.072.352c.294-.107.582-.23.865-.363a1.965,1.965,0,0,1,.657-.176,3.531,3.531,0,0,1,.774.166,1.067,1.067,0,0,0-.224.059Z" transform="translate(-149.801 -111.496)"/><path class="n" d="M393.65,407.894s-2.382,4.934-2.264,5.282-5.127,4.545-5.127,4.545l-5.709-4.08.582-2.793s6.408-5.773,6.873-6.44S393.65,407.894,393.65,407.894Z" transform="translate(-192.283 -221.842)"/><path class="j" d="M343.448,428.586c3.962,3.845,8.625,2.67,10.835,2.446s14.034-7.338,15.172-7.807a3.023,3.023,0,0,0,1.036-1.068h0a26.665,26.665,0,0,0,2-3.7c-.08,0-3.952,1.127-4.929,0,0,0-1.634-2-1.981-2s-.027-3.509-.027-3.509a45.384,45.384,0,0,0-5.565,3.626c-1.4,1.282-7.92,2.852-7.92,2.852a40.019,40.019,0,0,0-4.689,2.419C344.292,423.743,341.2,426.4,343.448,428.586Z" transform="translate(-174.636 -225.856)"/><path class="h" d="M343.448,436.331c3.962,3.845,8.625,2.67,10.835,2.446s14.034-7.338,15.172-7.807a3.023,3.023,0,0,0,1.036-1.068c-1.378-.822-10.381,4.9-12.9,5.949s-8.9.47-12.507-1.068c-1.805-.753,0-3.076,2.3-5.212C344.292,431.487,341.2,434.147,343.448,436.331Z" transform="translate(-174.636 -233.601)"/><path class="n" d="M334.832,418.062s-1.661,12.464-1.239,14.1-10.414-5.591-10.414-5.591,3.792-7.813,2.67-9.612S334.832,418.062,334.832,418.062Z" transform="translate(-165.551 -227.449)"/><path class="j" d="M325.575,367.974s6.755,1.981,10.483,1.746c3.268-.2,2.777-3.354,2.606-4.133a1.506,1.506,0,0,0-.043-.176c2.334-2.563,7.573-21.665,6.873-23.764s.582-3.957.86-3.957.657-2.334.075-3.615,2.563-2.446,2.563-2.446a95.886,95.886,0,0,0,20.5-.71,23.975,23.975,0,0,1-1.517,4.091,41.634,41.634,0,0,0-2.67,9.2c0,1.4-3.145,13.4-4.075,13.981a3.482,3.482,0,0,0-1.015,1.479,13.942,13.942,0,0,0-.614,1.778c.347,7.807,9.2,4.78,10.483,3.738a3.41,3.41,0,0,0,.5-.507,3.242,3.242,0,0,0,.668-2.056s11.53-11.749,10.018-16.656,3.738-5.009,3.738-5.009,8.037-3.493,9.153-5.591c.689-1.287,6.718-4.117,11.257-6.109,2.841-1.244,5.1-2.136,5.1-2.136l-1.89-6.777-1.49-5.34-2.8-1.068-8.961-3.375-16.09-2.211-1.474.192-15.636,2.019s-22.851,6.5-25.158,7.53-3.61,11.215-3.61,11.215-4.892,16.891-4.662,19.113-1.65,8.341-1.65,8.341,0,6.942-.79,7.439h-.027C325.463,364.583,325.575,367.974,325.575,367.974Z" transform="translate(-166.664 -177.116)"/><path class="h" d="M369.43,343.887a95.89,95.89,0,0,0,20.5-.71c.7-2.2,10.488-8.256,10.488-8.256C392.388,332.94,369.43,343.887,369.43,343.887Z" transform="translate(-187.102 -189.385)"/><path class="c" d="M389.28,406.218c.347,7.807,9.2,4.78,10.483,3.738a3.415,3.415,0,0,0,.5-.507c-3.1,1.143-8.582,2.019-10.365-5a13.955,13.955,0,0,0-.614,1.768Z" transform="translate(-196.351 -221.896)"/><path class="c" d="M325.575,416.734s6.755,1.981,10.483,1.746c3.268-.2,2.777-3.354,2.606-4.133-3.418-.107-9.308-.433-12.363-1.356h-.027C325.463,413.342,325.575,416.734,325.575,416.734Z" transform="translate(-166.664 -225.875)"/><path class="h" d="M389.28,406.218c.347,7.807,9.2,4.78,10.483,3.738a3.415,3.415,0,0,0,.5-.507c-3.1,1.143-8.582,2.019-10.365-5a13.955,13.955,0,0,0-.614,1.768Z" transform="translate(-196.351 -221.896)"/><path class="h" d="M325.575,416.734s6.755,1.981,10.483,1.746c3.268-.2,2.777-3.354,2.606-4.133-3.418-.107-9.308-.433-12.363-1.356h-.027C325.463,413.342,325.575,416.734,325.575,416.734Z" transform="translate(-166.664 -225.875)"/><path class="j" d="M293.312,449.348c3.61,2.446,9.078,1.282,9.078,1.282s8.267-3.962,10.713-3.962,8.4-2.43,8.4-2.43l-.2-1.65-.961-7.9s-9.078-.23-9.436-1.068c0,0-1.634-4.011-2.216-2.531s-9.319,11.968-11.53,11.968a6.649,6.649,0,0,0-3.946,2.051C291.955,446.405,291.421,448.066,293.312,449.348Z" transform="translate(-151.057 -234.154)"/><path class="h" d="M353.07,336.65s7.573,4.806,5.474,5.826S353.07,336.65,353.07,336.65Z" transform="translate(-179.479 -190.303)"/><path class="h" d="M347.18,353.89s6.52,6.189,4.075,6.355S347.18,353.89,347.18,353.89Z" transform="translate(-176.734 -198.336)"/><path class="h" d="M334.09,390.75s3.311,6.227,2.061,7.305S334.09,390.75,334.09,390.75Z" transform="translate(-170.634 -215.512)"/><path class="h" d="M402.292,398.962c-1.164,1.164,11.07-3.845,8.272-4.08S402.292,398.962,402.292,398.962Z" transform="translate(-202.378 -217.433)"/><path class="n" d="M448.17,225.142l.39-.059c1.447-.219,6.7-1.041,11.412-2.067,1.148-.251,2.259-.507,3.279-.78,3.61-.945,6.029-1.965,4.491-2.8a8.251,8.251,0,0,1-3.69-4.86c-.053-.171-.107-.336-.15-.5a12.771,12.771,0,0,1-.475-2.67s-13.158-4.662-10.6,0a4.418,4.418,0,0,1-.78,5.458,10.19,10.19,0,0,1-2.836,2.136Z" transform="translate(-223.793 -130.98)"/><path class="h" d="M449.5,232.17s-4.7,3.38-9.516.582-11.076,24.7-11.076,24.7l-6.526,16.074s-4.224,3.493,1.031,5.009,16.929-1.517,19.887,2.91,8.571,5.105,9.105,5.105,2.793-16.662,2.793-16.662l.577-24.111Z" transform="translate(-211.027 -141.618)"/><path class="o" d="M423.808,276.789c5.26,1.517,16.923-1.511,19.887,2.91a11.385,11.385,0,0,0,5.009,4.037,13.106,13.106,0,0,0,4.133,1.068c.075,0,.187-.3.315-.833.817-3.37,2.478-15.823,2.478-15.823l.577-24.063-5.538-11.994-.753-1.661a10.076,10.076,0,0,1-2.4,1.164,8.448,8.448,0,0,1-7.124-.582c-1.41-.822-2.948.967-4.416,3.9-3.541,7.071-6.681,20.795-6.681,20.795l-6.52,16.074a5.61,5.61,0,0,0-.443.427C421.4,273.179,419.669,275.593,423.808,276.789Z" transform="translate(-211.211 -140.807)"/><path class="h" d="M471.49,271.948a30.359,30.359,0,0,0-.155,6.136,71.961,71.961,0,0,0,1.068,8.662,3.207,3.207,0,0,0,.144.534c2.841-1.244,5.1-2.136,5.1-2.136l-1.89-6.777c.817-3.37,2.478-15.823,2.478-15.823l.614-24.111-5.538-11.994c3.61-.945,6.029-1.965,4.491-2.8a8.543,8.543,0,0,1-3.84-5.34,19.8,19.8,0,0,1-3.311,3.562l-.075.059-.417,4.064-.128,1.25-.272,2.6s1.282,30.632,2.216,32.383.465,5.121-.352,9.078C471.581,271.478,471.538,271.708,471.49,271.948Z" transform="translate(-233.853 -135.155)"/><path class="p" d="M472.55,264.322c-.817,3.957-.117,10.483.812,15.487s10.835,1.746,12.7,0,7.338-2.563,7.338-2.563.235-22.83,1.981-25.745c.828-1.378,1.031-5.874,1.009-10.243,0-3.909-.208-7.7-.283-8.982v-.459s7.572-12.817,7.476-13.746S501.254,217,501.254,217s-8.39-6.526-9.789-5.709-5.239-1.282-5.239-1.282-4.87.534-5.874-.385a.534.534,0,0,1-.176-.433c.112-1.49-4.966-4.673-5.121-4.774,4.272,3.856-2.67,9.789-3.428,10.435l-.075.064-.812,7.9s1.282,30.637,2.211,32.383S473.362,260.359,472.55,264.322Z" transform="translate(-234.31 -128.687)"/><circle class="c" cx="0.582" cy="0.582" r="0.582" transform="translate(238.107 101.772)"/><path class="h" d="M472.74,215.785l3.535,3.423,5.191-8.657a.534.534,0,0,1-.182-.427c.117-1.5-4.961-4.678-5.121-4.774C480.446,209.2,473.525,215.133,472.74,215.785Z" transform="translate(-235.242 -129.12)"/><circle class="h" cx="0.582" cy="0.582" r="0.582" transform="translate(239.271 120.41)"/><circle class="c" cx="0.582" cy="0.582" r="0.582" transform="translate(239.271 120.175)"/><path class="p" d="M472.3,214.895l3.541,3.428,5.185-8.657a.534.534,0,0,1-.176-.433c.112-1.49-4.966-4.673-5.121-4.774C480.006,208.321,473.085,214.254,472.3,214.895Z" transform="translate(-235.036 -128.706)"/><rect class="j" width="8.107" height="17.132" rx="1.7" transform="translate(241.701 118.983) rotate(-178.69)"/><rect class="h" width="8.107" height="17.132" rx="1.7" transform="translate(241.701 118.983) rotate(-178.69)"/><rect class="j" width="8.107" height="17.132" rx="1.7" transform="translate(241.747 119.361) rotate(-178.69)"/><circle class="p" cx="1.276" cy="1.276" r="1.276" transform="translate(236.82 105.889)"/><path class="h" d="M391.68,269.943c2.91,1.282,22.013-2.093,24.811-2.91s6.873-7.108,4.892-11.647.7-8.972.7-8.972,4.192-8.966,5.121-10.718a81.958,81.958,0,0,0,3.145-7.685.684.684,0,0,0-.166-.534,20.353,20.353,0,0,0-3.674-3.2c-.822.3-.929-2.056-.9-3.792,0-.967.08-1.741.08-1.741s-.39.4-1.02.929c-.23.192-.491.411-.785.63a12.047,12.047,0,0,1-3.669,2.008c-2.8.822-6.755,4.646-6.755,4.646l1.164,17.885s-2.67,16.827-5.479,20.085-11.182,3.145-13.975,3.145S391.68,269.943,391.68,269.943Z" transform="translate(-197.47 -135.36)"/><path class="p" d="M391.24,268.633c2.91,1.282,22.018-2.093,24.811-2.91s6.873-7.1,4.892-11.647.7-8.972.7-8.972,4.192-8.966,5.127-10.713a82.852,82.852,0,0,0,3.145-7.69.705.705,0,0,0-.166-.534,20.522,20.522,0,0,0-3.68-3.2c-.822.3-.924-2.056-.892-3.786,0-.972.075-1.746.075-1.746s-.385.4-1.015.929c-.235.2-.5.411-.785.63A12.08,12.08,0,0,1,419.778,221c-2.793.828-6.755,4.646-6.755,4.646l1.164,17.89s-2.67,16.822-5.474,20.085-11.183,3.14-13.981,3.14S391.24,268.633,391.24,268.633Z" transform="translate(-197.265 -134.749)"/><path class="h" d="M450.57,218.33s.107.614.294,1.554c.625,3.2,2.136,10.184,3.2,9.917.774-.2,2.083-1.565,3.1-2.75a20.522,20.522,0,0,0-3.679-3.2c-.822.3-.924-2.056-.892-3.786l-.94-.812Z" transform="translate(-224.911 -135.169)"/><path class="p" d="M451,217.45s.107.614.294,1.559c.625,3.2,2.136,10.184,3.2,9.912.774-.192,2.083-1.559,3.1-2.745a20.521,20.521,0,0,0-3.679-3.2c-.822.3-.924-2.056-.892-3.786l-.956-.806Z" transform="translate(-225.111 -134.759)"/><path class="n" d="M432.567,275.532s5.821-1.164,7.476-3.738,12.721-4.78,11.369-2.1-11.4,11.455-11.4,11.455l-4.342,6.216-5.8-1.469-2.441-4.747Z" transform="translate(-214.128 -158.535)"/><path class="h" d="M457.129,294.13s-5.639,2.1-6.488,4.892S457.129,294.13,457.129,294.13Z" transform="translate(-224.912 -170.489)"/><path class="h" d="M463.608,300.23s.534,2.91-6.558,2.67Z" transform="translate(-227.93 -173.332)"/><path class="h" d="M519.267,230.225l2.563-.235s2.793,2.1,4.892,2.1,3.375,2.67,3.375,2.67a37.261,37.261,0,0,0,4.662,1.864c1.164.23,3.145,1.4,2.563,1.864s.112,1.517,1.164,2.334,2.67,5.009,1.282,5.591-5.244,1.746-6.291,2.328a2.889,2.889,0,0,1-2.328,0s-6.173-8.037-9.319-6.526a20.36,20.36,0,0,1-7.476,1.517l-3.354-7.1Z" transform="translate(-253.07 -140.602)"/><path class="p" d="M424.761,269.875a3.124,3.124,0,0,0,2.168,1.511,16.459,16.459,0,0,0,6.787-.63s-11.749-3.738-.438-12.817H430.25l-1.009-.384.465-2.414.662-21.756-2.462-.555s-1.971,14.328-2.441,16.074a79.235,79.235,0,0,0-.822,8.5,19.562,19.562,0,0,1-1.164,4.192C422.966,262.65,423.1,267.387,424.761,269.875Z" transform="translate(-212.164 -141.925)"/><path class="h" d="M427,291.45a3.135,3.135,0,0,0,2.174,1.511,16.443,16.443,0,0,0,6.782-.63s-11.749-3.738-.433-12.817H432.49l-1.009-.385C429.814,282.094,427.2,287.322,427,291.45Z" transform="translate(-213.928 -163.5)"/><path class="q" d="M426.11,291.45a3.124,3.124,0,0,0,2.168,1.511,16.46,16.46,0,0,0,6.787-.63s-11.749-3.738-.438-12.817H431.6l-1.009-.385C428.935,282.094,426.324,287.322,426.11,291.45Z" transform="translate(-213.513 -163.5)"/><path class="p" d="M426.11,291.45a3.124,3.124,0,0,0,2.168,1.511,16.46,16.46,0,0,0,6.787-.63s-11.749-3.738-.438-12.817H431.6l-1.009-.385C428.935,282.094,426.324,287.322,426.11,291.45Z" transform="translate(-213.513 -163.5)"/><path class="h" d="M455.44,216.859a10.616,10.616,0,0,0,12-2.28c-.053-.171-.107-.336-.15-.5a12.767,12.767,0,0,1-.475-2.67s-13.158-4.662-10.6,0A4.4,4.4,0,0,1,455.44,216.859Z" transform="translate(-227.18 -130.98)"/><path class="n" d="M443.81,195.238v.1a5.882,5.882,0,0,0,.059,1.02,9.61,9.61,0,0,0,.144.956,10.6,10.6,0,0,0,20.421,1.367c.069-.2.139-.411.192-.619a10.515,10.515,0,0,0,.385-2.825,6.652,6.652,0,0,0-.027-.732,10.6,10.6,0,0,0-21.174.732Z" transform="translate(-221.761 -119.478)"/><path class="h" d="M443.81,195.33a4.578,4.578,0,0,1,.059,1.02,4.78,4.78,0,0,0,.027.534,1.56,1.56,0,0,0,.117.4,1.981,1.981,0,0,0,2.745,1.009,2.943,2.943,0,0,0,.828-1.068c.983-1.821,2.344-3.914,4.486-3.952a11.009,11.009,0,0,1,2.67.6,2.826,2.826,0,0,0,2.6-.352c.5-.459.742-1.25,1.426-1.415s1.3.465,1.6,1.068a3.224,3.224,0,0,0,1.191,1.645c.283.139.609.176.886.326,1.266.694.684,3.124,2,3.519a1.122,1.122,0,0,0,.128.032l.064-.652c.117-1.186.24-2.366.358-3.557a10.6,10.6,0,0,0-21.174.732Z" transform="translate(-221.761 -119.469)"/><path class="j" d="M458.792,172.054c1.244.534,2.542,1.34,2.82,2.611a10.147,10.147,0,0,1,.059,1.709,13.686,13.686,0,0,0,.956,3.311A3.686,3.686,0,0,1,462.4,183c-.219.294-.507.534-.7.844a3.407,3.407,0,0,0-.406,1.543l-.577,5.73c-1.479-.272-.822-2.836-2.136-3.551-.272-.15-.6-.187-.881-.326-.63-.315-.876-1.036-1.191-1.645s-.924-1.234-1.6-1.068-.919.951-1.421,1.415a2.863,2.863,0,0,1-2.6.347,10.453,10.453,0,0,0-2.67-.6c-2.136.037-3.509,2.136-4.486,3.952a2.9,2.9,0,0,1-.828,1.068,1.994,1.994,0,0,1-2.862-1.41c-.1-.684.112-1.447-.278-2.024s-1.25-.7-1.917-1.015c-1.7-.785-2.232-2.91-1.949-4.694.2-1.282.716-2.606.3-3.84-.144-.427-.4-.817-.534-1.244a3.362,3.362,0,0,1,1.2-3.375,9.778,9.778,0,0,1,3.46-1.736,39.554,39.554,0,0,1,9.89-2.312c1.479-.1,3.423-.561,4.6.363A15.31,15.31,0,0,0,458.792,172.054Z" transform="translate(-217.913 -112.118)"/><circle class="h" cx="0.582" cy="0.582" r="0.582" transform="translate(237.525 92.565)"/><circle class="c" cx="0.582" cy="0.582" r="0.582" transform="translate(237.525 92.336)"/><circle class="h" cx="0.582" cy="0.582" r="0.582" transform="translate(241.253 129.141)"/><circle class="c" cx="0.582" cy="0.582" r="0.582" transform="translate(241.253 128.911)"/><circle class="h" cx="0.582" cy="0.582" r="0.582" transform="translate(239.271 138.812)"/><circle class="c" cx="0.582" cy="0.582" r="0.582" transform="translate(239.271 138.577)"/><path class="h" d="M439.163,254.27s-1.282,8.7,0,10.216S439.163,254.27,439.163,254.27Z" transform="translate(-219.33 -151.916)"/><path class="h" d="M508.061,284.52s2.446,5.271,0,10.323-3.962,7.108-3.145,10.333S508.061,284.52,508.061,284.52Z" transform="translate(-250.131 -166.011)"/><path class="h" d="M293.311,459.671c3.61,2.446,9.078,1.282,9.078,1.282s8.267-3.962,10.713-3.962,8.4-2.43,8.4-2.43l-.2-1.65c-2.414.465-7.9,1.575-8.544,2.136-.817.7-10.835,4.08-10.835,4.08s-6.82-.854-8.721-3.658C291.954,456.728,291.42,458.389,293.311,459.671Z" transform="translate(-151.056 -244.477)"/><g class="r" transform="translate(217.65 62.943)"><path d="M484.46,180.849v.059a.218.218,0,0,0,0-.059Z" transform="translate(-458.353 -180.47)"/><path d="M438.1,195.817c.668.3,1.511.417,1.917,1.009s.182,1.34.278,2.024a2,2,0,0,0,2.862,1.415,2.916,2.916,0,0,0,.828-1.068c.977-1.816,2.344-3.909,4.486-3.946a11.253,11.253,0,0,1,2.67.593,2.841,2.841,0,0,0,2.6-.347c.5-.459.742-1.25,1.42-1.415s1.308.459,1.6,1.068a3.16,3.16,0,0,0,1.191,1.639c.283.139.609.182.881.331,1.308.716.651,3.274,2.136,3.551l.577-5.735a3.424,3.424,0,0,1,.406-1.543c.2-.3.486-.534.7-.838a2.563,2.563,0,0,0,.475-1.234,2.953,2.953,0,0,1-.475,2.163c-.219.294-.507.534-.7.844a3.407,3.407,0,0,0-.406,1.543l-.577,5.73c-1.479-.272-.822-2.836-2.136-3.551-.272-.15-.6-.187-.881-.326-.63-.315-.876-1.036-1.191-1.645s-.924-1.234-1.6-1.068-.919.951-1.42,1.415a2.863,2.863,0,0,1-2.6.347,10.453,10.453,0,0,0-2.67-.6c-2.136.037-3.509,2.136-4.486,3.952a2.9,2.9,0,0,1-.828,1.068,1.994,1.994,0,0,1-2.862-1.41c-.1-.684.112-1.447-.278-2.024s-1.25-.7-1.917-1.015c-1.559-.716-2.136-2.558-2-4.229A3.812,3.812,0,0,0,438.1,195.817Z" transform="translate(-435.807 -185.526)"/><path d="M435.683,181.173c.134.427.384.817.534,1.244a3.738,3.738,0,0,1,.134,1.533,3.335,3.335,0,0,0-.134-.6c-.144-.427-.4-.817-.534-1.244a2.617,2.617,0,0,1-.069-1.218C435.635,180.986,435.657,181.077,435.683,181.173Z" transform="translate(-435.572 -180.666)"/></g><path class="h" d="M487.316,268.242c2.67-.587,8.966-2.446,8.966-2.446l1.127-.224c0-3.909-.208-7.7-.283-8.982h0s-5.34,1.746-6.638,2.67-5.244.7-5.244.7a17.946,17.946,0,0,0-11.3,6.056C468.817,271.724,484.635,268.83,487.316,268.242Z" transform="translate(-235.329 -152.997)"/><path class="n" d="M513.472,256.114a1.554,1.554,0,0,1,.352,2.611c-1.42,1.175-3.492,2.579-5.468,2.782-3.3.331-11.215,1.923-12.032,2.083a.537.537,0,0,0-.123.032c-.657.192-6.408,1.869-8.908,2.419-2.67.587-18.525,3.5-13.4-2.206a18.109,18.109,0,0,1,11.215-6.051h.2c.6.032,3.984.144,5.153-.7a10.879,10.879,0,0,1,1.923-.961,37.124,37.124,0,0,1,7.877-2.27l5.479-.956a1.565,1.565,0,0,1,.924.117Z" transform="translate(-235.308 -151.266)"/><path class="p" d="M520.113,230.225l2.563-.235s2.793,2.1,4.892,2.1,3.38,2.67,3.38,2.67a37.107,37.107,0,0,0,4.657,1.864c1.164.23,3.145,1.4,2.563,1.864s.117,1.517,1.164,2.334,2.67,5.009,1.282,5.591-5.244,1.741-6.269,2.334a2.889,2.889,0,0,1-2.328,0s-6.216-8.037-9.34-6.526a20.291,20.291,0,0,1-7.476,1.517l-3.38-7.108Z" transform="translate(-253.452 -140.602)"/><path class="b" d="M665.879,514.136s-4.635-1.068-7.669,2.056c0,0,1.955,1.762,6.536-.187Z" transform="translate(-321.666 -272.924)"/><path class="b" d="M672.376,514.22s2.74,3.882,1,7.872c0,0-2.371-1.138-2.3-6.12Z" transform="translate(-327.661 -273.046)"/><path class="b" d="M671.048,502.023s-1.639-3.562-9.458.748c0,0,.844,2.376,4.165,2.408S670.054,503.775,671.048,502.023Z" transform="translate(-323.241 -266.718)"/><path class="b" d="M679.17,502.83s3.914-.182,3.7,8.737c0,0-2.5.347-4.059-2.585S678.07,504.523,679.17,502.83Z" transform="translate(-330.861 -267.738)"/><path class="b" d="M676.647,486.641s-1.778-6.2-10-2.424c0,0,1.437,5.677,9.046,4.432Z" transform="translate(-325.598 -258.497)"/><path class="b" d="M681.122,470.342s-3.738-6.408-11.4-1.2c0,0,2.179,5.917,10.632,3.348Z" transform="translate(-327.029 -251.09)"/><path class="b" d="M683.273,454.62s-4.432-5.944-12.053-.812c0,0,4.229,5.239,11.957,2.248Z" transform="translate(-327.728 -243.922)"/><path class="b" d="M685.966,438.854s-4.481-6.195-11.786-1.105c0,0,5.148,5.554,11.69,2.478Z" transform="translate(-329.107 -236.477)"/><path class="b" d="M686.37,423.5s-4.614-7.9-11.449-3.2c0,0,5.057,6.862,11.353,4.651Z" transform="translate(-329.452 -228.587)"/><path class="b" d="M685.09,407.372s-4.929-7.861-11.62-2.537c0,0,5.992,6.942,11.53,3.909Z" transform="translate(-328.776 -221.213)"/><path class="b" d="M682.559,391.616s-5.954-7.476-11.749-5.041c0,0,6.2,7.93,11.914,6.942Z" transform="translate(-327.537 -213.339)"/><path class="b" d="M679.623,376.285s-6.852-9.116-11.353-6.536c0,0,5.02,7.049,11.781,8.2Z" transform="translate(-326.353 -205.512)"/><path class="b" d="M675.029,360.563s-6.024-7.476-10.889-6.051c0,0,5.068,7.679,11.61,8.3Z" transform="translate(-324.429 -198.542)"/><path class="b" d="M671.333,345.159s-6.729-7.225-9.933-6.248c0,0,4.683,7.839,10.146,7.77Z" transform="translate(-323.152 -191.314)"/><path class="b" d="M667.659,329.477s-5.645-8.47-9.078-8.069c0,0,3.263,7.434,9,8.881Z" transform="translate(-321.838 -183.194)"/><path class="b" d="M664.01,311.669s-5.052-6.542-8.01-6.729c0,0,3.738,8.544,8.1,8.758Z" transform="translate(-320.636 -175.527)"/><path class="b" d="M664.447,293.387l-4.411-13.217s-1.068,11.61,4.924,15.647Z" transform="translate(-322.482 -163.985)"/><path class="b" d="M664.631,267.936s-.15-10.8.47-11.636c0,0-4.374,8.673-.753,16.384Z" transform="translate(-323.857 -152.862)"/><path class="b" d="M685.085,489.127s5.7-3.023,8.689,5.517c0,0-5.089,2.905-9.474-3.439Z" transform="translate(-333.823 -261.111)"/><path class="b" d="M690.792,472.238s6.942-2.611,9.612,6.269c0,0-5.426,3.2-10.355-4.123Z" transform="translate(-336.502 -253.316)"/><path class="b" d="M694.226,456.29s5.185-5.3,12.053.812c0,0-4.892,4.625-12.149.625Z" transform="translate(-338.403 -245.059)"/><path class="b" d="M696.471,439.559s5.266-5.543,11.823.481c0,0-5.842,4.806-11.914.892Z" transform="translate(-339.452 -237.171)"/><path class="b" d="M696.33,423.411s3.989-8.235,11.172-4.1c0,0-4.513,7.236-10.964,5.522Z" transform="translate(-339.429 -228.28)"/><path class="b" d="M694.43,406.515s3.973-8.379,11.247-3.882c0,0-5.143,7.583-11,5.239Z" transform="translate(-338.543 -220.431)"/><path class="b" d="M691.45,387.9s1.981-9.351,8.267-9.778c0,0-1.992,9.869-7.546,11.535Z" transform="translate(-337.155 -209.627)"/><path class="b" d="M689.23,372.461s1.287-11.332,6.478-11.391c0,0-.758,8.625-6,13.036Z" transform="translate(-336.12 -201.682)"/><path class="b" d="M683.56,356.449s2.179-9.356,7.177-10.179c0,0-1.223,9.116-6.846,12.528Z" transform="translate(-333.478 -194.785)"/><path class="b" d="M678.93,341.067s.71-9.847,3.818-11.1c0,0,1.271,9.046-3.033,12.411Z" transform="translate(-331.321 -187.19)"/><path class="b" d="M675.16,326.407s1.105-10.12,4.315-11.337c0,0,.534,8.1-3.893,12.032Z" transform="translate(-329.564 -180.247)"/><path class="b" d="M670.07,310.244S670.641,302,673,300.21c0,0,1.6,9.185-1.874,11.749Z" transform="translate(-327.192 -173.323)"/><path class="b" d="M668.667,292.336l3.087-13.586s2.19,11.45-3.354,16.058Z" transform="translate(-326.414 -163.323)"/><path class="b" d="M667.724,269.922s6.179-8.854,6.131-9.922c0,0-1.239,9.612-8.544,13.992Z" transform="translate(-324.974 -154.586)"/><path class="b" d="M668.618,261.466s6.125-12.763,8.544-13.666a16.672,16.672,0,0,0-8.982,13.26Z" transform="translate(-326.311 -148.901)"/><path class="c" d="M668.569,298.331l.363-.085c-3.455-14.734-3.941-24.031-1.367-26.167l-.24-.288C664.6,274.038,665.028,283.234,668.569,298.331Z" transform="translate(-325.088 -160.08)"/><path class="c" d="M680.894,355.14l.534-.15c-.379-1.356-.8-2.729-1.239-4.091-3.845-11.823-7.06-22.8-9.03-31.2l-.449-.262c1.976,8.411,5.089,19.791,8.945,31.636C680.1,352.427,680.515,353.794,680.894,355.14Z" transform="translate(-327.49 -182.283)"/><path class="c" d="M658.413,463.934c.075-.075,7.792-7.669,13.719-21.126a81.547,81.547,0,0,0,6.531-24.827c1.068-10.713-.384-22.846-3.514-33.991l-.454.459c7.023,25.019,2.174,45.723-3.236,58.022A72.882,72.882,0,0,1,657.89,463.4Z" transform="translate(-321.516 -212.362)"/><path class="s" d="M987.939,675.528,973.163,654.1s-.272-5.3-1.239-6.542-.208-4-.208-4,1.036-1.511.139-1.65-.139-3.514-.139-3.514l-.069-5.372s.828-5.169.139-6.408a2.024,2.024,0,0,1,.069-2.206s.828-2.958,0-3.738-.625-5.372-.417-9.025-1.453-5.719-1.453-6.269-5.452-5.922-5.452-6.408-3.455-2.478-5.527-3.028-3.1-.967-3.033-1.239-3.247-1.378-3.247-1.378-2.9-.208-4.005-1.655-4.486-1.864-4.582-1.88l-.064-.288a2.1,2.1,0,0,0-.059-.31c.256-.438.5-.886.721-1.351.064-.139.128-.278.187-.422a5.874,5.874,0,0,0,3.4-1.068,4.64,4.64,0,0,0,1.656-3.306,7.225,7.225,0,0,0-.812-3.669c-.6-1.239-1.5-2.526-1.186-3.872.134-.582.481-1.068.657-1.661a4.352,4.352,0,0,0-.491-3.263c-.534-1-1.255-1.88-1.837-2.846a11.328,11.328,0,0,1-1.458-4.032,6.145,6.145,0,0,0-.534-2.195,4.052,4.052,0,0,0-1.207-1.223,12.128,12.128,0,0,0-7.423-2.248c-1.88.064-3.738.571-5.623.342a20.733,20.733,0,0,1-3.279-.86c-2.318-.684-4.988-.967-7.006.358s-2.82,3.936-4.187,5.976c-1.207,1.8-2.975,3.311-3.9,5.223l.032-.112a6.31,6.31,0,0,0-.534,1.394,9.932,9.932,0,0,0,.3,4.571,3.189,3.189,0,0,0,1.116,2.04,6.356,6.356,0,0,0,2.414.47c-.032.133-.064.262-.091.4a15.461,15.461,0,0,0-.347,3.279,15.786,15.786,0,0,0,11.295,15.118v.422a10.442,10.442,0,0,1-.075,1.18h0s-6.942-1.426-8.806-.459-5.527,1.72-6.077,2.27-1.933.139-3.177,3.375-1.383,6.547-2.969,8.064-2.419,2.547-2.489,3.647.208,1.378-.411,1.725-1.522,1.789-1.244,2.339a1.959,1.959,0,0,1-.758,2.067,2.3,2.3,0,0,0-.967,2.067s-.417,1.517-1.383,1.864-1.6,2.617-1.6,2.617l-3.135,3.6-6.168-6.83a2.612,2.612,0,0,0-3.69-.192l-3.049,2.74a6.077,6.077,0,0,0-3.049,1.816,8.012,8.012,0,0,0-1.6,2.355l-1.672,1.5a4.235,4.235,0,0,0-.427,4.678l3.979,4.4v.037a7.018,7.018,0,0,0-3.845,1.565c-5.933,5.234-6.008,10.061-5.105,12.283s8.422,10.681,8.422,10.681a33.678,33.678,0,0,0,10.681,8.7h0l-.048.048q-.187.2-.369.432l-.1.128-.1.134-.112.166-.091.139c-.037.064-.08.128-.117.2l-.075.128-.144.267a.677.677,0,0,1-.043.091c-.059.123-.117.246-.171.374l-.059.144-.107.272a.761.761,0,0,1-.059.176c-.016.059-.064.176-.091.272s-.043.128-.059.192-.059.2-.085.3l-.048.187c-.037.16-.075.32-.107.491l-.032.2-.064.352-.032.251c0,.112-.032.224-.043.342a1.2,1.2,0,0,1-.027.262l-.032.4v.908c-.139,8.058.331,9.233.331,9.233a4.481,4.481,0,0,0,3.663,2.75,4.808,4.808,0,0,0,1.186-.064c3.589-.619,12.01-2.067,14.953-1.517,1.789.331,5.089-.16,7.444-.6l.62-.117.432,1.367,1.367-.374c.438.256.833.486,1.159.667l.732.422c1.362,4.625,6.894,3.044,6.894,3.044l1.314.758,13.351.347a27.2,27.2,0,0,0,4.715,2.264,4.161,4.161,0,0,0,.673.144,29.63,29.63,0,0,0,3.712.069c1.02,0,1.81-.069,1.81-.069s-.134-3.615-.326-7.669a109.345,109.345,0,0,0,12.341-1.009c7.113-1.25,10.088-7.722,11.177-11.183a32,32,0,0,1,.7,4.272,31.538,31.538,0,0,0,1.105,3.738,12.665,12.665,0,0,0,1.517,2.756c5.25-1.794,2.072-4.48.972-5.65s.758-2.136.758-2.136,1.447-.967,1.308-1.858-.2-1.864,4.491-1.794S987.939,675.528,987.939,675.528Zm-72.911-43.993a31.93,31.93,0,0,0,1.3,5.757,7.436,7.436,0,0,1,.155,2.264c-2.777-.219-5.677-.336-5.677-.336a.706.706,0,0,1,.15.352l-.438-.1-.635-.16,5.127-7.792Zm-10.146,16.154,4.806.764.406.064a15.326,15.326,0,0,0-.251,2.275c0,.069.107.16.262.256a6.231,6.231,0,0,0-.091,1.137c.075.385,2.328,1.207,4.908,1.891-.032.139-.069.272-.107.4h0c-2.28-1.2-5.874-1.762-6.286-2.67s-12.635-5.159-12.635-5.159-.449-.24-1.218-.609l3.2.609.881-.091a48.024,48.024,0,0,0,6.109,1.137Z" transform="translate(-419.301 -292.954)"/><path class="g" d="M987.484,762.014s-1.917,11.567-11.631,13.276-42.161,1.356-42.161,1.356-18.547-2.67-25.249-18.339-11.022-21.9-5.271-22.173,36.752,10.467,38.53,10.606S989.2,722.934,987.484,762.014Z" transform="translate(-434.562 -376.45)"/><path class="t" d="M987.484,762.014s-1.917,11.567-11.631,13.276-42.161,1.356-42.161,1.356-18.547-2.67-25.249-18.339-11.022-21.9-5.271-22.173,36.752,10.467,38.53,10.606S989.2,722.934,987.484,762.014Z" transform="translate(-434.562 -376.45)"/><path class="j" d="M900.191,793.387a4.434,4.434,0,0,0,3.631,2.734,4.686,4.686,0,0,0,1.17-.064c3.557-.614,11.909-2.056,14.851-1.506,1.768.331,5.041-.155,7.375-.6,1.549-.294,2.67-.566,2.67-.566s-2.74-9.078-3.081-9.378-12.32-7.476-12.32-7.476L905,775.85h0a4.993,4.993,0,0,0-3.2,1.885c-1,1.212-1.858,3.2-1.917,6.462C899.721,792.223,900.191,793.387,900.191,793.387Z" transform="translate(-434.262 -394.958)"/><path class="t" d="M900.214,793.425a4.434,4.434,0,0,0,3.631,2.734,40.055,40.055,0,0,1-2.579-3.738l.053-6.638a11.69,11.69,0,0,1,3.738-9.853h0s-4.993.336-5.132,8.347S900.214,793.425,900.214,793.425Z" transform="translate(-434.286 -394.995)"/><path class="h" d="M972.7,763.4l8.828-6.91L995.41,742.8s-1.5-.075-3.765-.171c-.566.358-2.136,1.49-2.2,2.862-.069,1.672-3.738.112-5.671,1.068s-11.289,12.956-12.934,12.875-2.943-.833-3.626.331l-.053.075Z" transform="translate(-465.628 -379.478)"/><path class="h" d="M903.46,777.756c.315.155.63.3.956.438,6.707,2.873,14.99,8.9,15.6,9.992.374.667,5.175,3.583,8.881,5.767,1.549-.294,2.67-.566,2.67-.566s-2.74-9.078-3.081-9.378-12.32-7.476-12.32-7.476l-9.484-.684h0A4.993,4.993,0,0,0,903.46,777.756Z" transform="translate(-435.946 -394.958)"/><path class="g" d="M868.237,730.621c.892,2.19,8.347,10.611,8.347,10.611s4.726,6.157,11.433,9.03,14.985,8.9,15.6,9.992c.4.7,5.741,3.925,9.511,6.136l.844.491c.737.432,1.378.806,1.869,1.068l.988.571s2.291-1.842,4.571-3.69,4.5-3.669,4.529-3.77c.069-.2.961-2.531.753-2.67-.107-.069-.577-1.015-1.442-2.136a9.646,9.646,0,0,0-3.487-2.878,9.923,9.923,0,0,1-4.513-4.71s-.3-.219-.753-.507a9.127,9.127,0,0,0-3.081-1.372c-1.506-.187-4.31-3.268-4.31-3.268a8.4,8.4,0,0,1-2.67-2.8c-.753-1.575-11.332-8.79-12.315-9.463l25.729,16.523L926,751.731l8.827-6.91,13.885-13.687s-1.869-.091-4.587-.208c-6.75-.294-18.744-.748-20.256-.411a11.556,11.556,0,0,1-3.738.251,13.255,13.255,0,0,1-5.677-1.041c-2.259-1.191-5.821-1.752-6.232-2.633S895.686,722,895.686,722s-16.5-8.758-22.381-3.557S867.345,728.432,868.237,730.621Z" transform="translate(-419.339 -367.438)"/><path class="u" d="M968.18,630.945l2.136,7.049,2.734,15.877,10.061.684,2.916-4.806,2.905-4.806s1.81-6.408,3.108-12.619c1.154-5.5,1.906-10.825.651-11.4-1.111-.534-1.837-2.36-2.312-4.352-.059-.246-.117-.5-.166-.742a38.387,38.387,0,0,1-.667-5.105s-21.078-1.095-18.157,7.6a13.767,13.767,0,0,1,.79,4.619,10.462,10.462,0,0,1-.069,1.18,9.869,9.869,0,0,1-3.93,6.825Z" transform="translate(-466.103 -317.992)"/><path class="v" d="M960,641.487l.753,11.973,1.714,10.2,1.917,4.721,1.709,25.836s16.5,1.912,20.512-.032a1.741,1.741,0,0,0,.726-.566c4.849-7.322,3.263-28.522,3.263-28.522l1.848-13.687-1.234-7.1-2.98-.315-2.291-.246s-.534.635-1.26,1.6c-2.029,2.67-5.762,7.946-5.511,10.146.342,3.012-.411,6.093-1.6,6.569s-2.136,1.3-2.328.481a3.787,3.787,0,0,1-.2-2.19c.208-1.164-.881-4.689-.881-4.689s-1.848-4.176-1.709-5.954-.208-3.834-.753-4.315-1.3-.956-.684-3.145-2.7-6.451-2.7-6.451Z" transform="translate(-462.292 -329.698)"/><path class="h" d="M1000.765,664.688l.684,20.464,3.952,2.19a1.7,1.7,0,0,0,.726-.566c4.849-7.322,3.263-28.522,3.263-28.522l1.848-13.687-1.234-7.1-2.98-.315c1.154-5.5,1.906-10.819.651-11.4-1.111-.534-1.842-2.36-2.312-4.347h0l-2.136,14.477s.182,1.3.246,2.67a7.636,7.636,0,0,1-.176,2.553,8.44,8.44,0,0,0-.134,3.418c-1.239,2.179-1.853,6.205-2.136,10.093C1000.611,659.759,1000.765,664.688,1000.765,664.688Z" transform="translate(-481.274 -322.989)"/><path class="j" d="M1005.781,620.78s3.45.433,4.545,1.869,3.968,1.639,3.968,1.639,3.284,1.068,3.2,1.372.961.684,3.012,1.228,5.474,2.537,5.474,3.012,5.41,5.821,5.41,6.366,1.64,2.6,1.437,6.227-.411,8.213.411,8.966,0,3.7,0,3.7a2.024,2.024,0,0,0-.07,2.19c.684,1.234-.139,6.366-.139,6.366l.069,5.34s-.753,3.354.139,3.487-.139,1.645-.139,1.645-.753,2.734.208,3.968,1.228,6.5,1.228,6.5l14.648,21.281s.2,3.9-4.448,3.834-4.587.886-4.448,1.778-1.3,1.848-1.3,1.848-1.848.956-.753,2.136,4.272,3.834-.956,5.613a12.466,12.466,0,0,1-1.506-2.734,31.267,31.267,0,0,1-1.068-3.7s-.481-5.2-1.437-5.874-.823-3.968-.823-3.968,1.367-2.67-.534-3.765-29.7-16.491-29.7-16.491l-.689-20.464s-.475-15.124,2.4-20.192a8.478,8.478,0,0,1,.139-3.418c.481-1.228-.069-5.2-.069-5.2Z" transform="translate(-481.627 -322.7)"/><path class="h" d="M954.119,635.47s-6.878-1.415-8.726-.459-5.474,1.709-6.024,2.259-1.917.133-3.145,3.354-1.372,6.5-2.943,8.01-2.4,2.531-2.467,3.626.208,1.372-.411,1.714-1.506,1.778-1.228,2.328,14.232,12.592,14.232,12.592.684,4.582,1.3,5.746-.684,17.18-2.056,18.274,9.239.993,9.239.993.481-10.51.892-11.054-.272-11.749-.272-11.749-.069-9.58.817-12.117.79-10.948.79-10.948.79-5.052,1.746-6.227S954.119,635.47,954.119,635.47Z" transform="translate(-447.903 -329.176)"/><path class="j" d="M953.736,635.088s-6.884-1.42-8.731-.459-5.474,1.709-6.018,2.254-1.917.139-3.151,3.354-1.367,6.5-2.943,8.01-2.392,2.531-2.462,3.626.2,1.367-.411,1.709-1.506,1.784-1.234,2.328S943.023,668.5,943.023,668.5s.684,4.587,1.3,5.752-.684,17.174-2.051,18.269,9.239.993,9.239.993.481-10.5.886-11.054-.272-11.749-.272-11.749-.069-9.58.822-12.112.79-10.953.79-10.953.785-5.052,1.741-6.227S953.736,635.088,953.736,635.088Z" transform="translate(-447.723 -328.997)"/><path class="h" d="M973.954,618.251a13.769,13.769,0,0,1,.79,4.619,15.511,15.511,0,0,0,4.48.651,15.674,15.674,0,0,0,13.532-7.765,38.382,38.382,0,0,1-.668-5.105S971.012,609.557,973.954,618.251Z" transform="translate(-468.663 -317.959)"/><path class="u" d="M954.72,590.99a15.674,15.674,0,1,0,.342-3.258,15.673,15.673,0,0,0-.342,3.258Z" transform="translate(-459.831 -301.513)"/><path class="j" d="M923.9,672.59l-3.738,1.164a1.96,1.96,0,0,1-.753,2.056,2.28,2.28,0,0,0-.956,2.051s-.411,1.506-1.373,1.848-1.57,2.6-1.57,2.6l-3.151,3.626s-1.164.961-.956,1.437-1.234.619-1.234.619l.753,12.181,6.5,1.228,4.037-.406,3.284-1.234,2.873-1.709,1.3-3.354,5.719-8.763Z" transform="translate(-439.072 -346.842)"/><path class="u" d="M897.279,696.7s-8.352-12.042-14.579-5.543,2.531,17.041,4.582,16.7,11.845-.892,11.845-.892Z" transform="translate(-425.247 -354.598)"/><rect class="j" width="43.699" height="33.932" rx="1.54" transform="translate(453.785 317.564) rotate(27.04)"/><rect class="b" width="36.73" height="27.679" transform="translate(455.525 321.89) rotate(27.04)"/><circle class="w" cx="0.603" cy="0.603" r="0.603" transform="translate(447.392 332.947)"/><circle class="w" cx="0.993" cy="0.993" r="0.993" transform="translate(482.414 350.703)"/><path class="u" d="M901.79,704.286c-.069,9.036,18.616,10.953,18.616,10.953l4.774.753,2.136.342.892-8.844s-.977-.15-2.206-.433c-1.8-.422-4.149-1.148-4.641-2.168C920.54,703.17,901.859,695.234,901.79,704.286Z" transform="translate(-435.167 -359.628)"/><path class="h" d="M955.36,587.775a1.869,1.869,0,0,1,1.143.534c.534.561.534,1.554,1.25,1.9a1.372,1.372,0,0,0,.817.091c1.816-.256,2.873-2.312,4.619-2.873a4.6,4.6,0,0,1,3.06.262,2.312,2.312,0,0,1,1.015.651c.582.758.176,1.869.443,2.782.379,1.271,1.9,1.778,3.2,1.944s2.793.262,3.669,1.25a3.332,3.332,0,0,1,.657,2.67,2.04,2.04,0,0,0,0,.983c.363,1.025,2.136.87,2.6.064.342-.593.235-1.068,1.036-1.244a3.375,3.375,0,0,1,1.677.288,12.31,12.31,0,0,0,4.331.668,15.674,15.674,0,1,0-29.516-9.928Z" transform="translate(-460.129 -301.555)"/><path class="j" d="M971.875,590.168a2.138,2.138,0,0,1,0-.983,3.305,3.305,0,0,0-.651-2.67c-.876-.988-2.355-1.068-3.669-1.25s-2.83-.668-3.2-1.939c-.267-.918.139-2.035-.443-2.788a2.313,2.313,0,0,0-1.015-.651,4.629,4.629,0,0,0-3.06-.262c-1.746.534-2.8,2.617-4.619,2.873a1.372,1.372,0,0,1-.817-.091c-.689-.347-.721-1.34-1.25-1.9-.828-.881-2.4-.31-3.423-.967a3.146,3.146,0,0,1-1.105-2.024,9.868,9.868,0,0,1-.3-4.539c.6-2.547,2.873-4.272,4.326-6.467,1.351-2.024,2.136-4.587,4.149-5.928s4.646-1.068,6.942-.358a20.55,20.55,0,0,0,3.252.854c1.853.224,3.738-.278,5.57-.342a11.968,11.968,0,0,1,7.359,2.238,4.064,4.064,0,0,1,1.2,1.212,6.411,6.411,0,0,1,.534,2.179,11.172,11.172,0,0,0,1.442,4.005c.577.961,1.3,1.837,1.816,2.83a4.315,4.315,0,0,1,.491,3.242,17.319,17.319,0,0,0-.651,1.65c-.3,1.335.577,2.611,1.175,3.845a7.193,7.193,0,0,1,.8,3.647,4.576,4.576,0,0,1-1.639,3.279,5.873,5.873,0,0,1-3.471,1.068,12.174,12.174,0,0,1-4.416-.662,3.434,3.434,0,0,0-1.677-.288c-.8.166-.694.651-1.036,1.244C974.011,591.038,972.238,591.193,971.875,590.168Z" transform="translate(-456.773 -294.207)"/><path class="h" d="M971.387,764.136l8.827-6.91L994.1,743.538s-1.869-.091-4.587-.208a3,3,0,0,0-.967,1.869c-.069,1.677-3.738.117-5.671,1.068s-11.279,12.966-12.923,12.907-2.943-.833-3.626.331l-.053.075a1.948,1.948,0,0,1-1.041.619Z" transform="translate(-464.729 -379.805)"/><path class="g" d="M943.44,759.534l4.438,14.162.694,2.221,2.136-.577,4.662-1.276,20.742-5.7a18.048,18.048,0,0,0,7.476-1.992,22.622,22.622,0,0,1,12.891-2.814c2.74.262,5.789-.924,8.32-5.6,0,0,5.746-16.971-8.763-21.831s-15.2,2.579-15.2,2.579l-.2.123c-.566.358-2.136,1.49-2.2,2.862-.069,1.672-3.738.112-5.671,1.068s-11.289,12.955-12.934,12.875-2.943-.833-3.626.331l-.053.075c-.507.7-2.029.865-3.039.892h-.945l-.128.043-1.068.31Z" transform="translate(-454.575 -375.683)"/><path class="h" d="M945.59,722.1l2.136.342.892-8.822s-.977-.15-2.206-.432C946.738,714.418,946.007,719.177,945.59,722.1Z" transform="translate(-455.577 -365.76)"/><path class="h" d="M1001.833,652.456s6.366-1.848,4.806,16.218a50.393,50.393,0,0,1-13.351,29.494s-13.548,5.954-19.641,5S963.106,702,963.106,702a15.488,15.488,0,0,0-6.157-1.645c-3.423-.133-10.606-2.259-10.745-2.943s1.778-10.745.961-11.5c0,0,9.58.4,10.536,1.068s2.328.192,3.354,0,4.176-2.937,10.4-.534c0,0,2.136.2,2.943-.342a2.948,2.948,0,0,1,2.136-.139,6.029,6.029,0,0,0,1.485-.753c.208-.272,1.848,0,1.848,0a.726.726,0,0,0,1.025-.475,4.519,4.519,0,0,1,.961-1.506s1.848-10.4,5.34-14.307a2.212,2.212,0,0,0,.748-1.981C987.666,665.855,993.62,650.267,1001.833,652.456Z" transform="translate(-455.86 -337.362)"/><path class="j" d="M1001.509,649.82s6.366-1.848,4.806,16.218a50.392,50.392,0,0,1-13.351,29.494s-13.554,5.954-19.641,5-10.542-1.164-10.542-1.164a15.487,15.487,0,0,0-6.163-1.623c-3.423-.133-10.611-2.254-10.745-2.943s1.778-10.745.956-11.5c0,0,9.58.4,10.542,1.068s2.323.2,3.354,0,4.171-2.937,10.4-.534c0,0,2.136.2,2.948-.342a2.947,2.947,0,0,1,2.136-.139,5.946,5.946,0,0,0,1.49-.753c.2-.272,1.848,0,1.848,0a.726.726,0,0,0,1.025-.475,4.454,4.454,0,0,1,.956-1.506s1.848-10.4,5.34-14.307a2.225,2.225,0,0,0,.753-1.981C987.347,663.24,993.3,647.652,1001.509,649.82Z" transform="translate(-455.706 -336.135)"/><path class="h" d="M957.5,776.91l9.041,10.942.059-.064c.069-.208.956-2.537.753-2.67s-1.778-3.562-4.929-5a9.335,9.335,0,0,1-3.866-3.519Z" transform="translate(-461.127 -395.308)"/><path class="h" d="M957.569,802.061l.988.571s2.291-1.842,4.571-3.69,4.5-3.669,4.529-3.77c.069-.2.961-2.531.753-2.67-.107-.069-.577-1.015-1.442-2.136-6.125-1.714-2.227,2.537-1.7,2.734,0,0-7.476-1.714-7.872,6.408a9.614,9.614,0,0,0,.176,2.553Z" transform="translate(-461.067 -401.532)"/><path class="j" d="M965.689,805.523l1.3.753,13.206.342a26.38,26.38,0,0,0,4.673,2.248,4.137,4.137,0,0,0,.667.15,30.126,30.126,0,0,0,3.679.069c1.009,0,1.794-.069,1.794-.069s-.625-16.656-1.068-18.413c-.23-.838-1.335-.651-2.424-.235a16.378,16.378,0,0,0-2.366,1.2s-5.613.534-6.5,1.025-3.418-.278-4.993,0-4.379-1.853-4.379-1.853c-7.669-2.531-3.359,2.189-2.809,2.4,0,0-7.476-1.714-7.871,6.408S965.689,805.523,965.689,805.523Z" transform="translate(-461.631 -401.55)"/><path class="x" d="M1007.635,799.078c.144,3.444,2.836,7.727,4.438,9.992,1.009,0,1.794-.069,1.794-.069s-.625-16.656-1.068-18.413c-.23-.839-1.335-.651-2.424-.235C1009.018,792.856,1007.523,796.312,1007.635,799.078Z" transform="translate(-484.485 -401.551)"/><path class="h" d="M1007.635,799.078c.144,3.444,2.836,7.727,4.438,9.992,1.009,0,1.794-.069,1.794-.069s-.625-16.656-1.068-18.413c-.23-.839-1.335-.651-2.424-.235C1009.018,792.856,1007.523,796.312,1007.635,799.078Z" transform="translate(-484.485 -401.551)"/><path class="t" d="M1003.226,799.562c.908,3.332.9,7.065,2.344,9.319a4.149,4.149,0,0,0,.667.15,30.138,30.138,0,0,0,3.679.069c1.009,0,1.794-.069,1.794-.069s-.625-16.656-1.068-18.413c-.23-.838-1.335-.651-2.424-.235a16.371,16.371,0,0,0-2.366,1.2S1002.062,795.3,1003.226,799.562Z" transform="translate(-482.33 -401.565)"/><path class="h" d="M918.09,744.65s6.558,2.136,12.117,9.7Z" transform="translate(-442.763 -380.42)"/><g class="r" transform="translate(491.363 277.408)"><path d="M1017.687,590.88a.191.191,0,0,1-.043.144,4.691,4.691,0,0,1-.224.571,3.744,3.744,0,0,1,.267-.716Z" transform="translate(-980.411 -586.175)"/><path d="M948.274,583.453a6.5,6.5,0,0,1,.534-1.383c-.037.117-.075.235-.1.358a9.868,9.868,0,0,0,.3,4.539,3.135,3.135,0,0,0,1.105,2.024c1.015.657,2.6.085,3.423.967.534.534.534,1.554,1.25,1.9a1.372,1.372,0,0,0,.817.1c1.816-.256,2.868-2.312,4.619-2.878a4.636,4.636,0,0,1,3.06.267,2.269,2.269,0,0,1,1.015.651c.582.753.171,1.869.443,2.782.379,1.271,1.89,1.778,3.2,1.944s2.793.256,3.669,1.25a3.306,3.306,0,0,1,.651,2.67,2.134,2.134,0,0,0,0,.983c.363,1.025,2.136.87,2.6.059.336-.587.235-1.068,1.036-1.239a3.376,3.376,0,0,1,1.677.288,12.283,12.283,0,0,0,4.416.662,5.907,5.907,0,0,0,3.471-1.068,4.081,4.081,0,0,0,1.068-1.292,4.326,4.326,0,0,1-1.474,2.318,5.874,5.874,0,0,1-3.471,1.068,12.174,12.174,0,0,1-4.416-.662,3.435,3.435,0,0,0-1.677-.288c-.8.166-.7.651-1.036,1.244-.465.806-2.238.961-2.6-.064a2.134,2.134,0,0,1,0-.983,3.306,3.306,0,0,0-.651-2.67c-.876-.988-2.355-1.068-3.669-1.25s-2.83-.668-3.2-1.939c-.272-.919.139-2.035-.443-2.788a2.314,2.314,0,0,0-1.015-.652,4.63,4.63,0,0,0-3.06-.262c-1.746.534-2.8,2.617-4.619,2.873a1.373,1.373,0,0,1-.817-.091c-.689-.347-.721-1.34-1.25-1.9-.828-.881-2.4-.31-3.423-.967a3.146,3.146,0,0,1-1.105-2.024A9.533,9.533,0,0,1,948.274,583.453Z" transform="translate(-948.119 -582.07)"/></g><path class="h" d="M1015.1,684.358c-1.25,1.693-2.67,3.258-3.792,5.052a9.527,9.527,0,0,0-1.666,5.97,15.593,15.593,0,0,0,2.4-4.272c1.228-2.5,3.06-4.625,4.609-6.942.294-.438,2.184-2.975,1.228-3.1C1017.089,680.977,1015.53,683.781,1015.1,684.358Z" transform="translate(-485.406 -350.791)"/></g></svg>