<svg xmlns="http://www.w3.org/2000/svg" xmlns:xlink="http://www.w3.org/1999/xlink" viewBox="0 0 674 357.623"><defs><style>.a,.f{fill:#6c63ff;}.a,.e{opacity:0.1;}.b{fill:url(#a);}.c{fill:#f7d6c8;}.d{fill:#efb7b9;}.g{opacity:0.05;}.h{fill:#c3705a;}.i{fill:#ecb4b6;}.j{fill:#463a3e;}.k{fill:#c17174;}</style><linearGradient id="a" x1="0.5" y1="1" x2="0.5" gradientUnits="objectBoundingBox"><stop offset="0" stop-color="gray" stop-opacity="0.251"/><stop offset="0.54" stop-color="gray" stop-opacity="0.122"/><stop offset="1" stop-color="gray" stop-opacity="0.102"/></linearGradient></defs><g transform="translate(0 -0.051)"><path class="a" d="M73.07,204.171c1.092,6.928,3.883,13.62,3.907,20.626.091,22.9-27.688,36.958-31.941,59.453-2.524,13.347,4.016,26.984,13.237,36.94s20.978,17.132,31.807,25.322a203.674,203.674,0,0,1,66.727,88.269c2.736,7.037,5.09,14.293,5.866,21.8.564,5.46.3,11.047,1.577,16.38,5.066,21.166,30.752,29.381,52.47,30.752a230.107,230.107,0,0,0,102.368-17.1c7.28-3.033,14.8-6.479,22.61-5.624,6.249.686,11.824,4.065,17.308,7.14a229.58,229.58,0,0,0,51.19,21.075c9.889,2.73,20.268,4.8,30.369,3.033,30.333-5.351,46.452-42.139,76.215-50.183,20.59-5.563,42.017,4.156,60.484,14.827s37.528,22.962,58.846,22.992c28.44.036,51.821-21.488,71.113-42.381,4.046-4.386,8.16-8.973,10.089-14.621,3.913-11.466-2.427-24.345-11.8-32.05S684.324,399.3,673.034,394.9a281.65,281.65,0,0,1-54.46-28.44c-11.041-7.4-21.737-15.773-29.29-26.693-6.5-9.415-10.4-20.329-14.754-30.909-9.549-23.168-23.053-46.713-45.6-57.584-18.412-8.882-39.8-7.887-60.235-8.123-30.115-.334-60.994-3.955-87.693-17.884-22.55-11.763-41.071-30.333-63.954-41.453-36.4-17.672-78.011-14.208-117.231-13.541-18.849.322-41.253,2.2-59.356-3.974-13.389-4.568-20.281-13.9-35.66-10.143C83.765,161.28,69.709,182.8,73.07,204.171Z" transform="translate(-44.49 -155.23)"/><path class="b" d="M650.243,397.6a15.166,15.166,0,0,1,.285-9.622c1.82-4.708,6.255-8.1,7.814-12.916,2.9-8.936-4.914-17.3-9.707-25.4a42.661,42.661,0,0,1-5.709-24.873c.746-9.318,4.562-18.23,4.853-27.573.261-8.706-2.56-17.175-5.345-25.425-2.3-6.819-4.641-13.717-8.53-19.771-7.353-11.448-20.414-18.643-33.846-19.832-6.34-.564-12.54,1.5-18.77.692-8.651-1.116-16.829-3.361-25.65-3.64-8.378-.249-17.642.813-23.35,6.952-4.362,4.7-5.757,11.49-9.749,16.513-5.666,7.128-15.573,9.573-21.84,16.174a22.914,22.914,0,0,0-5.175,22.1c.868,2.815,2.287,5.43,3.209,8.226,3.877,11.684-1.213,24.182-4.289,36.1a5.46,5.46,0,0,0-.182,3.033c.485,1.456,2.014,2.22,3.282,3.082,4.15,2.827,6.267,7.947,6.673,12.952s-.752,9.992-1.893,14.881c-2.906,12.43-6.54,25.747-16.119,34.016a87.519,87.519,0,0,0-6.152-11.988c-5.86-9.5-10.2-21.233-10.271-32.462a.42.42,0,0,1,0-.1c0-.607.03-1.213.067-1.82.758-13.249,6.485-26.032,6.358-39.221q0-1.6-.091-3.209c-.746-11.29-6.17-21.731-12.388-31.182-4.641-7.055-9.87-13.868-16.568-19.007-10.356-7.881-23.514-11.3-36.442-13.11s-24.691-3.507-37.722-4.38c-14.014-.94-29.435-1.468-40.513,7.159-14.445,11.248-15.245,32.972-26.256,47.593-6.552,8.7-16.987,15.421-20.438,25.3a61.1,61.1,0,0,1-2.33-7.432c-.036-.17-.073-.334-.109-.5a72.338,72.338,0,0,0,2.809-37.146,45.706,45.706,0,0,0,.419-6.067,23.889,23.889,0,0,0-.71-6.558c-1.559-5.909-5.86-10.635-10.016-15.118a44.365,44.365,0,0,0-4.914-4.762,72.023,72.023,0,0,0-122.813,71.586,18.855,18.855,0,0,1-5.078,11.078c-1.341,1.329-3.076,2.991-2.785,4.69a2.287,2.287,0,0,0,.194,1.426,3.992,3.992,0,0,0,1.213,1.329,21.84,21.84,0,0,0,14.857,4.429,62.122,62.122,0,0,0,25.019,32.117q0,.607-.042,1.177c0,.673-.055,1.341-.085,2.02v.279c0-.061-21.124,27.536-40.646,28.562-10.422.546-19.516,7.577-26.408,15.615-8.275,9.646-13.383,20.736-13.82,23.805-.807,5.63-6.437,32.99-6.437,32.99H256.295c-1.917,9.852-4.5,22.4-4.5,22.4H514.351c-.607-8.439-1.28-16.24-1.9-22.847h33.008l-.036.2H697.69l9.658-14.493C704.952,423.392,680.042,400.175,650.243,397.6Zm-379.1-47.174a39.335,39.335,0,0,0,10.92,3.931c1.656.34,3.506.552,4.92-.376a5.654,5.654,0,0,0,1.984-2.809l.073.182c4.095,10.313,7.887,20.954,8.621,32.032.067,1.043.109,2.087.115,3.136a45.365,45.365,0,0,1-3.828,18.358,353.858,353.858,0,0,1-39.6-24.266l-.855-.364c0,.067.3.825.649,2.105.085.309.176.649.267,1.013-.868-2.8-1.656-5.666-2.348-8.584l-.237-1.037a62.2,62.2,0,0,0,19.316-23.32Z" transform="translate(-64.007 -181.896)"/><path class="c" d="M798.259,236.759c-8.245-.249-17.369.8-22.98,6.843-4.3,4.623-5.666,11.308-9.6,16.252-5.575,7.019-15.324,9.421-21.5,15.919a22.556,22.556,0,0,0-5.1,21.755c.855,2.766,2.251,5.345,3.161,8.093,3.816,11.527-1.165,23.8-4.247,35.526a5.345,5.345,0,0,0-.176,3c.473,1.432,1.984,2.184,3.227,3.033,4.083,2.785,6.17,7.82,6.54,12.74s-.74,9.834-1.862,14.645c-2.979,12.74-6.74,26.457-17.084,34.483-4.368,3.428-10.2,6.206-11.345,11.666-1.335,6.394,4.768,11.83,10.623,14.724,17.187,8.493,37.14,8.615,55.94,12.4,16.556,3.337,33.069,9.658,49.825,7.5,7.468-.959,14.609-3.585,21.676-6.188l44.007-16.216a11.447,11.447,0,0,0,3.458-1.741c2.651-2.208,2.742-6.406,1.3-9.543s-4.065-5.539-6.37-8.111c-5.023-5.624-8.845-13.565-6.1-20.59,1.82-4.635,6.158-7.978,7.693-12.74,2.851-8.8-4.853-17.035-9.525-25.007a41.987,41.987,0,0,1-5.618-24.455c.734-9.173,4.489-17.945,4.762-27.142.255-8.566-2.518-16.9-5.26-25.025-2.263-6.71-4.568-13.5-8.4-19.462-7.237-11.266-20.093-18.345-33.318-19.522-6.243-.552-12.339,1.474-18.473.686C815,239.228,806.94,237.019,798.259,236.759Z" transform="translate(-309.059 -187.265)"/><path class="d" d="M846.254,541.173s-49.892-31.279-30.491-67.339a55.638,55.638,0,0,0,6.88-23.423,50.618,50.618,0,0,0,0-5.7v-.273q-.1-1.468-.261-2.888A58.793,58.793,0,0,0,807.84,410.11s82.755-24.151,68.9-2.378c-6.431,10.107-4.508,20.02-.2,30.279.455,1.08.94,2.172,1.444,3.258,4.975,10.817,11.879,22.022,13.808,34.173C895.745,500.387,846.254,541.173,846.254,541.173Z" transform="translate(-344.745 -250.95)"/><path class="e" d="M876.739,407.73c-6.431,10.107-4.507,20.02-.2,30.279a55.916,55.916,0,0,1-54.175,3.567,58.709,58.709,0,0,0-14.523-31.468S890.6,385.951,876.739,407.73Z" transform="translate(-344.745 -250.949)"/><circle class="d" cx="55.831" cy="55.831" r="55.831" transform="translate(445.672 83.133)"/><path class="e" d="M832.24,474.382v-.273l.067-.109A1.812,1.812,0,0,0,832.24,474.382Z" transform="translate(-354.342 -280.594)"/><path class="e" d="M848.486,568.8S798.594,537.52,818,501.46a55.638,55.638,0,0,0,6.88-23.423c1.134,8.906,7.28,19.977,18.467,35.3,4.853,6.673,6.94,16,7.6,25.328l1.11.807,5.46-3.3c.607-10.313,2.694-20.736,7.632-28.125,12.976-19.413,16.058-29.12,15.1-39.178,4.975,10.817,11.878,22.022,13.808,34.173C897.977,528.013,848.486,568.8,848.486,568.8Z" transform="translate(-346.977 -278.576)"/><path class="f" d="M869.741,493.377c-29.726-2.16-48.533-25.237-48.533-25.237,1.583,10.811-.989,20.487-14.851,41.253-4.908,7.365-6.989,17.769-7.6,28.107l-5.46,3.3-1.11-.807c-.661-9.318-2.742-18.661-7.6-25.328-13.856-19.007-20.02-31.48-18.412-41.38,0,0-15.245,24.746-44.942,26.73s-54.642,22.968-57.026,61.376l9.5,13.068h93.711l-.036.2H917.23l9.537-14.275C924.383,518.45,899.467,495.537,869.741,493.377Z" transform="translate(-288.249 -278.289)"/><path class="g" d="M869.741,493.377c-29.726-2.16-48.533-25.237-48.533-25.237,1.583,10.811-.989,20.487-14.851,41.253-4.908,7.365-6.989,17.769-7.6,28.107l-5.46,3.3-1.11-.807c-.661-9.318-2.742-18.661-7.6-25.328-13.856-19.007-20.02-31.48-18.412-41.38,0,0-15.245,24.746-44.942,26.73s-54.642,22.968-57.026,61.376l9.5,13.068h93.711l-.036.2H917.23l9.537-14.275C924.383,518.45,899.467,495.537,869.741,493.377Z" transform="translate(-288.249 -278.289)"/><path class="e" d="M869.874,314.174c-2.427,6.006-6.734,11.078-11.442,15.531-6.5,6.158-14.681,11.581-23.623,11.163a36.236,36.236,0,0,0,10.2-16.756c-5.642,3.288-9.907,8.493-15.294,12.2s-13,5.618-18.267,1.747A54.757,54.757,0,0,0,834.3,316.467c-12.788,3.318-19.352,17.721-30.873,24.188a35.023,35.023,0,0,1-17.9,4.04c-4.4-.091-9.3-1.116-11.751-4.768-1.432-2.123-1.765-4.793-1.82-7.359-.267-11.636,4.471-23.053,11.769-32.111s16.986-15.943,27.348-21.288a37.81,37.81,0,0,1,11.642-4.247c5.108-.74,10.313.346,15.324,1.5,6.516,1.492,13.068,3.13,19.067,6.067C869.911,288.828,875.5,300.318,869.874,314.174Z" transform="translate(-330.625 -202.194)"/><path class="c" d="M869.874,312.864c-2.427,6.006-6.734,11.078-11.442,15.531-6.5,6.158-14.681,11.581-23.623,11.163a36.236,36.236,0,0,0,10.2-16.756c-5.642,3.288-9.907,8.493-15.294,12.2s-13,5.618-18.267,1.747A54.757,54.757,0,0,0,834.3,315.157c-12.788,3.318-19.352,17.721-30.873,24.188a35.023,35.023,0,0,1-17.9,4.04c-4.4-.091-9.3-1.116-11.751-4.768-1.432-2.123-1.765-4.793-1.82-7.359-.267-11.636,4.471-23.053,11.769-32.111s16.986-15.943,27.348-21.288a37.809,37.809,0,0,1,11.642-4.247c5.108-.74,10.313.346,15.324,1.5,6.516,1.492,13.068,3.13,19.067,6.067C869.911,287.505,875.5,299.008,869.874,312.864Z" transform="translate(-330.625 -201.679)"/><circle class="h" cx="70.876" cy="70.876" r="70.876" transform="translate(83.41 43.384)"/><path class="i" d="M333.2,493.1s-64.913,16.629-66.52,18.2-54.642,4.356-39.2-28.113c5.672-11.921,8.032-28.113,8.748-43.831.03-.667.061-1.329.085-1.99a323.766,323.766,0,0,0-2.493-50.8s75.226-29.726,69.687,15.446a94.38,94.38,0,0,0,2.275,33.142c.837,3.543,1.82,7.007,2.912,10.368A176.783,176.783,0,0,0,333.2,493.1Z" transform="translate(-115.358 -242.428)"/><path class="e" d="M311.7,435.174a60.994,60.994,0,0,1-69.469,2.208,323.767,323.767,0,0,0-2.493-50.8s75.226-29.726,69.687,15.446A94.649,94.649,0,0,0,311.7,435.174Z" transform="translate(-121.289 -242.436)"/><circle class="i" cx="60.976" cy="60.976" r="60.976" transform="translate(93.111 81.592)"/><path class="e" d="M333.2,533.544s-64.913,16.629-66.52,18.2-54.642,4.356-39.2-28.113c5.672-11.921,8.032-28.113,8.748-43.831.607,8.214,5.3,28.107,5.9,34.725a5.768,5.768,0,0,0,.231,1.141c.88,2.942,4.016,6.334,7.8,9.549l.224.188a28.92,28.92,0,0,0,34.058,2.275A153.594,153.594,0,0,0,299.941,516.5c7.062-5.83,9.264-13.686,9.537-20.627a44.159,44.159,0,0,0-.789-9.937A176.678,176.678,0,0,0,333.2,533.544Z" transform="translate(-115.358 -282.876)"/><path class="f" d="M366.917,579.669H102s5.545-26.924,6.334-32.469c.431-3.033,5.46-13.953,13.607-23.435,6.782-7.887,15.731-14.833,25.989-15.373,19.2-1.007,39.991-28.113,39.991-28.113h0c.461,7.887,5.326,28.483,5.939,35.241a5.769,5.769,0,0,0,.231,1.141c.88,2.942,4.016,6.334,7.8,9.549l.224.188a28.914,28.914,0,0,0,34.058,2.281A154.266,154.266,0,0,0,251.675,517.5c7.062-5.83,9.264-13.686,9.537-20.626a45.687,45.687,0,0,0-1.656-13.644,21.6,21.6,0,0,0-.643-2.069l.843.358s35.872,26.086,68.735,36.752a39.3,39.3,0,0,1,10.774,5.46,46.571,46.571,0,0,1,7.316,6.57,68.106,68.106,0,0,1,10.92,16.8A115.3,115.3,0,0,1,366.917,579.669Z" transform="translate(-67.111 -283.064)"/><path class="g" d="M366.917,579.669H102s5.545-26.924,6.334-32.469c.431-3.033,5.46-13.953,13.607-23.435,6.782-7.887,15.731-14.833,25.989-15.373,19.2-1.007,39.991-28.113,39.991-28.113h0c.461,7.887,5.326,28.483,5.939,35.241a5.769,5.769,0,0,0,.231,1.141c.88,2.942,4.016,6.334,7.8,9.549l.224.188a28.914,28.914,0,0,0,34.058,2.281A154.266,154.266,0,0,0,251.675,517.5c7.062-5.83,9.264-13.686,9.537-20.626a45.687,45.687,0,0,0-1.656-13.644,21.6,21.6,0,0,0-.643-2.069l.843.358s35.872,26.086,68.735,36.752a39.3,39.3,0,0,1,10.774,5.46,46.571,46.571,0,0,1,7.316,6.57,68.106,68.106,0,0,1,10.92,16.8A115.3,115.3,0,0,1,366.917,579.669Z" transform="translate(-67.111 -283.064)"/><path class="e" d="M279.944,313.508c1.577,6.067,3.64,12.807,9.057,15.967a7.953,7.953,0,0,1,1.984,1.353c1.335,1.45.928,3.713.728,5.678-.692,6.746,2.208,13.583,6.964,18.418s11.193,7.79,17.836,9.148c1.626.334,3.452.546,4.853-.37a5.66,5.66,0,0,0,1.99-2.857c1.85-4.92,1.068-10.447-.479-15.47s-3.828-9.816-5-14.942c-2.785-12.164.9-24.734,2.566-37.1.552-4.113.874-8.354-.188-12.364-1.535-5.812-5.769-10.471-9.858-14.881-2.2-2.372-4.453-4.787-7.28-6.34-8.336-4.556-19.067-.51-27.967-3.828-3.561-1.329-6.588-3.755-9.98-5.46-7.2-3.64-15.737-3.84-23.629-2.184s-15.288,5.06-22.61,8.433l-5.6,2.536c-7.887,3.64-16.337,7.753-20.584,15.367-4.52,8.1-3.264,18.479-7.783,26.584-1.371,2.427-3.282,4.756-3.64,7.547a15.05,15.05,0,0,0,.952,5.976c1.407,4.738,2.633,9.61,2.524,14.56s-1.687,10.022-5.193,13.5c-1.48,1.468-3.458,3.349-2.548,5.223a3.931,3.931,0,0,0,1.213,1.31,21.482,21.482,0,0,0,20.463,3.033,13.29,13.29,0,0,0,6.673-5.035,19.711,19.711,0,0,0,2.148-5.63c1.917-7.14,3.846-14.4,3.695-21.8-.085-4.247-.861-8.53-.243-12.74s3.076-8.548,7.171-9.707c3.033-.867,6.279.182,9.446.152,4.562-.036,10.156-5.1,14.384-3.61,3.64,1.286,6.522,8.251,9.531,10.92C259.172,311.712,269.825,315.273,279.944,313.508Z" transform="translate(-96.544 -191.415)"/><path class="h" d="M279.976,312.178c1.577,6.067,3.64,12.807,9.057,15.967a7.952,7.952,0,0,1,1.96,1.322c1.335,1.45.928,3.713.728,5.678-.692,6.746,2.208,13.583,6.964,18.418s11.193,7.79,17.836,9.148c1.626.334,3.452.546,4.853-.37a5.66,5.66,0,0,0,1.99-2.857c1.85-4.92,1.068-10.447-.479-15.47s-3.828-9.816-5-14.942c-2.785-12.164.9-24.734,2.566-37.1.552-4.113.874-8.354-.188-12.364-1.535-5.812-5.769-10.471-9.858-14.881-2.2-2.372-4.453-4.787-7.28-6.34-8.336-4.556-19.067-.51-27.967-3.828-3.561-1.329-6.588-3.755-9.98-5.46-7.2-3.64-15.737-3.84-23.63-2.184s-15.288,5.06-22.61,8.433l-5.527,2.548c-7.887,3.64-16.337,7.753-20.584,15.367-4.52,8.105-3.264,18.479-7.783,26.584-1.371,2.427-3.282,4.756-3.64,7.547a15.05,15.05,0,0,0,.952,5.976c1.407,4.738,2.633,9.61,2.524,14.56s-1.687,10.022-5.193,13.5c-1.48,1.468-3.458,3.349-2.548,5.223a3.931,3.931,0,0,0,1.213,1.31A21.482,21.482,0,0,0,198.817,351a13.29,13.29,0,0,0,6.673-5.035,19.711,19.711,0,0,0,2.148-5.63c1.917-7.14,3.846-14.4,3.695-21.8-.085-4.247-.861-8.53-.243-12.74s3.076-8.548,7.171-9.707c3.033-.868,6.279.182,9.446.152,4.562-.036,10.156-5.1,14.384-3.61,3.64,1.286,6.522,8.251,9.531,10.92C259.2,310.389,269.857,313.95,279.976,312.178Z" transform="translate(-96.576 -190.88)"/><rect class="j" width="138.986" height="119.185" transform="translate(247.536 147.196)"/><rect class="g" width="138.986" height="119.185" transform="translate(247.536 147.196)"/><path class="k" d="M571.676,569.327H452.77c1.535-8.657,6.024-18.145,14.772-28.374A104.953,104.953,0,0,0,484.3,514.139q1.693-3.9,3.033-7.82a114.509,114.509,0,0,0,5.333-23.915,6.713,6.713,0,0,1,.079-.692,130.653,130.653,0,0,0,.74-16.938c0-.406,0-.8,0-1.213a154.349,154.349,0,0,0-6.825-40.9l-.152-.473c-1.292-4.071-2.239-6.358-2.239-6.358s2.36-1.28,6.255-3.167l.328-.158c14.323-6.88,48.23-21.233,63.178-11l.243.164c5.229,3.725,8.044,10.562,6.722,21.949v.133a5.987,5.987,0,0,1-.067.607,220.389,220.389,0,0,0-1.134,23.623v1.213q0,2.772.061,5.618v.764c.121,6.127.394,12.455.777,18.873.528,8.9,1.28,17.963,2.148,26.857.37,3.8.77,7.583,1.213,11.3.049.437.1.886.146,1.316.51,4.532,1.037,8.973,1.577,13.28l.036.279C567.811,544.587,570.092,559.523,571.676,569.327Z" transform="translate(-205.082 -250.676)"/><path class="e" d="M581.346,423.654v.133a218.193,218.193,0,0,0-1.213,24.267c0,.394,0,.789,0,1.213a57.882,57.882,0,0,1-66.278,15.579v-1.213a154.04,154.04,0,0,0-6.977-41.374c-1.292-4.071-2.239-6.358-2.239-6.358s2.36-1.28,6.255-3.167c14.184-6.855,48.794-21.658,63.73-11.029C579.848,405.43,582.663,412.267,581.346,423.654Z" transform="translate(-225.484 -250.693)"/><circle class="k" cx="57.827" cy="57.827" r="57.827" transform="translate(252.996 101.788)"/><path class="e" d="M481.9,635.078H358.54s5.545-26.924,6.334-32.469c.431-3.033,5.46-13.953,13.607-23.435a59.853,59.853,0,0,1,36.812-13.061c23.593-.352,30.46,7.771,32.323,13.777a13.45,13.45,0,0,1,.485,6.243l4.465,6.467Z" transform="translate(-168.018 -316.821)"/><path class="f" d="M481.255,635.728H357.89s5.545-26.924,6.334-32.469c.431-3.033,5.46-13.953,13.607-23.435a59.853,59.853,0,0,1,36.812-13.061c23.593-.352,30.46,7.771,32.323,13.777a13.45,13.45,0,0,1,.485,6.243l4.465,6.467Z" transform="translate(-167.762 -317.077)"/><path class="e" d="M699.415,633.757H570.16c6.164-13.116,22.319-48.084,23.217-56.171.346-3.13,3.682-6.067,8.1-8.56a46.037,46.037,0,0,1,4.3-2.172l.267-.121q1.213-.534,2.457-.989a49.237,49.237,0,0,1,34.58.273c10.611,4.034,24.266,9.47,34.9,14.56l.085.042c2.73,1.31,5.272,2.59,7.51,3.822,4.477,2.457,7.747,4.7,9,6.5.576.825,1.213,4.544,1.911,10.313C697.413,609.054,698.426,620.629,699.415,633.757Z" transform="translate(-251.256 -315.501)"/><path class="f" d="M700.065,634.407H570.81c6.164-13.116,22.319-48.084,23.217-56.171.346-3.13,3.682-6.067,8.1-8.56a46.007,46.007,0,0,1,4.3-2.172l.267-.121q1.213-.534,2.457-.989a49.237,49.237,0,0,1,34.58.273c10.611,4.034,24.266,9.47,34.9,14.56l.085.042c2.73,1.31,5.272,2.59,7.51,3.822,4.477,2.457,7.747,4.7,9,6.5.576.825,1.213,4.544,1.911,10.313C698.069,609.7,699.076,621.285,700.065,634.407Z" transform="translate(-251.512 -315.756)"/><path class="e" d="M595.631,453.855q0,2.8-.152,5.6-.085,1.365-.206,2.73c-.055.655-.121,1.3-.188,1.953l-.085.752c-.989,8.821-2.815,17.593-3.033,26.456V492.6a110.411,110.411,0,0,0,3.13,24.679H520.66c-.121-1.511-.182-3.033-.164-4.532a39.772,39.772,0,0,1,.224-4.065c1.147-11.169,6.855-21.621,7.717-32.717l.036-.51c.055-.831.085-1.668.073-2.506v-.224a42.891,42.891,0,0,0-1.681-10.835l-.146-.528a109.15,109.15,0,0,0-3.64-10.313l-.267-.673c-2.02-5.047-4.143-10.052-5.581-15.069a40.1,40.1,0,0,1-1.753-11.527c0-.7.042-1.4.1-2.093.049-.57.115-1.141.2-1.717a26.9,26.9,0,0,1,.534-2.675c1.213-4.78,3.8-9.264,6.285-13.7h0c2.76-4.944,5.393-9.834,5.866-15.033a17.363,17.363,0,0,0,.067-1.978h0a17.428,17.428,0,0,0-.243-2.536c-.637-3.689-2.536-7.007-4.095-10.41-.158-.346-.315-.692-.467-1.043,0-.055-.049-.109-.067-.164-3.033-7.007-4.793-14.481-6.643-21.919-.079-.322-.158-.643-.243-.958-.455-1.82-.922-3.64-1.42-5.46-2.718-9.925-6.588-19.953-13.953-27.118s-19.11-10.792-28.331-6.23c-7.978,3.974-12.3,12.867-14.244,21.555s-2.105,17.757-4.635,26.3q-.273.934-.607,1.862c-.109.315-.218.607-.328.952a95.325,95.325,0,0,1-3.871,9.2l-.152.322c-4.611,9.81-9.967,19.45-10.137,29.308v.922a25.422,25.422,0,0,0,1.056,6.916A34.461,34.461,0,0,0,446.12,419q.758.989,1.553,1.96c2.548,3.13,5.314,6.164,7.735,9.391l.079.1a38.377,38.377,0,0,1,4.629,7.723,28.192,28.192,0,0,1,.121,21.779,40.92,40.92,0,0,1-2.36,4.647c-1.559,2.694-3.276,5.314-4.629,8.117a30.324,30.324,0,0,0-1.213,2.87c-3.033,7.814-3.688,16.459-6.164,24.521a55.674,55.674,0,0,1-8.815,17.162H358.19c.916-4.483,5.46-26.693,6.176-31.68.431-3.033,5.46-13.953,13.607-23.435q-1.028.81-1.984,1.632a67.486,67.486,0,0,0-13.207,15.2c.176-.546.358-1.1.54-1.644,1.11-3.312,2.311-6.594,3.531-9.834,3.531-9.33,7.462-18.849,14.5-25.923,3.974-3.992,8.809-7.068,12.594-11.235,6.673-7.335,9.434-17.5,9.355-27.458,0-1.031-.042-2.057-.109-3.082-.722-10.92-4.453-21.373-8.493-31.546-2.172-5.46-4.477-11.2-4.374-16.987a18.926,18.926,0,0,1,.176-2.427c1.668-11.994,13.8-19.177,21.088-28.853,10.835-14.4,11.624-35.793,25.838-46.846,10.92-8.493,26.086-7.972,39.876-7.049,12.825.861,24.4,2.53,37.128,4.313s25.644,5.132,35.854,12.977c6.594,5.06,11.739,11.763,16.307,18.709,6.115,9.306,11.46,19.583,12.194,30.691.055.795.085,1.583.085,2.366.127,12.983-5.509,25.565-6.255,38.6-.03.607-.055,1.213-.061,1.82a.416.416,0,0,0,0,.1c-.133,11.3,4.2,23.168,10.107,32.76A87.863,87.863,0,0,1,595.631,453.855Z" transform="translate(-167.88 -198.63)"/><path class="j" d="M595.513,453.355c0,1.6-.061,3.209-.152,4.8q-.085,1.365-.206,2.73t-.273,2.706c-.989,8.821-2.815,17.593-3.033,26.457V492.1a113.959,113.959,0,0,0,3.306,24.679H520.609c-.14-1.511-.224-3.033-.237-4.532a43.407,43.407,0,0,1,.224-4.853c1.147-11.169,6.855-21.621,7.717-32.717.061-.813.1-1.626.109-2.427v-.57a43.4,43.4,0,0,0-1.814-11.587,109.133,109.133,0,0,0-3.64-10.313c-2.1-5.272-4.35-10.507-5.854-15.773a41.023,41.023,0,0,1-1.753-10.756,28.217,28.217,0,0,1,.1-2.888c.049-.57.115-1.141.2-1.717a26.913,26.913,0,0,1,.534-2.675c1.213-4.78,3.8-9.264,6.285-13.7,2.766-4.95,5.411-9.852,5.879-15.057.036-.394.055-.795.067-1.213h0a16.984,16.984,0,0,0-.243-3.331c-.637-3.689-2.536-7.007-4.095-10.41-.158-.346-.315-.692-.467-1.043-3.076-7.049-4.853-14.56-6.71-22.082-.534-2.148-1.08-4.3-1.656-6.425-2.718-9.925-6.588-19.953-13.953-27.118s-19.092-10.72-28.307-6.133c-7.978,3.974-12.3,12.867-14.244,21.555s-2.105,17.757-4.635,26.3c-.279.94-.607,1.881-.916,2.815-1.128,3.2-2.536,6.37-4.016,9.525-4.738,10.065-10.253,19.965-10.137,30.1v.127a25.427,25.427,0,0,0,1.056,6.916,34.459,34.459,0,0,0,5.97,10.92q.758.989,1.553,1.96c2.578,3.167,5.375,6.23,7.814,9.494a38.38,38.38,0,0,1,4.629,7.723,28.192,28.192,0,0,1,.121,21.779,40.921,40.921,0,0,1-2.36,4.647c-1.559,2.694-3.276,5.314-4.629,8.117a30.316,30.316,0,0,0-1.213,2.869c-3.033,7.814-3.689,16.459-6.164,24.521A55.813,55.813,0,0,1,436.4,516.77H357.89s5.545-26.924,6.334-32.469c.394-2.772,4.647-12.133,11.624-21.009.607-.813,1.3-1.626,1.984-2.427a67.975,67.975,0,0,0-14.645,15.979l-.54.849c1.262-3.877,2.651-7.7,4.077-11.478,3.531-9.33,7.462-18.849,14.5-25.923,3.974-3.992,8.809-7.068,12.594-11.235,6.479-7.14,9.282-16.987,9.355-26.693,0-1.3,0-2.59-.109-3.877-.722-10.92-4.453-21.373-8.493-31.546-2.069-5.229-4.247-10.677-4.374-16.222a19.708,19.708,0,0,1,.176-3.2c1.674-11.927,13.808-19.08,21.094-28.786,10.835-14.4,11.624-35.793,25.838-46.846,10.92-8.493,26.086-7.972,39.876-7.049,12.825.861,24.4,2.53,37.128,4.313s25.662,5.126,35.86,12.946c6.594,5.09,11.739,11.763,16.307,18.716,6.115,9.306,11.46,19.583,12.194,30.691q.109,1.583.085,3.161c-.1,12.7-5.527,25.037-6.255,37.813-.049.861-.073,1.717-.061,2.584a.416.416,0,0,0,0,.1c.073,11.065,4.344,22.6,10.107,31.953A87.869,87.869,0,0,1,595.513,453.355Z" transform="translate(-167.762 -198.131)"/></g></svg>